<svg id="Layer_1" data-name="Layer 1" xmlns="http://www.w3.org/2000/svg" viewBox="0 0 586.95 394.33"><title>Cosmo Logo</title><path d="M315.68,211.63a10.15,10.15,0,0,0,.31-8.53c9.86-3.32,18.66-9.82,26.44-19.59a24.56,24.56,0,0,1-4.2,21,23.65,23.65,0,0,1-8.63,6.29,25.13,25.13,0,0,1-14.46,1.68c.18-.27.35-.58.54-.89m40.55-20.83a44.69,44.69,0,0,0,2.22-4.11,15.35,15.35,0,0,0,2.3,4.69c-1.9,3.05-3.93,6-6.1,8.85q-14.46,18.84-32.77,25.7a26.18,26.18,0,0,0-2.7-5.35,28.32,28.32,0,0,0-2.61-3.28,28.86,28.86,0,0,0,16.89-1.81,24,24,0,0,0,4.24-2.26,24.53,24.53,0,0,0,5.49-4.81,24.09,24.09,0,0,0,2.34-3.67c.66-1.37,1.24-2.74,1.73-4.07a38.61,38.61,0,0,0,9-9.86M296,240.55l1.85.75a13,13,0,0,1-5.7,11.15,13,13,0,0,1,3.85-11.9m3,1h2a13,13,0,0,1-1,12.52,13.19,13.19,0,0,1-1-12.52m3.19-.23,1.9-.75a13.19,13.19,0,0,1,3.85,11.9,13,13,0,0,1-5.75-11.15m7.43-1.81a15.81,15.81,0,0,1-2.43-2l.75-1.86a12.23,12.23,0,0,1,8.27,2.74,15.19,15.19,0,0,1,2.83,2.92,12.94,12.94,0,0,1-9.42-1.76m-4.56.44,1.42-1.5a16.33,16.33,0,0,1,2.25,1.14,13.09,13.09,0,0,1,5.89,8.37,13,13,0,0,1-9.56-8m-14.6-.44a13,13,0,0,1-9.5,1.81,15.36,15.36,0,0,1,2.87-3,12.43,12.43,0,0,1,8.27-2.79l.79,2a15.52,15.52,0,0,1-2.43,2m-5,8.49a13.35,13.35,0,0,1,5.89-8.41,16.32,16.32,0,0,1,2.25-1.14l1.46,1.45v0a13.07,13.07,0,0,1-9.6,8.06m-6-14.6c.4-.23.71-.4,1.11-.58a16.73,16.73,0,0,1,4.11-1.41,13,13,0,0,1,7.25,1v2a10.51,10.51,0,0,1-1.42.53c-3.72,1.2-7.34.66-11.05-1.54m27.11-5L305.07,227a12.89,12.89,0,0,1,9.51-8.18,13,13,0,0,1-8.09,9.6m1.42,2.87-.75-1.9c3.14-3.28,7.08-4.56,11.9-3.9a17.74,17.74,0,0,1-1.6,1.91,12.87,12.87,0,0,1-9.55,3.89m.22,3.14,0-2a12.83,12.83,0,0,1,7.2-1,14.18,14.18,0,0,1,4.16,1.41,8.79,8.79,0,0,1,1.11.58,13.13,13.13,0,0,1-11.15,1.54,10.5,10.5,0,0,1-1.37-.53M304,226.27l-1.85-.8a12.47,12.47,0,0,1,3.75-9.42c.63-.57,1.24-1.14,2-1.68,0,.62.13,1.2.13,1.77a12.58,12.58,0,0,1-4,10.13m-11.19,3.1v0l-.79,1.85a12.81,12.81,0,0,1-9.56-3.85,20.93,20.93,0,0,1-1.55-1.85,12.83,12.83,0,0,1,11.9,3.81m3.23.31a5.67,5.67,0,0,1,5-1.6,5.56,5.56,0,0,1,2.79,1.6,5.79,5.79,0,0,1,.66.74,5.18,5.18,0,0,1,.88,2.53,5.62,5.62,0,0,1-.09,1.51,2.77,2.77,0,0,1-.26.93,4.82,4.82,0,0,1-2.08,2.52,5.17,5.17,0,0,1-4,.8,5,5,0,0,1-3.41-2.3,3.89,3.89,0,0,1-.53-1,4.48,4.48,0,0,1-.35-2.43,2.43,2.43,0,0,1,0-.57,4.81,4.81,0,0,1,1.42-2.7M295,226.94l-1.46,1.46a13,13,0,0,1-8.14-9.56c4.73,1.19,7.92,3.84,9.6,8.09m-55.82-35.56a15.88,15.88,0,0,0,2.3-4.69c.67,1.42,1.42,2.79,2.22,4.11a36.87,36.87,0,0,0,8.89,9.73,29.79,29.79,0,0,0,1.63,4.21,18.5,18.5,0,0,0,2.3,3.67,24.53,24.53,0,0,0,5.49,4.81,23.2,23.2,0,0,0,4.15,2.26,30,30,0,0,0,17.2,1.81,22.22,22.22,0,0,0-5.26,8.63q-18.31-6.77-32.82-25.7c-2.16-2.87-4.2-5.8-6.1-8.85M300,212.88a1.3,1.3,0,0,1,.26.31,13,13,0,0,1,.75,12.07h-2a12.81,12.81,0,0,1,1-12.38m-7.88,1.5a.14.14,0,0,1,.09,0A23.19,23.19,0,0,1,294,216a12.68,12.68,0,0,1,3.8,9.46l-1.85.84a12.65,12.65,0,0,1-4-10.17,8.91,8.91,0,0,1,.17-1.77m-7.91-2.74a8.76,8.76,0,0,0,.48.89A25.81,25.81,0,0,1,270,210.84a23.64,23.64,0,0,1-8.54-6.29,15.77,15.77,0,0,1-2-3.22,26.75,26.75,0,0,1-2-17.78c7.74,9.69,16.59,16.23,26.45,19.56a10.25,10.25,0,0,0,.26,8.53m1.81-1.14a9.16,9.16,0,0,1-.48-6.9,52.24,52.24,0,0,0,28.88,0,9.13,9.13,0,0,1-.53,6.9,4.91,4.91,0,0,1-.75,1.1,2.06,2.06,0,0,1-.45.45,4.91,4.91,0,0,1-1.41,1.15,23.51,23.51,0,0,0-6.77-2.43,22.42,22.42,0,0,0-15.83,2.52,7.56,7.56,0,0,1-1.51-1.19c-.14-.14-.31-.35-.45-.49a7.63,7.63,0,0,1-.71-1.1m-41.13-49v-.18a75.14,75.14,0,0,0,3.63,8.18c.71,1.42,1.41,2.79,2.21,4.16,1,1.73,2.08,3.36,3.22,5a5.93,5.93,0,0,0-.53,1.14,29.65,29.65,0,0,0-2,15.75,34.12,34.12,0,0,1-4-5,26.74,26.74,0,0,1-4.29-11.15c-.84-5.18-.23-11.15,1.76-17.91M188.8,128.27c5.79-3.44,11.58-3.93,17.42-1.41v2.82c-5.8,2.53-11.64,2.08-17.42-1.42m23.83,10.26c.17,2.61.4,5.26.71,7.78a19.77,19.77,0,0,1-6.77,8.57q-1.46-10,5.35-16.67Zm-6.15-7.21,1.11,2.62Q201,140.76,191,139.28q6-8.16,15.52-8m2,4,2,2c-2.34,5.89-6.77,9.65-13.31,11.33q2.45-9.89,11.27-13.35m19,13.26a4.86,4.86,0,0,1,.88-1.37,7,7,0,0,1,.75-.71,7.46,7.46,0,0,1,1.73-1,7.36,7.36,0,0,1,2.74-.53,6.34,6.34,0,0,1,3.49.93,8.69,8.69,0,0,1,2,1.73,9.4,9.4,0,0,1,1,1.37,12.38,12.38,0,0,1,.79,1.77,11.48,11.48,0,0,1,.49,3.32,10.9,10.9,0,0,1-.57,3.5,17,17,0,0,1-1.2,3.09,21.77,21.77,0,0,0-1.37,2.62l0,0a21.47,21.47,0,0,0-1.81,8.88,21.06,21.06,0,0,0,.17,2.88,20.39,20.39,0,0,0,1.06,4.6,8.6,8.6,0,0,1,.57,1.51,11.74,11.74,0,0,1,.4,1.45,9,9,0,0,1-.75,6.41,109.56,109.56,0,0,1-11.81-29.54c-.44-1.94-.88-3.9-1.24-5.89.23.35.45.62.66.93a3.38,3.38,0,0,0,.66.71,4,4,0,0,0,1.15.8,4.29,4.29,0,0,0,.79.4,3.7,3.7,0,0,0,1.15.22H230a4,4,0,0,0,3.32-1.77,1.45,1.45,0,0,1,.26-.48,1.52,1.52,0,0,1,.17-.45,4,4,0,0,0,.14-.84V153a2.85,2.85,0,0,0-.8-2,2.67,2.67,0,0,0-2-.8,2.62,2.62,0,0,0-2,.8c-.09.09-.17.22-.31.35a2.88,2.88,0,0,0-.53,1.63,1,1,0,0,0,0,.35,1,1,0,0,1-.53-.14,1.15,1.15,0,0,1-.62-.79,1.34,1.34,0,0,1-.14-.45,3.22,3.22,0,0,1-.09-1,4.21,4.21,0,0,1,.09-1,3.22,3.22,0,0,1,.14-.57c.09-.27.17-.54.26-.8,0,0,0-.09,0-.09m7.57-34h.31a12.81,12.81,0,0,0,4.9-.93c-.14,1.05-.26,2.21-.4,3.36-.09.79-.17,1.59-.22,2.43a7,7,0,0,0-.18,2.13,1,1,0,0,0,0,.35c-.09,1.2-.09,2.39-.09,3.62a2.14,2.14,0,0,0,0,.54c0,.57,0,1.14,0,1.73v.84c0,.54,0,1.11,0,1.68V131c0,1.2.09,2.39.17,3.59v.26a8.16,8.16,0,0,0,.09,1.46c.09,1.05.22,2.16.31,3.18s.26,2.21.4,3.32a13.72,13.72,0,0,0-4.9-.88h-.31a12.57,12.57,0,0,0-6.33,1.77,6.7,6.7,0,0,0-1.14.84,7.65,7.65,0,0,0-.66.57,9.6,9.6,0,0,0-1.51,1.46,8.79,8.79,0,0,0-.88,1.37,4.38,4.38,0,0,1-.23.49,8.92,8.92,0,0,0-.31,1.05c-.57-3.62-1-7.29-1.24-11.1-.09-1.45-.18-3-.22-4.46,0-1.86-.14-3.76-.14-5.67s.09-3.8.14-5.66c.08-1.5.13-3,.22-4.47.26-3.8.66-7.51,1.24-11.15a9.35,9.35,0,0,0,.31,1.11,1.62,1.62,0,0,1,.23.49,6.67,6.67,0,0,0,.88,1.28,12,12,0,0,0,1.51,1.54,6.46,6.46,0,0,0,.66.58,6.7,6.7,0,0,0,1.14.84,12.68,12.68,0,0,0,6.33,1.77m-24.55,4.64-2,2c-5.83-2.3-9.59-6.72-11.23-13.31q9.81,2.45,13.26,11.32m-2.92,3.41-1.11,2.61c-6.28.09-11.45-2.56-15.52-8,6.72-1,12.21.8,16.63,5.4m5.75-12.43c-.31,2.61-.54,5.17-.71,7.83l-.71.26c-4.55-4.38-6.37-10-5.4-16.63a19.52,19.52,0,0,1,6.81,8.54m-3.19,16.59a7,7,0,0,1,2.26-4c-.09,1.81-.14,3.67-.14,5.48s0,3.72.14,5.49a5.55,5.55,0,0,1-1.11-1.33,7.17,7.17,0,0,1-1.15-5.61M237.8,67.5a9.09,9.09,0,0,1,.71,6.38c-.08.48-.26,1-.4,1.5a10.22,10.22,0,0,1-.57,1.51,19.35,19.35,0,0,0-1.06,4.55,21.41,21.41,0,0,0-.17,2.88,22.21,22.21,0,0,0,1.81,9h0a18.18,18.18,0,0,0,1.37,2.56,18.12,18.12,0,0,1,1.2,3.1,10.84,10.84,0,0,1,.4,1.55,9.74,9.74,0,0,1,.17,1.94,10.11,10.11,0,0,1-.53,3.36,8,8,0,0,1-.75,1.73,9.92,9.92,0,0,1-1,1.37,7.81,7.81,0,0,1-2,1.73,6.38,6.38,0,0,1-3.49,1,7.14,7.14,0,0,1-2.7-.54,8,8,0,0,1-1.77-1.06,6.09,6.09,0,0,1-.75-.7,5.61,5.61,0,0,1-.88-1.37s0,0,0-.09c-.09-.26-.17-.54-.26-.8a2.62,2.62,0,0,1-.14-.57,4,4,0,0,1-.09-1,3.37,3.37,0,0,1,.09-1,2.38,2.38,0,0,1,.14-.45,1.52,1.52,0,0,1,.62-.79,1,1,0,0,1,.53-.14,1.33,1.33,0,0,0,0,.4,3,3,0,0,0,.53,1.63,2,2,0,0,1,.31.31,2.65,2.65,0,0,0,2,.84,2.71,2.71,0,0,0,2-.84,2.83,2.83,0,0,0,.8-1.94v-.18a3.62,3.62,0,0,0-.14-.74c-.08-.18-.13-.35-.17-.45s-.23-.35-.26-.45A3.91,3.91,0,0,0,230,99.84h-.44a1.46,1.46,0,0,0-.45,0,3.54,3.54,0,0,0-1.15.26c-.26.13-.57.22-.79.35a5.19,5.19,0,0,0-1.15.79c-.22.23-.44.45-.66.71s-.44.63-.66.94c.35-2,.8-3.85,1.24-5.75A108.73,108.73,0,0,1,237.8,67.5m16.14,10.22c-1.1,1.63-2.21,3.32-3.18,5-.8,1.33-1.54,2.74-2.25,4.16a80,80,0,0,0-3.63,8.23V95c-2-6.81-2.61-12.78-1.76-18a27.17,27.17,0,0,1,4.29-11.19,32.7,32.7,0,0,1,4.07-5,28.74,28.74,0,0,0,2,15.74c.17.4.31.75.48,1.11m7.75-25.78a22.77,22.77,0,0,1,8.62-6.24A25.44,25.44,0,0,1,284.72,44a8.55,8.55,0,0,1-.48.89,9.92,9.92,0,0,0-.31,8.53c-9.86,3.32-18.71,9.82-26.45,19.59a25.72,25.72,0,0,1,2.13-17.78,28.77,28.77,0,0,1,2.08-3.27m31.84-23.75L295,29.65a13.13,13.13,0,0,1-9.6,8.09,13,13,0,0,1,8.14-9.56M305,29.65l1.42-1.46a13,13,0,0,1,8.14,9.51,13,13,0,0,1-9.56-8m-2.87,1.42,1.9-.8a12.66,12.66,0,0,1,4,10.13c0,.57-.09,1.14-.13,1.73v.08a.22.22,0,0,1-.14-.08,17.13,17.13,0,0,1-1.86-1.6,13,13,0,0,1-3.75-9.46m-6.19-.8,1.85.75a12.59,12.59,0,0,1-3.75,9.5,16.45,16.45,0,0,1-1.86,1.6s0,0-.09.08v-.08A12.36,12.36,0,0,1,292,40.4a12.49,12.49,0,0,1,4-10.13m3,1h2a13,13,0,0,1-.84,12.25c-.09,0-.09.08-.18.17s0,0,0-.09a12.94,12.94,0,0,1-1-12.33m5.53-11.15c.22.35.35.66.53,1a5.38,5.38,0,0,1,.35,2.53,3.07,3.07,0,0,1-.09.57,5.24,5.24,0,0,1-1.45,2.7,4.14,4.14,0,0,1-.89.75,5.19,5.19,0,0,1-4,.74,5,5,0,0,1-2.82-1.5,3.85,3.85,0,0,1-.58-.8,4.83,4.83,0,0,1-.88-2.47,5.88,5.88,0,0,1,0-1.55,8,8,0,0,1,.31-1,5,5,0,0,1,2-2.48,5.13,5.13,0,0,1,4-.79,5.47,5.47,0,0,1,3.45,2.3M280.92,31a20.11,20.11,0,0,1,1.59-1.82,12.78,12.78,0,0,1,9.56-3.89l.79,1.9c-3.14,3.27-7.12,4.51-11.94,3.81m-.18,5a34.34,34.34,0,0,0,2.65,3.27,29.12,29.12,0,0,0-16.94,1.82,23,23,0,0,0-4.24,2.25,23.93,23.93,0,0,0-5.49,4.82,22.5,22.5,0,0,0-2.34,3.67,36.91,36.91,0,0,0-1.73,4.07,38.29,38.29,0,0,0-9,9.82c-.8,1.37-1.54,2.7-2.22,4.11a17.4,17.4,0,0,0-2.25-4.65,101.24,101.24,0,0,1,6.06-8.79c9.65-12.61,20.61-21.15,32.82-25.74A24.05,24.05,0,0,0,280.74,36m-3.81-11.05a14.91,14.91,0,0,0,.27,2.43q-19.31,7.08-34.54,26.93a96.54,96.54,0,0,0-5.8,8.36,17.83,17.83,0,0,0-1.33,2.13,110.61,110.61,0,0,0-12.83,31.71c-.93,3.75-1.63,7.65-2.21,11.63-.31,2.25-.63,4.56-.8,6.95-.17,1.9-.31,3.89-.4,5.88-.09,2.43-.17,4.87-.17,7.34s.08,5,.17,7.35c.09,2,.23,4,.45,6,.17,2.34.45,4.64.75,6.89.57,4,1.33,7.92,2.21,11.73a111.63,111.63,0,0,0,12.78,31.57l1.37,2.17c1.77,2.82,3.72,5.61,5.8,8.31q15.26,19.91,34.62,27a14.92,14.92,0,0,0-.35,2.34q-19.89-7.1-35.64-27.29c-2.25-2.92-4.38-5.93-6.32-9-.49-.75-.93-1.51-1.37-2.22a115.49,115.49,0,0,1-13.27-32.68c-.45-2-.88-4.16-1.28-6.24a129.76,129.76,0,0,1-1.86-14.59c-.08-1.24-.17-2.57-.22-3.81-.14-2.53-.17-5-.17-7.57s0-5,.17-7.51c0-1.29.14-2.57.22-3.81a129.92,129.92,0,0,1,1.86-14.6c.4-2.08.84-4.16,1.28-6.19A116.88,116.88,0,0,1,233.6,63.35c.45-.71.88-1.46,1.37-2.13,1.94-3.1,4.07-6.1,6.32-9Q256.95,32,276.94,24.92m14.91-2.79v2a12.84,12.84,0,0,1-7.2,1,13.78,13.78,0,0,1-4.21-1.42c-.35-.17-.71-.4-1.06-.57a13.09,13.09,0,0,1,11.05-1.51,9.35,9.35,0,0,1,1.42.49M291.27,17a13.14,13.14,0,0,1-5.89-8.4,13,13,0,0,1,9.6,8l-1.46,1.46A18,18,0,0,1,291.27,17M281,15.27a13.16,13.16,0,0,1,9.46,1.82,16.07,16.07,0,0,1,2.43,2L292.07,21a12.39,12.39,0,0,1-8.32-2.78A13.65,13.65,0,0,1,281,15.27M304,16l-1.85-.75a12.79,12.79,0,0,1,5.7-11.1A13,13,0,0,1,304,16m-6.24-.75L296,16A12.87,12.87,0,0,1,292.1,4.08a13,13,0,0,1,5.7,11.15M301,15h-2a13.07,13.07,0,0,1,1-12.52c2.48,4.21,2.83,8.36,1,12.52m4.07,1.68v0a12.85,12.85,0,0,1,9.51-8,13.26,13.26,0,0,1-5.8,8.4,18.72,18.72,0,0,1-2.3,1.15ZM411.2,128.22c-5.83,3.5-11.63,4-17.47,1.46V126.9c5.84-2.56,11.64-2.07,17.47,1.33m-18.84,5.71,1.06-2.62q9.55-.19,15.52,8c-6.63,1-12.21-.8-16.59-5.35m-3,3.36,2-2c5.92,2.3,9.73,6.76,11.36,13.31-6.59-1.63-11-5.4-13.35-11.32m-2.79,9c.26-2.56.49-5.13.71-7.74l.71-.26c4.6,4.38,6.37,9.9,5.35,16.62a19.3,19.3,0,0,1-6.77-8.62m4.87-25-2-2c2.25-5.92,6.68-9.68,13.26-11.36-1.63,6.59-5.4,11.05-11.27,13.35m-3.94,1.51a8.58,8.58,0,0,1,1.11,1.37,7.08,7.08,0,0,1,1.11,5.66,6.85,6.85,0,0,1-2.22,4c0-1.77.09-3.62.09-5.49s0-3.72-.09-5.52m5.89,2.47-1.06-2.61q6.57-6.83,16.63-5.35c-4,5.4-9.2,8.09-15.57,8m-6.1-7.2c-.22-2.62-.45-5.18-.71-7.69a19.32,19.32,0,0,1,6.77-8.63q1.53,10.08-5.35,16.59Zm-35.91,51.57A89,89,0,0,0,355,161.3v.23c2,6.77,2.56,12.73,1.77,17.91a26.88,26.88,0,0,1-4.3,11.15,35.67,35.67,0,0,1-4,5.09,29.44,29.44,0,0,0-2.08-15.8c-.13-.35-.31-.71-.44-1.1,1.1-1.64,2.16-3.32,3.18-5,.75-1.37,1.55-2.74,2.26-4.16m19.32-23.09a3.92,3.92,0,0,1,.84.8,4.28,4.28,0,0,1,.84,1.28s0,.09,0,.09a2.43,2.43,0,0,1,.26.8,3.22,3.22,0,0,1,.14.57,4.21,4.21,0,0,1,.09,1,3.22,3.22,0,0,1-.09,1,1.34,1.34,0,0,1-.14.45,1.28,1.28,0,0,1-.62.79,1,1,0,0,1-.53.14.84.84,0,0,0,0-.35,3.21,3.21,0,0,0-.45-1.55,4.07,4.07,0,0,0-.45-.44,2.35,2.35,0,0,0-1.9-.8,2.54,2.54,0,0,0-2,.8,2.58,2.58,0,0,0-.84,2v.09a3.82,3.82,0,0,0,.18.84,3.35,3.35,0,0,1,.13.45c.09.13.18.31.31.48a3.81,3.81,0,0,0,3.28,1.77h.84a4,4,0,0,0,1.2-.22,3.21,3.21,0,0,0,.79-.4,5.87,5.87,0,0,0,1.15-.8,1.82,1.82,0,0,0,.62-.71,7,7,0,0,0,.75-1c-.4,2-.8,3.94-1.24,5.84A110.13,110.13,0,0,1,362.16,189a8.76,8.76,0,0,1-.75-6.41,13.59,13.59,0,0,1,.35-1.45,8.76,8.76,0,0,1,.62-1.51,25.27,25.27,0,0,0,1.06-4.6c.09-.94.17-1.86.17-2.88a20.79,20.79,0,0,0-1.85-8.88v0a13.87,13.87,0,0,0-1.42-2.62,20.81,20.81,0,0,1-1.15-3.09,8.64,8.64,0,0,1-.39-1.55,8.91,8.91,0,0,1-.14-1.94,10.45,10.45,0,0,1,.49-3.36,8.26,8.26,0,0,1,.74-1.73,15,15,0,0,1,1-1.37,8.64,8.64,0,0,1,2.07-1.77,6.29,6.29,0,0,1,3.36-.88,7.83,7.83,0,0,1,2.83.53,9.6,9.6,0,0,1,1.59,1M360.3,120c-.09-1-.17-2-.26-3s-.26-2.26-.4-3.41a12,12,0,0,0,4.91,1h.39a12.81,12.81,0,0,0,6.24-1.77,7.9,7.9,0,0,0,1.19-.84,6.46,6.46,0,0,0,.66-.58,15.53,15.53,0,0,0,1.46-1.54,10.61,10.61,0,0,0,.89-1.28,1.37,1.37,0,0,1,.17-.49,10.44,10.44,0,0,0,.35-1.11c.57,3.63,1,7.39,1.24,11.15.09,1.51.18,3,.23,4.47.08,1.86.08,3.76.08,5.66s0,3.81-.08,5.67c0,1.45-.14,3-.23,4.46-.26,3.76-.66,7.48-1.24,11.15a8.19,8.19,0,0,0-.35-1.1,2.47,2.47,0,0,1-.17-.49,16.15,16.15,0,0,0-.89-1.37,11.71,11.71,0,0,0-1.46-1.46c-.22-.17-.44-.39-.62-.53a11.51,11.51,0,0,0-1.19-.88,13,13,0,0,0-6.29-1.77h-.39a13.73,13.73,0,0,0-4.91.88c.14-1.06.26-2.16.4-3.27.09-.8.17-1.51.22-2.3a11.2,11.2,0,0,0,.18-2.43v-.18c.09-1.24.13-2.43.13-3.67v-.57c0-.53,0-1.15,0-1.73v-.79c0-.54,0-1.11,0-1.69v-.62c0-1.24-.08-2.43-.13-3.62v0a8.7,8.7,0,0,0-.14-1.9m-7.78-54.14a27.31,27.31,0,0,1,4.3,11.19c.79,5.18.22,11.15-1.77,18v.17A87.61,87.61,0,0,0,351.42,87c-.71-1.37-1.46-2.74-2.22-4.07q-1.53-2.66-3.18-5c.17-.4.35-.84.48-1.24a30.47,30.47,0,0,0,2-15.74,34,34,0,0,1,4,5m8.89,8a8.9,8.9,0,0,1,.71-6.38A108.72,108.72,0,0,1,374,97c.48,1.94.88,3.89,1.28,5.88a5.38,5.38,0,0,0-.75-1,3.2,3.2,0,0,0-.62-.71,8.71,8.71,0,0,0-1.15-.79,5.48,5.48,0,0,0-.79-.35,3.8,3.8,0,0,0-1.2-.26,1.18,1.18,0,0,0-.4,0h-.44a3.77,3.77,0,0,0-3.28,1.85,1.21,1.21,0,0,0-.31.45,4.32,4.32,0,0,0-.13.45,3.58,3.58,0,0,0-.18.74v.18a2.87,2.87,0,0,0,2.83,2.78,2.38,2.38,0,0,0,1.9-.84,2.8,2.8,0,0,0,.4-.35,2.73,2.73,0,0,0,.49-1.59,1.08,1.08,0,0,0,0-.4,1,1,0,0,1,.53.14,1.79,1.79,0,0,1,.62.79,2.38,2.38,0,0,1,.14.45,3.37,3.37,0,0,1,.09,1,4,4,0,0,1-.09,1,2.62,2.62,0,0,1-.14.57,2.5,2.5,0,0,1-.26.8s0,0,0,.09a6.38,6.38,0,0,1-.84,1.37c-.26.22-.54.48-.84.7a6.91,6.91,0,0,1-1.68,1,6.72,6.72,0,0,1-6.14-.35,9.26,9.26,0,0,1-2-1.77,16.34,16.34,0,0,1-1-1.37,8.11,8.11,0,0,1-.74-1.68,10.58,10.58,0,0,1-.49-3.41,9.12,9.12,0,0,1,.14-1.94,9.72,9.72,0,0,1,.39-1.55,22.55,22.55,0,0,1,1.15-3.1,12.21,12.21,0,0,0,1.42-2.56,21.5,21.5,0,0,0,1.85-9c0-1-.08-2-.17-2.88a23.79,23.79,0,0,0-1.06-4.55,10.55,10.55,0,0,1-.62-1.51c-.14-.53-.26-1-.35-1.5m-48.3-18.09c.45.14,1,.31,1.46.45q14.52,4.77,26,19.37c.26.35.53.71.79,1,1.11,1.51,2.17,3,3.1,4.47.71,1,1.37,2.13,2,3.23.75,1.33,1.51,2.65,2.22,4a82.36,82.36,0,0,1,4.73,11.63,89.59,89.59,0,0,1,2.52,9.86,10.53,10.53,0,0,1,.27,1.73c.22,1,.35,2.13.53,3.19.09.79.17,1.63.31,2.47,0,.54.09,1.15.14,1.77a1.08,1.08,0,0,0,0,.35c.08.66.08,1.42.17,2.13.09,1.63.14,3.27.17,5v3.72c0,1.77-.08,3.53-.22,5.26,0,.71-.09,1.51-.17,2.26v.08c0,.54-.09,1.11-.14,1.73-.14.93-.22,1.82-.4,2.79s-.26,1.85-.44,2.79c0,.53-.14,1.06-.23,1.59-.71,3.41-1.54,6.77-2.56,10a82.23,82.23,0,0,1-4.78,11.68c-.75,1.37-1.46,2.7-2.21,4-.63,1.1-1.34,2.16-2,3.27-.94,1.42-2,2.87-3,4.29-.26.35-.53.66-.79,1-7.61,9.77-16.28,16.19-26,19.33-.54.17-1,.31-1.51.45a48.29,48.29,0,0,1-26.18,0c-.49-.14-1-.27-1.51-.45-9.73-3.14-18.35-9.6-26-19.33a8,8,0,0,1-.75-1.06c-1.11-1.45-2.17-2.92-3.1-4.41-.71-1.06-1.37-2.17-2-3.28a41.25,41.25,0,0,1-2.17-3.93,79.84,79.84,0,0,1-4.73-11.59A89.07,89.07,0,0,1,244,146.8c-.09-.57-.22-1.19-.31-1.76-.18-1.06-.35-2.13-.49-3.23-.13-.75-.17-1.54-.31-2.39,0-.57-.09-1.24-.13-1.81,0-.18,0-.31-.09-.45,0-.66,0-1.33-.09-1.94-.14-1.68-.17-3.36-.22-5v-3.81c0-1.82.08-3.58.22-5.3,0-.71.09-1.42.18-2.13v-.09c0-.57.08-1.14.13-1.76.14-.94.22-1.86.4-2.79s.22-1.86.4-2.79c.09-.53.22-1.11.31-1.63a79.67,79.67,0,0,1,7.29-21.67c.71-1.37,1.46-2.74,2.22-4.07.62-1.06,1.28-2.13,2-3.22,1-1.46,1.94-2.88,3.05-4.33.22-.31.48-.66.75-1,7.65-9.73,16.27-16.22,26-19.37.54-.18,1-.31,1.51-.45a48.46,48.46,0,0,1,26.22,0m.8-9.73a9.22,9.22,0,0,1,.48,6.86,52.24,52.24,0,0,0-28.88,0,8.85,8.85,0,0,1,.53-6.86,10.48,10.48,0,0,1,.71-1.11,4,4,0,0,1,.45-.44,5.3,5.3,0,0,1,1.46-1.2,21.53,21.53,0,0,0,6.8,2.43,22.21,22.21,0,0,0,15.8-2.43,6.4,6.4,0,0,1,1.5,1.2l.45.44a10.49,10.49,0,0,1,.71,1.11m15.92-.35a23.18,23.18,0,0,1,8.53,6.24,13.58,13.58,0,0,1,2,3.27,26.32,26.32,0,0,1,2,17.82C334.7,63.26,325.85,56.71,316,53.44a10.38,10.38,0,0,0-.27-8.57,9.13,9.13,0,0,0-.53-.89,27,27,0,0,1,14.64,1.73M319,15.23a15.56,15.56,0,0,1-2.83,3A12.66,12.66,0,0,1,307.9,21l-.75-1.9a14.56,14.56,0,0,1,2.43-2A13.13,13.13,0,0,1,319,15.23m3.67,12.13c.13-.8.26-1.64.31-2.43,13.23,4.73,25.11,13.84,35.55,27.29a101.26,101.26,0,0,1,6.37,9c.45.66.89,1.42,1.37,2.13a116,116,0,0,1,13.27,32.73c.45,2.12.88,4.2,1.33,6.37.84,4.69,1.46,9.51,1.86,14.51.08,1.24.13,2.52.22,3.81.09,2.47.14,5,.14,7.51s0,5-.14,7.57c-.09,1.24-.14,2.56-.22,3.81q-.6,7.43-1.86,14.46c-.45,2.13-.88,4.24-1.33,6.32a113.69,113.69,0,0,1-13.27,32.73c-.44.71-.88,1.46-1.33,2.22-2,3-4.11,6.06-6.41,9q-15.65,20.16-35.51,27.29c-.09-.8-.18-1.63-.31-2.39q19.24-7.17,34.49-27c2.08-2.7,4-5.49,5.84-8.31.45-.75.88-1.46,1.33-2.17a112.29,112.29,0,0,0,12.83-31.66c.88-3.89,1.63-7.83,2.21-11.85.32-2.13.54-4.29.75-6.46s.26-4.11.4-6.19c.09-2.43.18-4.87.18-7.35s-.09-4.9-.18-7.34c-.09-2.13-.22-4.16-.4-6.19-.22-2.21-.44-4.33-.75-6.41-.57-4.11-1.33-8.09-2.25-11.94a111.37,111.37,0,0,0-12.78-31.62C364,64,363.53,63.3,363,62.6c-1.82-2.83-3.71-5.61-5.8-8.31Q342,34.38,322.71,27.35m-5.27,1.85A15.49,15.49,0,0,1,319,31a13,13,0,0,1-11.85-3.81l.75-1.9a12.64,12.64,0,0,1,9.55,3.89m3.19-6.1c-.4.22-.75.45-1.15.62a13.56,13.56,0,0,1-4.15,1.42,12.88,12.88,0,0,1-7.21-1l0-2a8.29,8.29,0,0,1,1.42-.54,13.11,13.11,0,0,1,11.05,1.46m-4.07,16.1a20.71,20.71,0,0,0,5.26-8.57C334,35.22,345,43.76,354.64,56.36c2.17,2.82,4.21,5.74,6.1,8.79a16.23,16.23,0,0,0-2.3,4.65c-.66-1.42-1.42-2.74-2.22-4.11a38.75,38.75,0,0,0-8.93-9.77,38.39,38.39,0,0,0-1.6-4.11,19.15,19.15,0,0,0-2.3-3.67,27.11,27.11,0,0,0-5.52-4.82,23.11,23.11,0,0,0-4.11-2.25,30.4,30.4,0,0,0-17.2-1.86m6.37-19.1a23.4,23.4,0,0,0-3.76-9.82A22.42,22.42,0,0,0,304.49.46,22.67,22.67,0,0,0,287.11,4a22.43,22.43,0,0,0-9.77,14.63c-.09.49-.17,1-.22,1.46Q255,27.28,237.8,49.42a107.65,107.65,0,0,0-6.94,10c-.57.84-1.06,1.68-1.54,2.52a106.25,106.25,0,0,0-5.71,10.88c-.31.66-.62,1.33-.88,2A117.06,117.06,0,0,0,215.78,96a30.67,30.67,0,0,0-16.15,5.44,32.33,32.33,0,0,0-8.88,44.71,31.05,31.05,0,0,0,20.52,13.72,33.54,33.54,0,0,0,4.51.57,116.38,116.38,0,0,0,6.94,21.27c.26.66.57,1.33.88,2a110.33,110.33,0,0,0,5.67,10.88c.53.84,1,1.68,1.54,2.47a104.75,104.75,0,0,0,7,10Q255,229.24,277,236.45a22.38,22.38,0,0,0,3.72,9.77A22.65,22.65,0,0,0,295.47,256a23,23,0,0,0,27.16-18.14,14,14,0,0,0,.22-1.45c14.73-4.82,27.78-14.6,39.28-29.37a104.75,104.75,0,0,0,7-10c.54-.79,1-1.63,1.51-2.47a113,113,0,0,0,5.75-10.88c.26-.71.57-1.37.88-2a119.41,119.41,0,0,0,6.9-21.23,32.06,32.06,0,0,0,29.8-26,32,32,0,0,0-25.3-37.86,33.16,33.16,0,0,0-4.47-.62,124.29,124.29,0,0,0-6.94-21.27c-.31-.71-.62-1.37-.93-2a118.18,118.18,0,0,0-5.7-10.88c-.54-.84-1-1.68-1.55-2.52a115.16,115.16,0,0,0-6.94-10q-17.25-22-39.18-29.32" transform="translate(-6.48 0)"/><path d="M337.79,78.47a27.12,27.12,0,0,1,1.68,2.31c1,1.33,1.86,2.7,2.74,4.11.31.49.57,1,.88,1.42.71,1.24,1.42,2.57,2,3.85s1.29,2.7,1.91,4.07c.48,1.14,1,2.39,1.45,3.58a80.33,80.33,0,0,1,4.25,17.39s0,.13,0,.22a12.63,12.63,0,0,1,.13,1.42,77,77,0,0,1,.66,9.24c0,.71,0,1.46,0,2.17v0c0,.84,0,1.73,0,2.56-.08,3.14-.31,6.24-.66,9.25,0,.4-.08.75-.13,1.06s-.09.35-.09.57A78.37,78.37,0,0,1,348.41,159c-.49,1.33-1.06,2.65-1.6,3.93s-1.1,2.39-1.72,3.58-1.37,2.62-2.13,3.9c-.26.45-.54.88-.84,1.37-.84,1.42-1.76,2.83-2.7,4.16-.53.7-1.1,1.41-1.63,2.16-7.52,9.82-16.23,16.14-26.05,18.84a14.44,14.44,0,0,1-1.5.45A43.54,43.54,0,0,1,300,198.54a44,44,0,0,1-10.35-1.19c-.53-.17-1-.26-1.51-.45-9.81-2.7-18.48-9-26-18.84-.58-.79-1.11-1.5-1.64-2.3-1-1.33-1.9-2.74-2.73-4.11-.31-.48-.63-.93-.89-1.42-.71-1.24-1.37-2.52-2-3.84s-1.33-2.7-1.94-4.11c-.49-1.15-1-2.3-1.37-3.5a80.73,80.73,0,0,1-4.33-17.42.22.22,0,0,0,0-.14c0-.48-.09-1-.17-1.5-.31-3-.54-6.1-.58-9.29,0-.66,0-1.41,0-2.12v-.09c0-.88,0-1.68,0-2.56a81,81,0,0,1,.66-9.25,8.42,8.42,0,0,0,.09-1.11c0-.17,0-.35.09-.48a79.18,79.18,0,0,1,4.33-17.25c.49-1.37,1-2.65,1.59-3.94s1.11-2.47,1.73-3.62,1.33-2.56,2.08-3.81c.26-.53.57-1,.84-1.45.89-1.42,1.77-2.74,2.74-4.11.54-.75,1.06-1.46,1.6-2.17q11.34-14.78,26-18.88c.54-.13,1-.26,1.55-.35A43.82,43.82,0,0,1,300,58a44.42,44.42,0,0,1,10.31,1.24c.53.09,1,.23,1.5.35,9.77,2.74,18.48,9,26,18.88M313.56,57.69c-.49-.17-1-.31-1.46-.45a48.31,48.31,0,0,0-24.23,0c-.53.14-1,.27-1.45.45-9.78,3-18.54,9.42-26.1,19.33-.35.44-.66.88-1,1.33-1,1.37-2,2.79-2.92,4.2-.48.8-1,1.6-1.45,2.43a40.89,40.89,0,0,0-2.13,3.93,73.58,73.58,0,0,0-5.53,14.2A52.89,52.89,0,0,0,245.9,109c-.23,1-.4,1.9-.58,2.87-.08.66-.22,1.37-.31,2.08s-.22,1.68-.35,2.57c-.26,2.61-.48,5.21-.57,8,0,.84-.09,1.68-.09,2.56v2.48c0,.71,0,1.46,0,2.22.09,2.7.31,5.35.57,7.91.09.84.27,1.73.35,2.61s.27,1.68.4,2.53.31,1.85.49,2.79c.4,2,.88,4,1.45,5.88a69.38,69.38,0,0,0,5.44,14.07c.71,1.33,1.42,2.65,2.13,3.93.45.79,1,1.59,1.51,2.43.88,1.41,1.9,2.87,2.92,4.29.35.45.66.88,1,1.28,7.56,10,16.23,16.4,26.05,19.46l1.45.4a48,48,0,0,0,24.23,0c.49-.13,1-.26,1.42-.4,9.82-3.05,18.53-9.5,26.14-19.46.31-.4.62-.8,1-1.24q1.46-2.06,2.92-4.25c.49-.74,1-1.59,1.46-2.43.75-1.29,1.46-2.62,2.13-3.9a75.14,75.14,0,0,0,5.52-14.24c.54-1.9,1-3.84,1.42-5.79.22-1,.4-2,.57-3,.09-.66.18-1.33.31-2,.09-.84.23-1.68.32-2.56.31-2.61.48-5.26.62-8,0-.88,0-1.72.08-2.61v-2.34c0-.79,0-1.54,0-2.3-.09-2.7-.32-5.35-.63-7.92-.13-.93-.22-1.76-.31-2.61s-.26-1.68-.35-2.47c-.22-1-.35-2-.57-2.83-.4-2-.88-4-1.42-5.89A76.91,76.91,0,0,0,347.16,89c-.66-1.37-1.41-2.65-2.12-3.93-.49-.8-1-1.63-1.51-2.43-.88-1.46-1.9-2.88-2.92-4.29a14.11,14.11,0,0,0-1-1.37c-7.57-9.86-16.28-16.32-26.05-19.33" transform="translate(-6.48 0)"/><path d="M343.85,96.28c-8.64-19.87-25-33.33-43.89-33.33-27.81,0-50.37,29.25-50.37,65.32s22.55,65.33,50.37,65.33c18.85,0,35.25-13.45,43.89-33.33H330.14c-7.15,11.33-18,18.57-30.18,18.57-21.53,0-39-22.64-39-50.57s17.46-50.56,39-50.56c12.17,0,23,7.24,30.18,18.57Z" transform="translate(-6.48 0)"/><path d="M451.67,381.83c-.11,0-.18-.07-.11-.25l3.19-9.79q.27-.8.55,0l3.44,9.79c0,.15,0,.25-.15.25Zm-5.08,8c-.64,1.82-1.37,3.2-3,3.42-.29,0-.8.06-1,.06s-.33.07-.33.22.22.29.68.29c1.71,0,3.7-.11,4.1-.11s2,.11,2.82.11c.33,0,.55-.07.55-.29s-.11-.22-.36-.22h-.36c-.61,0-1.37-.32-1.37-1a7.67,7.67,0,0,1,.51-2.43l2.17-6.41a.38.38,0,0,1,.36-.29h7.79a.32.32,0,0,1,.33.22l3.37,8.92c.21.58,0,.91-.22,1s-.25.1-.25.25.4.22,1.08.25c2.51.07,5.15.07,5.7.07s.72-.07.72-.29-.14-.22-.35-.22a4.93,4.93,0,0,1-1.45-.21c-.76-.22-1.81-.8-3.12-4-2.21-5.5-7.9-20.47-8.45-21.84-.43-1.13-.57-1.31-.79-1.31s-.36.22-.8,1.42Zm-14,4.5a21,21,0,0,0,6.53-.84c.64-.29.72-.36.94-1a37.6,37.6,0,0,0,.8-4.64c0-.29-.07-.54-.25-.54s-.29.15-.36.54a7,7,0,0,1-1.34,3c-1.45,1.49-3.6,1.82-6.31,1.82a13.1,13.1,0,0,1-13.09-13.27c0-3.7.62-6.92,3.27-9.46,1.26-1.24,3.52-2.65,8.34-2.65,3.19,0,6,1,7.25,2.07a5,5,0,0,1,1.52,3.7c0,.51,0,.76.29.76s.29-.22.33-.76,0-2.54.11-3.73.18-1.74.18-2-.07-.36-.47-.4a29.49,29.49,0,0,1-3.7-.54,31,31,0,0,0-5.26-.44c-5.58,0-8.87,1.7-11.05,3.88a14.46,14.46,0,0,0-4.05,9.89,13.87,13.87,0,0,0,4.38,10.73c2.86,2.57,6.53,3.91,12,3.91m-34.32-11c0,3.48,0,6.34-.18,7.87-.15,1-.33,1.84-1.05,2a5,5,0,0,1-1.08.15c-.22,0-.29.11-.29.22s.18.29.57.29c.54,0,1.38-.07,2.11-.07s1.37,0,1.44,0c.55,0,1.42,0,2.82.11s3.42.11,6.13.11c1.41,0,1.7,0,2-.94a35.08,35.08,0,0,0,.47-3.52c0-.25,0-.54-.22-.54s-.25.15-.33.54c-.25,1.49-.69,2.22-1.63,2.62a10.39,10.39,0,0,1-3.48.4c-3.56,0-4.1-.47-4.21-3,0-.75,0-5,0-6.19v-3.19a.23.23,0,0,1,.25-.25c.62,0,4.21.07,5.19.18,1.42.15,1.74.75,1.89,1.26a3.71,3.71,0,0,1,.15,1.2c0,.18.07.33.25.33s.25-.4.25-.69.07-1.59.15-2.32c.11-1.19.29-1.81.29-2s-.07-.29-.18-.29-.29.18-.54.47-.84.44-1.71.51-5.3.07-5.77.07c-.17,0-.21-.11-.21-.36v-10c0-.25.07-.36.21-.36.4,0,4.36,0,5,.11,2,.22,2.33.65,2.58,1.24a4.08,4.08,0,0,1,.21,1.3c0,.29.07.47.29.47s.22-.22.25-.4c.07-.43.15-2,.18-2.39.11-1,.29-1.44.29-1.7s0-.33-.15-.33-.33.15-.51.18a9.54,9.54,0,0,1-1.55.18c-.84,0-8,0-8.3,0l-1.48-.07c-.8,0-1.78,0-2.61,0-.4,0-.58.07-.58.29s.15.21.29.21a6.69,6.69,0,0,1,1.23.11c1.2.25,1.49.84,1.56,2.07s.07,2.17.07,7.83Zm-21.46-3.81c0-.18.07-.25.22-.25.55,0,2.36,0,2.83.07a6,6,0,0,1,3,1.05,8.68,8.68,0,0,1,3.52,7.25,4.84,4.84,0,0,1-5.11,5.15,8.5,8.5,0,0,1-3.19-.54c-1.13-.54-1.13-1.05-1.24-2.83,0-.54,0-5,0-7.83Zm0-11.49c0-.22.11-.33.44-.4a8.12,8.12,0,0,1,1.74-.18c3.55,0,4.9,3.22,4.9,6.24a5.61,5.61,0,0,1-1.31,3.66c-.76.87-1.27.94-3.3.94a12.84,12.84,0,0,1-2.22-.15c-.18-.07-.25-.15-.25-.4ZM374,383.31c0,3.48,0,6.34-.18,7.87-.15,1-.33,1.84-1.05,2a5,5,0,0,1-1.09.15c-.22,0-.29.11-.29.22s.18.29.58.29,1.38-.07,2.11-.07,1.37,0,1.44,0,1.15,0,2.21.11,2.22.11,2.62.11c6.19,0,9.24-4,9.24-7.9,0-4.24-3.59-6.81-6.27-7.64,1.7-1.78,3.41-3.56,3.41-6.53,0-1.81-1.31-5.43-7.25-5.43-1.67,0-3.08.1-4,.1-.18,0-2.46-.1-4.1-.1-.4,0-.57.07-.57.29s.14.22.28.22a6.08,6.08,0,0,1,1.24.1c1.2.25,1.49.84,1.56,2.07s.07,2.17.07,7.83Zm-12.91-6.38c0-5.66,0-6.68.07-7.83s.36-1.89,1.34-2.07a5.4,5.4,0,0,1,.91-.11c.15,0,.29-.07.29-.21s-.18-.29-.58-.29c-1.08,0-3.37.1-3.55.1s-2.46-.1-3.65-.1c-.4,0-.58.07-.58.29s.15.21.29.21a4.65,4.65,0,0,1,1.12.15c.8.18,1.16.8,1.24,2s.07,2.17.07,7.83v6.38c0,3.48,0,6.34-.18,7.87-.15,1.05-.33,1.85-1.05,2a5.42,5.42,0,0,1-1.08.14c-.22,0-.29.11-.29.22s.18.29.58.29c1.08,0,3.37-.11,3.54-.11s2.47.11,4.46.11c.4,0,.58-.11.58-.29s-.07-.22-.29-.22a15.55,15.55,0,0,1-1.63-.14c-1.08-.15-1.3-.94-1.41-2-.18-1.53-.18-4.39-.18-7.87Zm-27.48-8.7a.44.44,0,0,1,.29-.44,11,11,0,0,1,2.43-.22c3.88,0,6.27,2.72,6.27,7.25,0,2.76-.94,4.71-2.21,5.59a4.7,4.7,0,0,1-2.72.69,10,10,0,0,1-3.81-.58.47.47,0,0,1-.25-.44Zm-2.89,15.08c0,3.48,0,6.34-.18,7.87-.15,1.05-.33,1.85-1.05,2a5.59,5.59,0,0,1-1.09.14c-.22,0-.29.11-.29.22s.18.29.58.29c1.09,0,3.37-.11,3.41-.11s2.46.11,4.46.11c.4,0,.58-.11.58-.29s-.07-.22-.29-.22a15.55,15.55,0,0,1-1.63-.14c-1.09-.15-1.31-.94-1.42-2-.18-1.53-.18-4.39-.18-7.87v-.87c0-.18.07-.29.25-.29l4.46.07a.59.59,0,0,1,.47.22c.73.94,2.43,3.37,4,5.37,2.06,2.72,3.33,4.5,4.9,5.33a7.42,7.42,0,0,0,3.87.68h2.58c.65,0,.86-.07.86-.29s-.14-.22-.32-.22a9.49,9.49,0,0,1-1.42-.1,7.5,7.5,0,0,1-4.42-2.62c-2.1-2.24-4.56-5.48-7.53-9.27,3.26-3,4.38-5.7,4.38-8.37a6.33,6.33,0,0,0-2.5-4.93c-1.92-1.37-4.35-1.59-6.63-1.59-1.13,0-3.88.1-4.28.1-.18,0-2.46-.1-4.1-.1-.39,0-.57.07-.57.29s.15.21.28.21a6.79,6.79,0,0,1,1.24.11c1.2.25,1.49.84,1.56,2.07s.07,2.17.07,7.83ZM313.37,368l4.56.07c3.48.07,4.34.91,4.45,2l0,.4c0,.51.11.62.3.62s.25-.15.25-.47.11-2.89.11-4c0-.22,0-.44-.18-.44s-.48.11-1,.18a14.48,14.48,0,0,1-2.57.18H305.73c-.44,0-1.82-.07-2.87-.18a6.8,6.8,0,0,1-1.59-.44c-.15,0-.29.47-.36.69s-.8,3.4-.8,3.76.07.33.18.33.25-.07.36-.36a6.43,6.43,0,0,1,.62-1.12c.58-.87,1.44-1.13,3.7-1.16l5.36-.07v15.33c0,3.48,0,6.34-.18,7.87-.15,1.05-.32,1.85-1,2a5.59,5.59,0,0,1-1.09.14c-.22,0-.29.11-.29.22s.18.29.58.29c1.09,0,3.37-.11,3.55-.11s2.46.11,4.45.11c.4,0,.58-.11.58-.29s-.07-.22-.29-.22a15.55,15.55,0,0,1-1.63-.14c-1.08-.15-1.3-.94-1.41-2-.18-1.53-.18-4.39-.18-7.87Zm-37.43,10.88c-.58,0-.73,0-.8.28l-.54,2c-.07.33,0,.55.18.55s.8-.37,1.49-.55c1.23-.32,7.64-1.19,8.62-1.34.58-.11,1.27-.18,1.27-.62s-.47-.35-1.09-.35Zm-26.39-1.93c0-5.66,0-6.68.07-7.83S250,367.22,251,367a8.53,8.53,0,0,1,1.2-.11c.15,0,.29-.07.29-.21s-.18-.29-.58-.29c-1.09,0-3.73.1-3.91.1s-2.46-.1-4.09-.1c-.4,0-.58.07-.58.29s.15.21.29.21a6.79,6.79,0,0,1,1.24.11c1.19.25,1.48.84,1.55,2.07s.07,2.17.07,7.83v6.38c0,3.48,0,6.34-.18,7.87-.15,1-.33,1.84-1.05,2a4.84,4.84,0,0,1-1.08.15c-.22,0-.29.11-.29.22s.18.29.58.29,1.34,0,2.06-.07,1.34,0,1.48,0c1.05,0,2.18,0,3.7.11s3.41.11,6,.11c1.93,0,2-.15,2.29-1a23,23,0,0,0,.54-3.62c0-.4,0-.54-.22-.54s-.29.18-.33.47a5.08,5.08,0,0,1-.94,2.17c-.87,1.05-2.46,1.09-4.39,1.09-2.82,0-3.77-.25-4.34-.84s-.8-3-.8-8.3Zm-25.15,6.38c0,3.48,0,6.34-.18,7.87-.15,1-.33,1.84-1,2a5,5,0,0,1-1.09.15c-.22,0-.29.11-.29.22s.18.29.58.29,1.37-.07,2.1-.07,1.38,0,1.45,0c.54,0,1.41,0,2.82.11s3.41.11,6.12.11c1.41,0,1.7,0,2-.94a35.09,35.09,0,0,0,.47-3.52c0-.25,0-.54-.22-.54s-.25.15-.33.54c-.25,1.49-.68,2.22-1.63,2.62a10.34,10.34,0,0,1-3.48.4c-3.55,0-4.1-.47-4.21-3,0-.75,0-5,0-6.19v-3.19a.23.23,0,0,1,.25-.25c.62,0,4.21.07,5.19.18,1.42.15,1.73.75,1.88,1.26a3.71,3.71,0,0,1,.15,1.2c0,.18.07.33.25.33s.25-.4.25-.69.07-1.59.15-2.32c.11-1.19.29-1.81.29-2s-.07-.29-.18-.29-.29.18-.54.47-.83.44-1.7.51-5.3.07-5.77.07c-.18,0-.22-.11-.22-.36v-10c0-.25.07-.36.22-.36.4,0,4.35,0,5,.11,2,.22,2.32.65,2.57,1.24a3.89,3.89,0,0,1,.22,1.3c0,.29.07.47.29.47s.22-.22.25-.4c.07-.43.15-2,.18-2.39.11-1,.28-1.44.28-1.7s0-.33-.15-.33-.32.15-.5.18a9.68,9.68,0,0,1-1.55.18c-.84,0-8.06,0-8.3,0l-1.49-.07c-.79,0-1.77,0-2.61,0-.4,0-.58.07-.58.29s.15.21.29.21a6.79,6.79,0,0,1,1.24.11c1.19.25,1.48.84,1.55,2.07s.07,2.17.07,7.83ZM207.08,368l4.56.07c3.47.07,4.34.91,4.45,2l0,.4c0,.51.11.62.29.62s.25-.15.25-.47.12-2.89.12-4c0-.22,0-.44-.19-.44s-.47.11-1,.18a14.41,14.41,0,0,1-2.57.18H199.43c-.44,0-1.81-.07-2.86-.18a6.78,6.78,0,0,1-1.6-.44c-.14,0-.28.47-.35.69s-.8,3.4-.8,3.76.07.33.18.33.25-.07.36-.36a6.83,6.83,0,0,1,.61-1.12c.58-.87,1.45-1.13,3.7-1.16L204,368v15.33c0,3.48,0,6.34-.18,7.87-.15,1.05-.33,1.85-1.05,2a5.5,5.5,0,0,1-1.08.14c-.22,0-.29.11-.29.22s.18.29.58.29c1.08,0,3.36-.11,3.54-.11s2.46.11,4.45.11c.4,0,.58-.11.58-.29s-.07-.22-.29-.22a15.4,15.4,0,0,1-1.63-.14c-1.09-.15-1.31-.94-1.41-2-.18-1.53-.18-4.39-.18-7.87Zm-40.59,11.09c0-7.94,4.53-11.93,10.58-11.93,5.73,0,11,4.68,11,13.38,0,10.55-6.74,12.43-10,12.43-6.52,0-11.6-5.44-11.6-13.89m-3.44,1c0,6.52,4.13,14.24,14.06,14.24,8.74,0,14.46-6.7,14.46-14.82,0-8.45-6.09-13.59-14.24-13.59-10,0-14.28,8.29-14.28,14.17m-7.87-3.15c0-5.66,0-6.67.07-7.83s.36-1.89,1.34-2.07a5.22,5.22,0,0,1,.9-.11c.15,0,.29-.07.29-.21s-.18-.29-.58-.29c-1.08,0-3.36.1-3.54.1s-2.46-.1-4.1-.1c-.4,0-.58.07-.58.29s.15.21.29.21a6.79,6.79,0,0,1,1.24.11c1.19.25,1.48.84,1.55,2.07s.07,2.17.07,7.83v.76a.19.19,0,0,1-.22.22H136.55a.19.19,0,0,1-.22-.22v-.76c0-5.66,0-6.67.07-7.83s.36-1.89,1.34-2.07a5.4,5.4,0,0,1,.91-.11c.15,0,.29-.07.29-.21s-.18-.29-.58-.29c-1.09,0-3.37.1-3.55.1s-2.46-.1-4.1-.1c-.4,0-.58.07-.58.29s.15.21.29.21a6.79,6.79,0,0,1,1.24.11c1.2.25,1.49.84,1.56,2.07s.07,2.17.07,7.83v6.38c0,3.48,0,6.34-.18,7.87-.15,1.05-.33,1.85-1.05,2a5.59,5.59,0,0,1-1.09.14c-.22,0-.29.11-.29.22s.18.29.58.29c1.09,0,3.37-.11,3.55-.11s2.46.11,4.46.11c.39,0,.57-.11.57-.29s-.07-.22-.29-.22a15.59,15.59,0,0,1-1.63-.14c-1.09-.15-1.31-.94-1.42-2-.18-1.53-.18-4.39-.18-7.87v-3.81a.19.19,0,0,1,.22-.22h15.37a.21.21,0,0,1,.22.22v3.81c0,3.48,0,6.34-.18,7.87-.15,1.05-.33,1.85-1,2a5.59,5.59,0,0,1-1.09.14c-.22,0-.29.11-.29.22s.18.29.58.29c1.09,0,3.37-.11,3.55-.11s2.46.11,4.45.11c.4,0,.58-.11.58-.29s-.07-.22-.29-.22a15.21,15.21,0,0,1-1.63-.14c-1.09-.15-1.31-.94-1.42-2-.18-1.53-.18-4.39-.18-7.87Z" transform="translate(-6.48 0)"/><path d="M548.85,299.42c2.11,2.37,9.53,10.66,17.16,18.89,7,7.5,16.43,17.18,17.16,17.84,3.49,3.49,4.28,4.21,4.81,4.21s.59-.33.59-4.67l.14-38.58c0-3.94.26-5.4,2.43-5.85a5.72,5.72,0,0,1,1.58-.2c.45,0,.72-.2.72-.45s-.45-.46-1.18-.46c-2.7,0-4.88.19-5.6.19s-3.89-.19-6.84-.19c-.79,0-1.32.06-1.32.46s.06.45.53.45a17.37,17.37,0,0,1,3.22.33c2,.53,2.5,2,2.57,6.25l.72,33.44c-2.1-2.18-9.26-10.21-15.78-17.19-10.12-10.85-19.91-21.45-20.9-22.56-.66-.66-1.79-2.11-2.32-2.11s-.73.73-.73,3.29l-.06,37.71c0,6-.33,7.9-2,8.37a9.53,9.53,0,0,1-2.7.39c-.34,0-.53.13-.53.39,0,.45.39.53,1,.53,3,0,5.74-.19,6.33-.19s3.22.19,7,.19c.79,0,1.18-.14,1.18-.53s-.2-.39-.53-.39a14.51,14.51,0,0,1-3.29-.39c-1.77-.53-2.43-2.24-2.56-7.64Zm-43.26,18.7c-.2,0-.33-.14-.2-.46l5.8-17.77q.49-1.49,1,0l6.26,17.77c.06.26.06.46-.26.46Zm-9.22,14.54c-1.18,3.3-2.5,5.8-5.52,6.19-.53.06-1.44.13-1.91.13s-.59.13-.59.39.39.53,1.24.53c3.1,0,6.71-.19,7.44-.19s3.55.19,5.13.19c.59,0,1-.14,1-.53s-.2-.39-.66-.39h-.65c-1.12,0-2.5-.59-2.5-1.91a13.92,13.92,0,0,1,.92-4.41l4-11.65a.69.69,0,0,1,.65-.53H519a.57.57,0,0,1,.59.39l6.12,16.2c.39,1.05,0,1.64-.4,1.78s-.45.19-.45.45.72.39,2,.45c4.54.14,9.35.14,10.33.14.73,0,1.32-.14,1.32-.53s-.26-.39-.65-.39a8.54,8.54,0,0,1-2.63-.39c-1.38-.4-3.29-1.45-5.66-7.31-4-10-14.34-37.19-15.33-39.68-.79-2-1.05-2.37-1.44-2.37s-.66.39-1.45,2.56Zm-23-39.69,8.28.13c6.3.14,7.88,1.65,8.08,3.62l.06.73c.06.92.2,1.12.54,1.12s.46-.26.46-.85.2-5.26.2-7.23c0-.4,0-.79-.34-.79s-.86.19-1.84.33a26.14,26.14,0,0,1-4.67.33H459.45c-.79,0-3.3-.13-5.2-.33a12.54,12.54,0,0,1-2.9-.79c-.26,0-.53.85-.65,1.25s-1.45,6.18-1.45,6.83c0,.4.14.6.34.6s.45-.14.65-.66a12.36,12.36,0,0,1,1.12-2c1.05-1.58,2.63-2,6.71-2.11l9.75-.13v27.85c0,6.31,0,11.52-.33,14.28-.26,1.92-.6,3.36-1.92,3.62a9.78,9.78,0,0,1-2,.26c-.39,0-.53.2-.53.39,0,.39.33.53,1.05.53,2,0,6.12-.19,6.45-.19s4.47.19,8.08.19c.72,0,1.05-.2,1.05-.53s-.14-.39-.53-.39a27.42,27.42,0,0,1-3-.26c-2-.26-2.37-1.71-2.56-3.62-.33-2.76-.33-8-.33-14.28Zm-37.45,16.26c0-10.26,0-12.11.13-14.22.14-2.31.66-3.42,2.43-3.75a9.43,9.43,0,0,1,1.64-.2c.26,0,.53-.14.53-.39s-.33-.53-1.05-.53c-2,0-6.11.19-6.44.19s-4.48-.19-6.65-.19c-.72,0-1.05.14-1.05.53s.26.39.53.39a8.54,8.54,0,0,1,2,.26c1.44.33,2.11,1.44,2.23,3.69s.14,4,.14,14.22v11.59c0,6.31,0,11.52-.33,14.28-.26,1.92-.6,3.36-1.92,3.62a9.79,9.79,0,0,1-2,.26c-.39,0-.53.2-.53.39,0,.39.33.53,1.05.53,2,0,6.11-.19,6.45-.19s4.47.19,8.09.19c.72,0,1-.2,1-.53s-.13-.39-.53-.39a27.61,27.61,0,0,1-3-.26c-2-.26-2.36-1.71-2.56-3.62-.33-2.76-.33-8-.33-14.28Zm-39,0c0-10.26,0-12.11.13-14.22.14-2.31.66-3.42,2.57-3.75a14.8,14.8,0,0,1,2.17-.2c.26,0,.53-.14.53-.39s-.33-.53-1.05-.53c-2,0-6.78.19-7.1.19s-4.47-.19-7.43-.19c-.73,0-1.05.14-1.05.53s.26.39.53.39a11.89,11.89,0,0,1,2.23.2c2.17.45,2.7,1.51,2.83,3.75s.13,4,.13,14.22v11.59c0,6.31,0,11.51-.33,14.28-.26,1.91-.59,3.35-1.91,3.62a9.28,9.28,0,0,1-2,.27c-.39,0-.53.2-.53.39,0,.39.34.53,1.05.53,1,0,2.43-.07,3.75-.14s2.43-.06,2.7-.06c1.91,0,3.94.06,6.71.2s6.19.19,10.92.19c3.5,0,3.69-.26,4.15-1.77a41.94,41.94,0,0,0,1-6.58c0-.73-.07-1-.4-1s-.53.33-.59.85a9.21,9.21,0,0,1-1.71,4c-1.58,1.91-4.48,2-8,2-5.13,0-6.85-.46-7.9-1.52s-1.44-5.4-1.44-15.08Zm-65,3.89c0-14.41,8.23-21.66,19.22-21.66,10.4,0,20,8.49,20,24.3,0,19.16-12.24,22.58-18.17,22.58-11.85,0-21.06-9.88-21.06-25.21M325.64,315c0,11.84,7.49,25.86,25.53,25.86,15.87,0,26.26-12.17,26.26-26.91,0-15.34-11.05-24.68-25.86-24.68-18.18,0-25.93,15.07-25.93,25.73m-34.75,5.85c0,6.32,0,11.53-.33,14.29-.26,1.92-.59,3.36-1.91,3.62a9.87,9.87,0,0,1-2,.26c-.39,0-.53.2-.53.39,0,.39.34.53,1.05.53,2,0,6.12-.19,6.31-.19s4.48.19,8.1.19c.72,0,1.05-.2,1.05-.53s-.14-.39-.53-.39a27.56,27.56,0,0,1-3-.26c-2-.26-2.37-1.71-2.56-3.62-.34-2.76-.34-8-.34-14.29v-27c0-.65.14-1.12.53-1.25a8.16,8.16,0,0,1,2.83-.39,11.44,11.44,0,0,1,9,3.29,14,14,0,0,1,3.69,10.15c0,6-5,10.73-11.39,10.73-1.38,0-1.78.06-1.78.59,0,.33.4.45.73.45a10,10,0,0,0,1.38.06c9.36,0,16.2-6.31,16.2-15.66a11.44,11.44,0,0,0-3.29-7.83c-1.05-1-4-3.75-12.24-3.75-3,0-6.85.19-8.29.19-.53,0-4.47-.19-7.43-.19-.73,0-1.05.14-1.05.53s.26.39.53.39a11.89,11.89,0,0,1,2.23.2c2.17.45,2.7,1.51,2.83,3.75s.13,4,.13,14.22Zm-59.5-7.69c0-14.41,8.23-21.66,19.22-21.66,10.4,0,20,8.49,20,24.3,0,19.16-12.24,22.58-18.17,22.58-11.85,0-21.06-9.88-21.06-25.21M225.13,315c0,11.84,7.49,25.86,25.53,25.86,15.87,0,26.26-12.17,26.26-26.91,0-15.34-11.05-24.68-25.86-24.68-18.18,0-25.93,15.07-25.93,25.73m-17-24c-.14-1.24-.34-1.77-.79-1.77s-.73.46-1,1.05L187,331.61l-20.14-41.39c-.33-.73-.59-1-1-1s-.65.46-.73,1.18l-4.73,42.92c-.26,2.5-.46,5.07-2.63,5.46a8.35,8.35,0,0,1-2,.2c-.34,0-.66.13-.66.33,0,.45.46.59,1.12.59,1.78,0,4.94-.19,5.53-.19s3.69.19,6.12.19c.79,0,1.18-.14,1.18-.59,0-.2-.26-.33-.53-.33a12.07,12.07,0,0,1-2.5-.33,2.1,2.1,0,0,1-1.71-2c0-1.12,0-2.3.06-3.35L167,302.72h.26c.72,1.78,8.09,17.58,8.68,18.77.33.65,6,12,7.7,15.27,1.24,2.36,1.58,3,2,3s.79-.58,2.17-3.48L204,302.06h.2l3.16,34c.13,1.18.06,2.31-.26,2.37s-.46.2-.46.46.34.52,1.84.64c2.43.2,9.55.4,11,.4.79,0,1.38-.2,1.38-.59s-.19-.33-.53-.33a14.36,14.36,0,0,1-4.28-.59c-2.82-.93-3.29-4.61-3.55-7Zm-76.94,49.82a17.42,17.42,0,0,0,9.95-2.75,13.67,13.67,0,0,0,5.59-10.94c0-5.26-1.84-9.35-9.6-15.47l-1.84-1.44c-6.33-4.94-8-7.31-8-11.06,0-4.8,3.55-7.63,8.1-7.63,6.06,0,7.83,2.76,8.23,3.49a11.86,11.86,0,0,1,.85,3.29c.06.53.13.85.52.85s.46-.45.46-1.51c0-4.48.26-6.65.26-7s-.13-.45-.65-.45a10.83,10.83,0,0,1-2.3-.34,25.89,25.89,0,0,0-6.13-.65c-8.36,0-13.62,4.8-13.62,11.84,0,4.48,1.57,8.57,8.55,14.29l3,2.43c5.67,4.68,7.58,7.31,7.58,11.85,0,4.21-3.1,8.76-9.42,8.76-4.41,0-8.76-1.84-9.74-6.71a11.52,11.52,0,0,1-.2-2.44c0-.53-.06-.72-.45-.72s-.46.33-.53,1.05c-.06,1.05-.33,3.68-.33,7,0,1.78.06,2,1,2.5a20.07,20.07,0,0,0,8.82,1.77m-66.09-27.7c0-14.41,8.23-21.66,19.23-21.66,10.4,0,20,8.49,20,24.3,0,19.16-12.24,22.58-18.17,22.58-11.85,0-21.07-9.88-21.07-25.21M58.81,315c0,11.84,7.49,25.86,25.53,25.86,15.87,0,26.26-12.17,26.26-26.91,0-15.34-11.05-24.68-25.86-24.68-18.18,0-25.93,15.07-25.93,25.73M36.17,340.82c4.21,0,9.22-.46,11.85-1.51,1.18-.53,1.32-.65,1.71-1.91A68.76,68.76,0,0,0,51.17,329c0-.53-.14-1-.46-1s-.53.27-.65,1a12.53,12.53,0,0,1-2.43,5.53c-2.63,2.7-6.51,3.3-11.45,3.3-14.09,0-23.76-11.53-23.76-24.1,0-6.71,1.12-12.57,5.92-17.19,2.31-2.23,6.39-4.8,15.14-4.8,5.8,0,10.86,1.78,13.16,3.75a9.12,9.12,0,0,1,2.77,6.72c0,.92.06,1.38.52,1.38s.53-.4.59-1.38.06-4.61.2-6.79c.13-2.37.33-3.16.33-3.69s-.13-.65-.85-.72a59.51,59.51,0,0,1-6.7-1,56.78,56.78,0,0,0-9.55-.79c-10.15,0-16.13,3.09-20.08,7a26.32,26.32,0,0,0-7.37,18c0,6.25,1.58,13.76,8,19.48,5.2,4.68,11.85,7.1,21.73,7.1" transform="translate(-6.48 0)"/></svg>