<?xml version="1.0" encoding="utf-8"?>
<!-- Generator: Adobe Illustrator 20.0.0, SVG Export Plug-In . SVG Version: 6.00 Build 0)  -->
<svg version="1.1" id="Layer_1" xmlns="http://www.w3.org/2000/svg" xmlns:xlink="http://www.w3.org/1999/xlink" x="0px" y="0px"
	 viewBox="0 0 162 122.9" style="enable-background:new 0 0 162 122.9;" xml:space="preserve">
<style type="text/css">
	.st0{fill:#FFFFFF;}
</style>
<title>Iroquois_logo</title>
<path class="st0" d="M132.9,25.7c-2.1,1.1-3,4.2-2.7,6.9c0.1,1,0.7,1.8,0.8,2.7c0.3,2.8-0.5,3.7-1.5,5.2c2-1.3,4.5-3.2,5.4-5.4
	C136.1,31.9,133,28.9,132.9,25.7L132.9,25.7z M130.3,17h-0.4c-3.5,1.1-6,3.4-5.6,6.7c0.3,2,2.3,3.5,2.1,6.1c1.9-0.9,2.7-2.7,2.3-5
	c-0.1-0.5-0.5-0.9-0.6-1.5C127.7,19.8,129.2,18.7,130.3,17L130.3,17z M124.9,15.7c-0.2-1.6-1.3-3-1.5-4.2c-0.2-1.6,0.4-1.9,0.8-2.7
	c0.1-0.2,0.8-1,0.2-1.1c-6.2,0.7-3.4,10.3-1.9,14.2C125.1,20.8,125.3,18.3,124.9,15.7L124.9,15.7z M118.4,7c0.2-2.4,0.7-4.8,1.7-7
	h-0.6c-3.6,1.6-5.2,6.1-4.4,11.5c-3.1-1.3-4.4-4.4-6.1-7.1c-0.5,2.1-1,4.4,0,6.1c0.7,1.3,2.7,1.7,3.8,2.7c3.5,2.9,6.5,8.7,8.8,13.6
	c0.8,1.8,2.2,3.5,2.7,5.2c2.8,10.4-1.1,23.1-6.7,29.5c-1.3,1.3-2.7,2.5-4.2,3.6c-1.3,1.4-3,2.4-4.8,3.1c-0.2-7.4,10.4-7.5,8.6-15.9
	c-2,1.8-6.5,2.8-6.9,6.9c-2.8-0.9-5.2,1.4-7.8,1.7c-1,0.1-1.9-0.3-2.9-0.2c-1.9,0.1-3.8,0.8-5.4,1.9c-2.8,2.3-2.1,6.8-5.2,9
	c4.2-0.1,7.1-1.3,9-3.8c0.6-0.8,1.1-2,1.7-2.9s1-2,2.1-2.1c-0.5,2.9-1.1,5.7-3.1,7.1c3-0.4,5.2-1,6.5-3.3c0.7-1.2,0.8-3,1.7-4.2
	c0.8-1.1,1.8-2.2,3.6-1.9c0.8,1.3-0.7,1.7-1.3,2.3c-1.8,1.7-2.8,4-3.8,6.7c-2.8,1.4-5.9,2.4-9,2.9c-3.6,0.6-7.5,0.5-10.7,1.2
	c-1.2,0.2-2.4,1.1-3.4,1.2s-2.6-0.8-3.8-1.2c-3.8-1-8.3-1.5-12.3-2.1C55.4,69.6,47.4,64.5,42,57.1c-3.1-4.3-4.7-9.5-4.6-14.7
	c0-6.5,1.6-12.9,4.8-18.6c0.5-0.6,0.9-1.2,1.3-1.9c0.2-0.9,0.5-1.8,0.8-2.7c1.1-2,3.3-3.8,5.4-5.4c1.4-1.1,3-2,3.6-3.5
	c0.8-1.8,0.7-4.3,0.2-6.9c-1.7,2.5-2.2,6.3-5.2,7.5c-0.4-4.8-1.5-9-5.2-10.5c3.6,9.8-0.9,20.6-4.8,27.6c-0.4,0.6-0.4,1.8-1.3,1.9
	c-1.2-2,1.1-3.6,1.3-5.4c0.1-1.9-0.4-3.7-1.5-5.2c-1-1.4-2.6-2.3-4.4-2.3c-0.1,0.8,0.7,1,1,1.5c0.6,0.9,1,2,1.2,3.1
	c0.2,1.6-0.7,3.1-0.6,4.8c0.2,2.3,3,3.3,3.3,5.2c0.2,1.4-0.9,4.2-1.2,5.7c-0.8,6.2-0.4,12.8,2.1,17.8c3.2,6.4,9.8,11.4,16.3,14.7
	c3.6,1.8,7.3,3.3,11.1,4.4c4,1.2,8.3,1.7,12.6,2.9c-0.1,1.1-1.3,2-2.1,2.9s-1.9,1.7-2.3,2.9c1.7,0,3.1-0.3,4.8-0.4
	c0.7-1.6,1.5-4,3.1-3.8s1.7,3.1,3.3,3.8c1.4-0.4,2.9-0.4,4.4-0.2c-0.3-2-3.4-2.9-3.8-5.6c10.9-1.5,20.6-3.8,28.3-9
	c7.1-4.8,13.7-12.6,13.8-23.4c0-6.2-1.4-12.2-4-17.8C121.1,21,117.9,15.6,118.4,7L118.4,7z M114.9,23c1.4,0.6,2.6,1.5,3.6,1.5
	c0.1-6.2-5.2-7-8.4-9.8c-0.1-0.6-0.1-1.4-0.8-1.5C106.3,18.4,111.5,21.4,114.9,23z M113.9,24.7c-0.1,6.9,6.3,7.8,9.4,11.1
	c-0.1-0.1,0.3,1.2,0.6,0.4c-0.3-2.7-0.6-4.9-1.7-6.5C120.3,27,116.2,27,113.9,24.7L113.9,24.7z M117.2,40.4c1.1,1.5,3.1,2.2,4.4,3.5
	c0.8,0.8,0.9,2,1.9,2.5c0.8-2.7,1-5.8-0.4-7.5c-1.2-1.4-3.7-2-5.2-3.3c-0.9-0.8-1.1-1.6-1.9-2.5C115.5,36.7,115.9,38.7,117.2,40.4
	L117.2,40.4z M119,53.6c0.1,0.7-0.3,1.8,0.4,2.3c1.4-2.3,3.3-5.9,1.9-9c-1-2.1-3.6-2.6-5.2-4C117.6,46.3,118.6,49.9,119,53.6z
	 M85.3,14.7c2.9-0.3,6.2-0.2,8-1.5H61.7c-0.2,0-0.3,0.2-0.4,0.4c2.6,0.9,5.3,1.2,8,1c1.3,1.7,1,4.2,1.2,6.5
	c0.4,6.8,0.2,13.4,0.2,20.1c0,4.5,0.1,8.9-1,12.6c-2.4,0.2-10.1,1.6-10,4c0.1,1.2,2.1,1.7,3.8,1.2c0.9-0.6-0.2-1.9,0-2.3
	c6.8-1.8,14.7-2.2,22.8-1.9s16.1,1.3,23,1.9c-7.3-2.1-16-2.8-24.1-4C83.8,41.4,83.7,26,85.3,14.7L85.3,14.7z M83,52.8
	c-2.2-0.1-3.8,0.3-5.9,0.2c0-13,0-25.9,0-38.1h5.6C82.4,26.8,82,41.1,83,52.8L83,52.8z M61,61.7c-1.6-1.4-4.5-3.3-7.5-2.1
	c1,1.2,1.9,1.6,2.9,2.9c1.2,1.6,1.3,3.6,2.3,5.2s3.5,2.6,6.1,2.3c-0.9-2.7-2.9-5.2-3.3-7.8c1.3,0.2,1.6,1.4,2.1,2.3
	c2.1,3.5,4.9,8.2,10.2,6.9c-0.8-0.7-1.5-1.4-2.1-2.3c-1-1.7-1.3-4.2-2.5-5.6C67.6,61.4,64.4,61,61,61.7z M44.3,24.1
	c5-0.8,12.1-4.3,9-11.3c0-0.1-0.2-0.2-0.4-0.2C51.5,17.9,44.2,17.3,44.3,24.1z M39.7,34.8c1.3,0,1.7-1,2.9-1.7
	c2-1.2,4.8-1.7,6.3-3.1c1.7-1.5,2.2-4,2.5-6.5C46.6,26.5,39.8,27.3,39.7,34.8L39.7,34.8z M38.9,44.4c1.2-0.2,1.5-1.2,2.5-1.7
	c0.8-0.5,1.8-0.4,2.7-0.8c1.4-0.7,2.6-1.7,3.6-2.9c1.1-1.2,1.9-2.6,2.3-4.2C42.9,35,37.9,36.3,38.9,44.4L38.9,44.4z M42,53.8
	c0.4-4.7,2.3-8,4-11.3c-3.7-0.1-5.7,2.9-5.7,6.3C40.3,50.6,40.7,53,42,53.8L42,53.8z M45.3,48.1c0.4,2.8-1,4.2-0.8,6.3
	c0.5,3.5,6,5.7,6.7,9.2c0.7-2.3,2.1-5.8,0.8-8c-0.8-1.3-3.6-1.3-4.6-2.9c-1.1-1.8,0.1-2.9-1.5-4.4C45.6,48.3,45.4,48.2,45.3,48.1
	L45.3,48.1z M40.7,21.1c1.2-2.6,1.8-5.5,1.7-8.4c-0.1-1.5-0.6-3.6-1.3-4.4s-3-1.3-3.6-1.3c2.6,1.2,1.2,3.9,1,7.3
	S38.7,19.8,40.7,21.1L40.7,21.1z M33.2,28c-0.5-1.5-2.8-4.1-3.8-5c-0.5,7-1.2,15.8,3.1,19.1C31.4,37.3,34.6,32.2,33.2,28L33.2,28z
	 M26.9,40c-0.1,3.6,1.2,5.7,2.5,7.8c0.9,0.6,2,1,3.1,1.5s2,1.3,2.9,1.3C34.9,44.7,30.3,43,26.9,40z M28.2,51.5
	c-0.1,2.2,0.2,4.3,1.3,5.6c0.8,0.7,1.7,1.4,2.7,1.9c2.2,0.7,5.4-0.3,7.3,0.6c-1.4-1.2-1.4-3.3-3.1-4.4c-0.9-0.5-1.9-0.9-2.9-1.2
	c-2-0.8-3.2-1.1-4.4-2.1C29.1,51.8,28.5,50.9,28.2,51.5L28.2,51.5z M35.5,64.1c-0.1,2.2,0.9,3.2,1.9,4.4c0.6,0.8,1.3,1.5,2.1,2.1
	c2.7,1.7,7,0.2,10.1,1.3c1.1,0.4,1.4,1.3,2.7,1.3c0.1-1.8-0.7-3.5-2.1-4.6c-3.7-2.8-12.5,0-14.5-4.4C35.7,64.2,35.7,64.1,35.5,64.1
	L35.5,64.1z M47.7,74.7c1.1,1.8,2.3,3.7,4.4,3.8c3.2,0.2,6.8-3.1,10.5-1.9c-1.6-1.5-3.1-3.5-5.4-3.6s-4.2,2.2-6.9,2.1
	C49.4,75,49,74.5,47.7,74.7L47.7,74.7z M54.4,80c1.2,1.7,4.2,3,6.9,3.3c1.7,0.2,4.2,0.1,5.6-0.8c0.7-0.5,1-1.5,1.7-2.1
	c1.4-1.2,3-1.4,4.8-2.1c-1.1-1.6-3-1.8-4.4-1.9C64,76.1,60.4,81.7,54.4,80L54.4,80z M95.4,76.6c-1.8-0.2-3.6,0.4-4.8,1.7
	c0.8,0.6,1.9,0.8,2.7,1.3s1.1,1.8,2.1,2.3c3.3,1.5,9.4,0.8,11.9-1C102.6,81.2,99.6,76.9,95.4,76.6L95.4,76.6z M110.6,78.7
	c2.8-0.1,4.8-2.2,6.1-4.6c-2.1,0.6-4.6,1.2-7.1,0.4c-1.5-0.5-2.1-1.8-4.2-1.3c-1.5,0.4-4.1,1.9-4.2,3.4
	C104.5,75.2,107.3,78.8,110.6,78.7L110.6,78.7z M118.2,72.7c1.1-0.2,2.2-0.6,3.3-1.2c2.8-1.4,4.1-2.8,4.6-5.7
	c-3.2,2.7-7.4,1.5-11.1,2.5c-2.2,0.6-2.3,3.1-3.6,5C113.5,72.1,116,73,118.2,72.7L118.2,72.7z M125.1,62c2.4-0.8,4.8-0.6,6.5-1.9
	c2.2-1.6,3.1-4,3.4-7.8h-0.6c-1.6,3-6.9,2.4-9.2,4.8c-0.4,2.3-3.2,3.2-2.7,5.7C123.5,63,124.3,62.3,125.1,62L125.1,62z M135.1,38.3
	c-0.3,0-0.3-0.3-0.6-0.2c-2.9,3.9-7.1,8.3-6.5,14.5c0.6,0.4,1.1-0.4,1.5-0.8c1.6-1.2,3.7-2.5,4.8-3.8
	C136.1,45.7,134.4,41.9,135.1,38.3L135.1,38.3z"/>
<path class="st0" d="M2.4,106.3h5.3v-0.4c-1.2,0-1.5-0.2-1.5-1.3v-8.3h1.3c1.3,0,1.8,0.5,2.1,2H10l-0.3-2.8H0.3L0,98.2h0.5
	c0.3-1.5,0.8-2,2.1-2h1.3v8.3c0,1.1-0.3,1.3-1.5,1.3L2.4,106.3L2.4,106.3z M13.6,100.3c0.5-0.4,1.1-0.6,1.7-0.6c0.5,0,1,0.3,1,1.3
	v3.9c0,0.8-0.1,0.9-0.9,1v0.4h3.8v-0.4c-0.8,0-0.9-0.1-0.9-1v-3.8c0-1.7-0.7-2.5-2.3-2.5c-0.8,0.1-1.6,0.4-2.3,1v-4.4
	c0-0.1,0-0.2-0.1-0.2s-1.8,0.5-2.7,0.7v0.4c0.7,0,0.9,0.1,0.9,0.8v8c0,0.9-0.1,1-0.9,1v0.4h3.8v-0.4c-0.8,0-0.9-0.1-0.9-1
	L13.6,100.3L13.6,100.3z M26.3,102c-0.1-1.9-1.2-3.4-3.1-3.4s-3.3,1.7-3.3,4.2c-0.2,1.9,1.2,3.5,3.1,3.7c0.1,0,0.1,0,0.2,0
	c1.5-0.1,2.8-1,3.3-2.4l-0.3-0.3c-0.5,0.8-1.3,1.3-2.2,1.3c-1.4,0-2.2-1.1-2.2-3.1L26.3,102z M21.8,101.4c0-0.9,0.2-2,1.3-2
	s1.3,1.1,1.3,2H21.8z M35.2,97.1c0-1.1,0.3-1.3,1.6-1.3v-0.4h-5.4v0.4c1.3,0,1.6,0.2,1.6,1.3v7.4c0,1.1-0.3,1.3-1.6,1.3v0.4h5.4
	v-0.4c-1.3,0-1.6-0.2-1.6-1.3L35.2,97.1L35.2,97.1z M41.7,106.3v-0.4c-0.8,0-1.2-0.2-1.2-1v-4.2c0.2-0.4,0.5-0.6,0.8-0.6
	c0.2,0,0.3,0.1,0.4,0.2c0.2,0.2,0.5,0.3,0.8,0.3c0.5,0,0.9-0.4,0.9-0.8c0,0,0,0,0,0c0-0.6-0.4-1-0.9-1.1c0,0-0.1,0-0.1,0
	c-0.8,0.1-1.5,0.6-1.8,1.4l0,0v-1.1c0-0.1,0-0.2-0.1-0.2s-1.9,0.5-2.7,0.6v0.4c0.7,0,0.9,0.2,0.9,0.9v4.4c0,0.7-0.3,0.8-0.9,0.9v0.4
	L41.7,106.3z M51.4,102.5c-0.2-2-2-3.4-4-3.2c-2,0.2-3.4,2-3.2,4c0.2,1.8,1.7,3.3,3.6,3.3c2,0,3.6-1.6,3.6-3.6
	C51.4,102.8,51.4,102.6,51.4,102.5z M49.4,102.5c0,2.3-0.5,3.3-1.6,3.3s-1.6-1-1.6-3.3s0.5-3.3,1.6-3.3S49.4,100.2,49.4,102.5z
	 M57,104.8c-0.3,0.3-0.6,0.4-1,0.4c-1.2,0-1.8-1.1-1.8-2.8c0-1.9,0.7-3.1,1.8-3.1c0.5-0.1,0.9,0.3,1,0.8c0,0,0,0.1,0,0.1L57,104.8
	L57,104.8z M59.8,109.8v-0.4c-0.5,0-0.8-0.2-0.8-0.7v-10h-0.3l-0.8,0.5c-0.6-0.3-1.2-0.5-1.9-0.5c-2.5,0-3.6,2.3-3.6,4.6
	c0,1.9,1.1,3.3,2.8,3.3c0.8,0,1.5-0.3,2-0.9v3.1c0,0.5-0.3,0.7-1,0.7v0.4L59.8,109.8z M60.3,98.8v0.4c0.8,0,0.9,0.1,0.9,1v3.8
	c0,1.7,0.7,2.5,2.3,2.5c0.8-0.1,1.6-0.4,2.3-1v0.8c0,0.1,0,0.2,0.1,0.2s2.3-0.5,2.7-0.6v-0.4c-0.7,0-0.9-0.2-0.9-0.9v-5.8h-2.9v0.4
	c0.8,0,0.9,0.1,0.9,1v4.6c-0.5,0.4-1.1,0.6-1.7,0.6c-0.6,0-1-0.3-1-1.3v-5.3L60.3,98.8z M76.8,102.5c-0.2-2-2-3.4-4-3.2
	c-2,0.2-3.4,2-3.2,4c0.2,1.8,1.7,3.3,3.6,3.3c2,0,3.6-1.6,3.6-3.6C76.8,102.7,76.8,102.6,76.8,102.5z M74.8,102.5
	c0,2.3-0.5,3.3-1.6,3.3s-1.6-1-1.6-3.3s0.5-3.3,1.6-3.3S74.8,100.2,74.8,102.5z M81.5,106.3v-0.4c-0.7,0-0.9-0.3-0.9-1v-6
	c0-0.2,0-0.3-0.1-0.3c-0.9,0.3-1.8,0.5-2.8,0.6v0.4c0.7,0,1,0.2,1,1.3v4c0,0.7-0.1,1-1,1v0.4L81.5,106.3z M79.6,97.4
	c0.6,0,1.1-0.5,1.1-1.1c0-0.6-0.5-1.1-1.1-1.1s-1.1,0.5-1.1,1.1c0,0,0,0,0,0C78.5,96.9,79,97.4,79.6,97.4z M82.5,106.5h0.4
	c0-0.2,0.1-0.4,0.3-0.4c0.3,0.1,0.6,0.2,0.9,0.3c0.4,0.1,0.8,0.1,1.3,0.1c1.2,0.2,2.3-0.7,2.5-1.9c0-0.1,0-0.2,0-0.3
	c0-1.3-0.7-1.8-1.8-2.3l-1.3-0.7c-0.7-0.3-0.8-0.6-0.8-1c-0.1-0.5,0.3-0.9,0.8-1c0.1,0,0.2,0,0.2,0c1.2,0,1.8,0.9,2.2,2h0.5v-2.6
	h-0.4C87,98.9,87,99,86.7,99s-0.6-0.4-1.8-0.4c-1.2-0.1-2.3,0.8-2.4,1.9c0,0,0,0.1,0,0.1c-0.1,1,0.5,1.9,1.4,2.2l1.2,0.7
	c0.7,0.4,1.2,0.6,1.2,1.3s-0.5,1-1.1,1c-1.2-0.1-2.1-1-2.3-2.1h-0.4v2.8L82.5,106.5z M102.3,102.9l-6.5-7.5h-3v0.4
	c0.6,0.1,1.2,0.5,1.5,1.1v7.3c0,1.1-0.3,1.5-1.5,1.6v0.4h3.8v-0.4c-1.2-0.1-1.5-0.6-1.5-1.6V98l7.4,8.6h0.5v-9.1
	c0-1.1,0.3-1.5,1.5-1.6v-0.4h-3.8v0.4c1.2,0.1,1.5,0.6,1.5,1.6L102.3,102.9L102.3,102.9z M111.9,102c-0.1-1.9-1.2-3.4-3.1-3.4
	s-3.3,1.7-3.3,4.2c-0.2,1.9,1.2,3.5,3.1,3.7c0.1,0,0.1,0,0.2,0c1.5-0.1,2.8-1,3.3-2.4l-0.3-0.3c-0.5,0.8-1.3,1.3-2.2,1.3
	c-1.4,0-2.2-1.1-2.2-3.1L111.9,102z M107.3,101.3c0-0.9,0.2-2,1.3-2s1.3,1.1,1.3,2H107.3z M116.2,106.5l2-4.6l1.6,4.6h0.5l2.3-6.2
	c0.1-0.5,0.5-0.9,1-1.1v-0.4h-2.3v0.4c0.5,0,0.7,0.2,0.7,0.5c0,0.3-0.1,0.6-0.2,0.8l-1.2,3.1l0,0l-1-3.1c-0.1-0.3-0.2-0.6-0.2-0.9
	c0-0.3,0.3-0.5,0.8-0.5v-0.4h-3.7v0.4c0.4,0,0.8,0.3,0.9,0.7l0.3,1l-1.3,2.9l-1.2-3.6c-0.1-0.2-0.2-0.5-0.2-0.7
	c0-0.3,0.3-0.4,0.7-0.3v-0.4h-3.3v0.4c0.3,0,0.5,0.2,0.7,0.7l2.3,6.6L116.2,106.5z M132.8,97.5c-0.3-0.5-0.6-0.8-0.6-1.1
	c0-0.4,0.3-0.5,1.3-0.6v-0.4h-5.1v0.4c0.5,0.1,1,0.4,1.3,0.8l3.2,4.6v3.3c0,1.1-0.3,1.3-1.5,1.3v0.4h5.3v-0.4
	c-1.2,0-1.5-0.2-1.5-1.3v-3.3l2.9-4.1c0.6-0.9,0.9-1.2,1.6-1.3v-0.4h-3.7v0.4c1.1,0,1.4,0.2,1.4,0.5c0,0.4-0.2,0.9-0.5,1.2l-2,2.8
	L132.8,97.5L132.8,97.5z M146.4,102.5c-0.2-2-2-3.4-4-3.2c-2,0.2-3.4,2-3.2,4c0.2,1.8,1.7,3.3,3.6,3.3c2,0,3.6-1.6,3.6-3.6
	C146.4,102.8,146.4,102.6,146.4,102.5z M144.4,102.5c0,2.3-0.5,3.3-1.6,3.3s-1.6-1-1.6-3.3s0.5-3.3,1.6-3.3S144.4,100.2,144.4,102.5
	z M151.3,106.3v-0.4c-0.8,0-1.1-0.2-1.1-1v-4.2c0.2-0.4,0.5-0.6,0.8-0.6c0.2,0,0.3,0.1,0.4,0.2c0.2,0.2,0.5,0.3,0.8,0.3
	c0.5,0,0.9-0.4,0.9-0.8c0,0,0,0,0,0c0-0.6-0.4-1-0.9-1.1c0,0-0.1,0-0.1,0c-0.8,0.1-1.5,0.6-1.8,1.4l0,0v-1.1c0-0.1,0-0.2-0.1-0.2
	s-1.9,0.5-2.7,0.6v0.4c0.7,0,0.9,0.2,0.9,0.9v4.4c0,0.7-0.3,0.8-0.9,0.9v0.4L151.3,106.3z M157.4,106.3v-0.4c-0.7,0-0.9-0.1-0.9-0.8
	v-2.7l0,0l1.9,2.4c0.2,0.2,0.4,0.5,0.4,0.8c0,0.3-0.3,0.3-0.7,0.3v0.4h3.9v-0.4c-0.2,0-0.6-0.3-1.6-1.5l-2.3-2.9
	c2.5-2,2.8-2.2,3.4-2.3v-0.4H158v0.4c0.6,0,0.8,0.2,0.8,0.5c-0.1,0.4-0.3,0.8-0.7,1l-1.7,1.4v-6.8c0-0.2,0-0.3-0.1-0.3
	s-2.2,0.6-2.7,0.7v0.4c0.7,0,0.9,0.1,0.9,0.8v8.1c0,0.7-0.2,0.8-0.9,0.8v0.4L157.4,106.3z"/>
<polygon class="st0" points="61.3,114.3 60.3,117.6 56.8,117.6 59.6,119.6 58.5,122.9 61.3,120.8 64.1,122.9 63,119.6 65.9,117.6 
	62.4,117.6 61.3,114.3 "/>
<polygon class="st0" points="74.4,114.3 73.4,117.6 69.9,117.6 72.7,119.6 71.6,122.9 74.4,120.8 77.3,122.9 76.2,119.6 79,117.6 
	75.5,117.6 74.4,114.3 "/>
<polygon class="st0" points="87.6,114.3 86.5,117.6 83,117.6 85.8,119.6 84.8,122.9 87.6,120.8 90.4,122.9 89.3,119.6 92.1,117.6 
	88.6,117.6 87.6,114.3 "/>
<polygon class="st0" points="100.7,114.3 99.6,117.6 96.1,117.6 98.9,119.6 97.9,122.9 100.7,120.8 103.5,122.9 102.4,119.6 
	105.2,117.6 101.8,117.6 100.7,114.3 "/>
<path class="st0" d="M89.2,106.9v-0.5h0.4c0.1,0,0.3,0.1,0.3,0.2c0,0,0,0,0,0c0,0.1-0.1,0.3-0.2,0.3c0,0,0,0,0,0L89.2,106.9z
	 M88.9,107.7C88.9,107.7,89,107.7,88.9,107.7l0.2,0.1c0,0,0.1,0,0.1-0.1v-0.5h0.3l0.3,0.6c0,0,0,0.1,0.1,0.1H90c0,0,0.1,0,0.1-0.1
	c0,0,0,0,0-0.1l-0.3-0.5c0.2-0.1,0.4-0.3,0.4-0.5c0-0.3-0.2-0.5-0.5-0.5c0,0,0,0,0,0H89c0,0-0.1,0-0.1,0.1L88.9,107.7L88.9,107.7z
	 M88.2,106.9c0-0.7,0.6-1.3,1.3-1.3c0.7,0,1.3,0.6,1.3,1.3c0,0.7-0.6,1.3-1.3,1.3l0,0C88.8,108.3,88.2,107.7,88.2,106.9 M87.9,106.9
	c0,0.9,0.7,1.6,1.6,1.6s1.6-0.7,1.6-1.6c0-0.9-0.7-1.6-1.6-1.6S87.9,106,87.9,106.9C87.9,106.9,87.9,106.9,87.9,106.9"/>
</svg>
