<?xml version="1.0" encoding="utf-8"?>
<!-- Generator: Adobe Illustrator 21.0.0, SVG Export Plug-In . SVG Version: 6.00 Build 0)  -->
<svg version="1.1" id="Layer_1" xmlns="http://www.w3.org/2000/svg" xmlns:xlink="http://www.w3.org/1999/xlink" x="0px" y="0px"
	 viewBox="0 0 518 132.4" style="enable-background:new 0 0 518 132.4;" xml:space="preserve">
<style type="text/css">
	.st0{clip-path:url(#SVGID_2_);fill:#A58D62;}
	.st1{clip-path:url(#SVGID_4_);fill:#A58D62;}
	.st2{clip-path:url(#SVGID_6_);fill:#A58D62;}
	.st3{clip-path:url(#SVGID_8_);fill:#A58D62;}
	.st4{clip-path:url(#SVGID_10_);fill:#A58D62;}
	.st5{clip-path:url(#SVGID_12_);fill:#A58D62;}
	.st6{clip-path:url(#SVGID_14_);fill:#A58D62;}
	.st7{clip-path:url(#SVGID_16_);fill:#A58D62;}
	.st8{clip-path:url(#SVGID_18_);fill:#A58D62;}
	.st9{clip-path:url(#SVGID_20_);fill:#A58D62;}
	.st10{clip-path:url(#SVGID_22_);fill:#A58D62;}
	.st11{clip-path:url(#SVGID_24_);fill:#A58D62;}
	.st12{clip-path:url(#SVGID_26_);fill:#A58D62;}
	.st13{fill:#A58D62;}
</style>
<g>
	<g>
		<g>
			<defs>
				<rect id="SVGID_1_" width="518" height="120"/>
			</defs>
			<clipPath id="SVGID_2_">
				<use xlink:href="#SVGID_1_"  style="overflow:visible;"/>
			</clipPath>
			<path class="st0" d="M18.9,8.5H1.4C0.6,8.5,0,7.9,0,7.2V1.4C0,0.6,0.6,0,1.4,0h44.4c0.8,0,1.4,0.6,1.4,1.4v5.8
				c0,0.7-0.6,1.4-1.4,1.4H28.2V53c0,0.7-0.6,1.3-1.3,1.3h-6.6c-0.7,0-1.3-0.6-1.3-1.3L18.9,8.5L18.9,8.5z"/>
		</g>
	</g>
	<g>
		<g>
			<defs>
				<rect id="SVGID_3_" width="518" height="120"/>
			</defs>
			<clipPath id="SVGID_4_">
				<use xlink:href="#SVGID_3_"  style="overflow:visible;"/>
			</clipPath>
			<path class="st1" d="M84.4,1.4C84.4,0.6,85,0,85.8,0h23.5c8.5,0,18.3,7,18.3,18.4c0,11-5.9,15.5-12.1,18c0,0,1.6,0.7,4.3,3.9
				c2.2,2.5,7.3,12,7.3,12c0.5,0.9,0,2.1-1.2,2.1h-7.5c-0.6,0-1-0.3-1.1-0.6c0,0-1.7-4.6-5.1-9.1s-9.1-7.1-9.1-7.1h-9.5V53
				c0,0.7-0.6,1.3-1.3,1.3h-6.5c-0.8,0-1.3-0.6-1.3-1.3L84.4,1.4L84.4,1.4z M108.5,30c8.8,0,11-7.7,11-11.6c0-7.5-7.2-9.8-11-9.8
				H93.7V30H108.5z"/>
		</g>
	</g>
	<g>
		<g>
			<defs>
				<rect id="SVGID_5_" width="518" height="120"/>
			</defs>
			<clipPath id="SVGID_6_">
				<use xlink:href="#SVGID_5_"  style="overflow:visible;"/>
			</clipPath>
			<path class="st2" d="M417.7,37.6h-9.5V53c0,0.7-0.6,1.3-1.3,1.3h-6.5c-0.8,0-1.4-0.6-1.4-1.3V1.4c0-0.7,0.6-1.4,1.4-1.4h23.5
				c8.5,0,18.3,7,18.3,18.4c0,11.9-7.2,16.9-13.4,18.6C427,37.4,417.7,37.6,417.7,37.6 M423,29.3c8.8,0,11-7,11-11
				c0-7.5-7.2-9.8-11-9.8h-14.7v20.8H423z"/>
		</g>
	</g>
	<g>
		<g>
			<defs>
				<rect id="SVGID_7_" width="518" height="120"/>
			</defs>
			<clipPath id="SVGID_8_">
				<use xlink:href="#SVGID_7_"  style="overflow:visible;"/>
			</clipPath>
			<path class="st3" d="M168.1,1.4c0-0.7,0.6-1.4,1.3-1.4h6.6c0.7,0,1.4,0.6,1.4,1.4V53c0,0.7-0.6,1.3-1.4,1.3h-6.6
				c-0.7,0-1.3-0.6-1.3-1.3V1.4z"/>
		</g>
	</g>
	<g>
		<g>
			<defs>
				<rect id="SVGID_9_" width="518" height="120"/>
			</defs>
			<clipPath id="SVGID_10_">
				<use xlink:href="#SVGID_9_"  style="overflow:visible;"/>
			</clipPath>
			<path class="st4" d="M476.2,1.4c0-0.7,0.6-1.4,1.4-1.4h6.6c0.8,0,1.3,0.6,1.3,1.4v21.9h23.2V1.4c0-0.7,0.6-1.4,1.3-1.4h6.6
				c0.7,0,1.3,0.6,1.3,1.4V53c0,0.7-0.6,1.3-1.3,1.3H510c-0.8,0-1.3-0.6-1.3-1.3V31.9h-23.2V53c0,0.7-0.6,1.3-1.3,1.3h-6.6
				c-0.7,0-1.4-0.6-1.4-1.3L476.2,1.4L476.2,1.4z"/>
		</g>
	</g>
	<g>
		<g>
			<defs>
				<rect id="SVGID_11_" width="518" height="120"/>
			</defs>
			<clipPath id="SVGID_12_">
				<use xlink:href="#SVGID_11_"  style="overflow:visible;"/>
			</clipPath>
			<path class="st5" d="M144.5,87.6c0-0.5,0.4-0.9,0.9-0.9h4.4c0.5,0,0.9,0.4,0.9,0.9V100H166V87.6c0-0.5,0.4-0.9,0.9-0.9h4.3
				c0.5,0,0.9,0.4,0.9,0.9v31c0,0.5-0.4,0.9-0.9,0.9h-4.3c-0.5,0-0.9-0.4-0.9-0.9v-12.9h-15.3v12.9c0,0.5-0.4,0.9-0.9,0.9h-4.4
				c-0.5,0-0.9-0.4-0.9-0.9L144.5,87.6L144.5,87.6z"/>
		</g>
	</g>
	<g>
		<g>
			<defs>
				<rect id="SVGID_13_" width="518" height="120"/>
			</defs>
			<clipPath id="SVGID_14_">
				<use xlink:href="#SVGID_13_"  style="overflow:visible;"/>
			</clipPath>
			<path class="st6" d="M209.2,86.3c9.4,0,16.9,7.5,16.9,16.9s-7.5,16.8-16.9,16.8s-16.9-7.4-16.9-16.8
				C192.4,93.8,199.8,86.3,209.2,86.3 M209.2,113.9c5.9,0,10.8-4.8,10.8-10.7c0-5.9-4.9-10.8-10.8-10.8c-5.9,0-10.7,4.9-10.7,10.8
				C198.5,109.1,203.3,113.9,209.2,113.9"/>
		</g>
	</g>
	<g>
		<g>
			<defs>
				<rect id="SVGID_15_" width="518" height="120"/>
			</defs>
			<clipPath id="SVGID_16_">
				<use xlink:href="#SVGID_15_"  style="overflow:visible;"/>
			</clipPath>
			<path class="st7" d="M250.5,92.4h-10.3c-0.5,0-0.9-0.4-0.9-0.9v-3.8c0-0.5,0.4-0.9,0.9-0.9H267c0.5,0,0.9,0.4,0.9,0.9v3.8
				c0,0.5-0.4,0.9-0.9,0.9h-10.3v26.3c0,0.5-0.4,0.9-0.9,0.9h-4.4c-0.5,0-0.9-0.4-0.9-0.9L250.5,92.4L250.5,92.4z"/>
		</g>
	</g>
	<g>
		<g>
			<defs>
				<rect id="SVGID_17_" width="518" height="120"/>
			</defs>
			<clipPath id="SVGID_18_">
				<use xlink:href="#SVGID_17_"  style="overflow:visible;"/>
			</clipPath>
			<path class="st8" d="M283.6,87.6c0-0.5,0.4-0.9,0.9-0.9h20.7c0.5,0,0.9,0.4,0.9,0.9v3.8c0,0.5-0.4,0.9-0.9,0.9h-15.5v7.7h11.6
				c0.5,0,0.9,0.4,0.9,0.9v3.9c0,0.5-0.4,0.9-0.9,0.9h-11.6v8.2h15.5c0.5,0,0.9,0.4,0.9,0.9v3.8c0,0.5-0.4,0.9-0.9,0.9h-20.7
				c-0.5,0-0.9-0.4-0.9-0.9V87.6z"/>
		</g>
	</g>
	<g>
		<g>
			<defs>
				<rect id="SVGID_19_" width="518" height="120"/>
			</defs>
			<clipPath id="SVGID_20_">
				<use xlink:href="#SVGID_19_"  style="overflow:visible;"/>
			</clipPath>
			<path class="st9" d="M325.4,87.6c0-0.5,0.4-0.9,0.9-0.9h4.3c0.5,0,0.9,0.4,0.9,0.9v26.3h15.1c0.5,0,0.9,0.4,0.9,0.9v3.8
				c0,0.5-0.4,0.9-0.9,0.9h-20.3c-0.5,0-0.9-0.4-0.9-0.9V87.6z"/>
		</g>
	</g>
	<g>
		<g>
			<defs>
				<rect id="SVGID_21_" width="518" height="120"/>
			</defs>
			<clipPath id="SVGID_22_">
				<use xlink:href="#SVGID_21_"  style="overflow:visible;"/>
			</clipPath>
			<path class="st10" d="M361.2,114.9l1.7-2.9c0.4-0.7,1.2-0.7,1.6-0.3c0.2,0.1,3.5,2.6,6.6,2.6c2.4,0,4.3-1.6,4.3-3.6
				c0-2.4-1.5-3.7-5.5-5.3c-4.4-1.8-8.8-4.6-8.8-10.1c0-4.2,3.1-9,10.6-9c4.8,0,8.5,2.4,9.4,3.1c0.5,0.3,0.6,1.1,0.3,1.5l-1.8,2.7
				c-0.4,0.6-1.1,0.9-1.6,0.6c-0.4-0.2-3.3-2.2-5.8-2.2c-2.7,0-4.1,1.8-4.1,3.3c0,2.2,1.1,3.3,4.9,4.9c4.6,1.8,9.8,4.6,9.8,10.6
				c0,4.8-4.2,9.3-10.8,9.3c-5.9,0-9.4-2.8-10.3-3.7C361,115.9,360.8,115.7,361.2,114.9"/>
		</g>
	</g>
	<g>
		<g>
			<defs>
				<rect id="SVGID_23_" width="518" height="120"/>
			</defs>
			<clipPath id="SVGID_24_">
				<use xlink:href="#SVGID_23_"  style="overflow:visible;"/>
			</clipPath>
			<path class="st11" d="M356.7,0h-6.5c-0.1,0-0.2,0-0.3,0c-0.1,0-0.2,0-0.4,0h-1.1c-0.6,0-1,0.3-1.2,0.7l-15.6,25.7h-0.2L315.7,0.7
				C315.4,0.3,315,0,314.4,0h-1.1h-0.1l0,0h-6.6c-0.7,0-1.4,0.6-1.4,1.4V53c0,0.7,0.6,1.3,1.4,1.3h6.6c0.8,0,1.3-0.6,1.3-1.3V28.7
				v-8.6V16l15,23.7c0.2,0.4,0.6,0.8,1.2,0.8h1.3c0.6,0,1.1-0.3,1.2-0.8c0,0,9.2-14.2,15.6-23.9v4.3v8.6V53c0,0.7,0.6,1.3,1.3,1.3
				h6.5c0.7,0,1.4-0.6,1.4-1.3V1.4C358,0.6,357.4,0,356.7,0"/>
		</g>
	</g>
	<g>
		<g>
			<defs>
				<rect id="SVGID_25_" width="518" height="120"/>
			</defs>
			<clipPath id="SVGID_26_">
				<use xlink:href="#SVGID_25_"  style="overflow:visible;"/>
			</clipPath>
			<path class="st12" d="M220.9,1.5c0-0.7,0.6-1.4,1.4-1.4h6.7c0.8,0,1.4,0.6,1.4,1.4v32.1c0,6,4.1,12.3,10.3,12.3c0.1,0,5,0,5.1,0
				c6-0.2,10-6.4,10-12.3V1.5c0-0.7,0.6-1.4,1.3-1.4h6.8c0.7,0,1.4,0.6,1.4,1.4v32.6c0,10.7-8.5,21-19.6,21.1c-0.1,0-4.9,0-5,0
				c-11.2,0-19.8-10.3-19.8-21.1L220.9,1.5L220.9,1.5z"/>
		</g>
	</g>
</g>
<path class="st13" d="M415.6,115.7v-5.2h4.5c1.5-0.2,2.7,1,2.7,2.2c0,0.2,0,0.2,0,0.5c0,1.5-1.2,2.5-2.5,2.5c0,0,0,0-0.2,0H415.6z
	 M412.8,123.7c0,0.5,0.5,0.7,0.7,0.7l0,0h1.2c0.5,0,0.7-0.5,0.7-0.7l0,0V118h3.5l2.5,5.7c0.2,0.2,0.5,0.5,0.7,0.7h1.5
	c0.5,0,1-0.2,1-0.7c0-0.2,0-0.2,0-0.5l-2.7-5.5c2.2-0.5,4-2.7,3.7-5c0-3-2.2-5.2-5.2-5.2c-0.2,0-0.2,0-0.5,0h-6.2
	c-0.5,0-0.7,0.5-0.7,0.7l0,0L412.8,123.7L412.8,123.7z M404.8,115.7c0-7.7,6.2-14,14-14c7.7,0,14,6.2,14,14c0,7.7-6.2,14-14,14l0,0
	C411.1,129.7,404.8,123.7,404.8,115.7C404.8,116,404.8,116,404.8,115.7 M402.1,115.7c0,9.2,7.5,16.7,16.7,16.7s16.7-7.5,16.7-16.7
	S428.1,99,418.8,99S402.1,106.7,402.1,115.7L402.1,115.7"/>
</svg>
