<?xml version="1.0" encoding="utf-8"?>
<!-- Generator: Adobe Illustrator 18.0.0, SVG Export Plug-In . SVG Version: 6.00 Build 0)  -->
<!DOCTYPE svg PUBLIC "-//W3C//DTD SVG 1.1//EN" "http://www.w3.org/Graphics/SVG/1.1/DTD/svg11.dtd">
<svg version="1.1" id="Layer_1" xmlns="http://www.w3.org/2000/svg" xmlns:xlink="http://www.w3.org/1999/xlink" x="0px" y="0px"
	 width="518px" height="120px" viewBox="0 0 518 120" enable-background="new 0 0 518 120" xml:space="preserve">
<g>
	<g>
		<defs>
			<rect id="SVGID_1_" y="0" width="518" height="120"/>
		</defs>
		<clipPath id="SVGID_2_">
			<use xlink:href="#SVGID_1_"  overflow="visible"/>
		</clipPath>
		<path clip-path="url(#SVGID_2_)" fill="#FFFFFF" d="M18.9,8.5H1.4C0.6,8.5,0,7.9,0,7.2V1.4C0,0.6,0.6,0,1.4,0h44.4
			c0.8,0,1.4,0.6,1.4,1.4v5.8c0,0.7-0.6,1.4-1.4,1.4H28.2V53c0,0.7-0.6,1.3-1.3,1.3h-6.6c-0.7,0-1.3-0.6-1.3-1.3L18.9,8.5L18.9,8.5z
			"/>
	</g>
	<g>
		<defs>
			<rect id="SVGID_3_" y="0" width="518" height="120"/>
		</defs>
		<clipPath id="SVGID_4_">
			<use xlink:href="#SVGID_3_"  overflow="visible"/>
		</clipPath>
		<path clip-path="url(#SVGID_4_)" fill="#FFFFFF" d="M84.4,1.4C84.4,0.6,85,0,85.8,0h23.5c8.5,0,18.3,7,18.3,18.4
			c0,11-5.9,15.5-12.1,18c0,0,1.6,0.7,4.3,3.9c2.2,2.5,7.3,12,7.3,12c0.5,0.9,0,2.1-1.2,2.1h-7.5c-0.6,0-1-0.3-1.1-0.6
			c0,0-1.7-4.6-5.1-9.1c-3.4-4.5-9.1-7.1-9.1-7.1h-9.5V53c0,0.7-0.6,1.3-1.3,1.3h-6.5c-0.8,0-1.3-0.6-1.3-1.3L84.4,1.4L84.4,1.4z
			 M108.5,30c8.8,0,11-7.7,11-11.6c0-7.5-7.2-9.8-11-9.8H93.7V30H108.5z"/>
	</g>
	<g>
		<defs>
			<rect id="SVGID_5_" y="0" width="518" height="120"/>
		</defs>
		<clipPath id="SVGID_6_">
			<use xlink:href="#SVGID_5_"  overflow="visible"/>
		</clipPath>
		<path clip-path="url(#SVGID_6_)" fill="#FFFFFF" d="M417.7,37.6h-9.5V53c0,0.7-0.6,1.3-1.3,1.3h-6.5c-0.8,0-1.4-0.6-1.4-1.3V1.4
			c0-0.7,0.6-1.4,1.4-1.4h23.5c8.5,0,18.3,7,18.3,18.4c0,11.9-7.2,16.9-13.4,18.6C427,37.4,417.7,37.6,417.7,37.6 M423,29.3
			c8.8,0,11-7,11-11c0-7.5-7.2-9.8-11-9.8h-14.7v20.8H423z"/>
	</g>
	<g>
		<defs>
			<rect id="SVGID_7_" y="0" width="518" height="120"/>
		</defs>
		<clipPath id="SVGID_8_">
			<use xlink:href="#SVGID_7_"  overflow="visible"/>
		</clipPath>
		<path clip-path="url(#SVGID_8_)" fill="#FFFFFF" d="M168.1,1.4c0-0.7,0.6-1.4,1.3-1.4h6.6c0.7,0,1.4,0.6,1.4,1.4V53
			c0,0.7-0.6,1.3-1.4,1.3h-6.6c-0.7,0-1.3-0.6-1.3-1.3V1.4z"/>
	</g>
	<g>
		<defs>
			<rect id="SVGID_9_" y="0" width="518" height="120"/>
		</defs>
		<clipPath id="SVGID_10_">
			<use xlink:href="#SVGID_9_"  overflow="visible"/>
		</clipPath>
		<path clip-path="url(#SVGID_10_)" fill="#FFFFFF" d="M476.2,1.4c0-0.7,0.6-1.4,1.4-1.4h6.6c0.8,0,1.3,0.6,1.3,1.4v21.9h23.2V1.4
			c0-0.7,0.6-1.4,1.3-1.4h6.6c0.7,0,1.3,0.6,1.3,1.4V53c0,0.7-0.6,1.3-1.3,1.3h-6.6c-0.8,0-1.3-0.6-1.3-1.3V31.9h-23.2V53
			c0,0.7-0.6,1.3-1.3,1.3h-6.6c-0.7,0-1.4-0.6-1.4-1.3L476.2,1.4L476.2,1.4z"/>
	</g>
	<g>
		<defs>
			<rect id="SVGID_11_" y="0" width="518" height="120"/>
		</defs>
		<clipPath id="SVGID_12_">
			<use xlink:href="#SVGID_11_"  overflow="visible"/>
		</clipPath>
		<path clip-path="url(#SVGID_12_)" fill="#FFFFFF" d="M144.5,87.6c0-0.5,0.4-0.9,0.9-0.9h4.4c0.5,0,0.9,0.4,0.9,0.9V100H166V87.6
			c0-0.5,0.4-0.9,0.9-0.9h4.3c0.5,0,0.9,0.4,0.9,0.9v31c0,0.5-0.4,0.9-0.9,0.9h-4.3c-0.5,0-0.9-0.4-0.9-0.9v-12.9h-15.3v12.9
			c0,0.5-0.4,0.9-0.9,0.9h-4.4c-0.5,0-0.9-0.4-0.9-0.9V87.6z"/>
	</g>
	<g>
		<defs>
			<rect id="SVGID_13_" y="0" width="518" height="120"/>
		</defs>
		<clipPath id="SVGID_14_">
			<use xlink:href="#SVGID_13_"  overflow="visible"/>
		</clipPath>
		<path clip-path="url(#SVGID_14_)" fill="#FFFFFF" d="M209.2,86.3c9.4,0,16.9,7.5,16.9,16.9c0,9.4-7.5,16.8-16.9,16.8
			c-9.4,0-16.9-7.4-16.9-16.8C192.4,93.8,199.8,86.3,209.2,86.3 M209.2,113.9c5.9,0,10.8-4.8,10.8-10.7c0-5.9-4.9-10.8-10.8-10.8
			c-5.9,0-10.7,4.9-10.7,10.8C198.5,109.1,203.3,113.9,209.2,113.9"/>
	</g>
	<g>
		<defs>
			<rect id="SVGID_15_" y="0" width="518" height="120"/>
		</defs>
		<clipPath id="SVGID_16_">
			<use xlink:href="#SVGID_15_"  overflow="visible"/>
		</clipPath>
		<path clip-path="url(#SVGID_16_)" fill="#FFFFFF" d="M250.5,92.4h-10.3c-0.5,0-0.9-0.4-0.9-0.9v-3.8c0-0.5,0.4-0.9,0.9-0.9h26.8
			c0.5,0,0.9,0.4,0.9,0.9v3.8c0,0.5-0.4,0.9-0.9,0.9h-10.3v26.3c0,0.5-0.4,0.9-0.9,0.9h-4.4c-0.5,0-0.9-0.4-0.9-0.9L250.5,92.4
			L250.5,92.4z"/>
	</g>
	<g>
		<defs>
			<rect id="SVGID_17_" y="0" width="518" height="120"/>
		</defs>
		<clipPath id="SVGID_18_">
			<use xlink:href="#SVGID_17_"  overflow="visible"/>
		</clipPath>
		<path clip-path="url(#SVGID_18_)" fill="#FFFFFF" d="M283.6,87.6c0-0.5,0.4-0.9,0.9-0.9h20.7c0.5,0,0.9,0.4,0.9,0.9v3.8
			c0,0.5-0.4,0.9-0.9,0.9h-15.5v7.7h11.6c0.5,0,0.9,0.4,0.9,0.9v3.9c0,0.5-0.4,0.9-0.9,0.9h-11.6v8.2h15.5c0.5,0,0.9,0.4,0.9,0.9
			v3.8c0,0.5-0.4,0.9-0.9,0.9h-20.7c-0.5,0-0.9-0.4-0.9-0.9V87.6z"/>
	</g>
	<g>
		<defs>
			<rect id="SVGID_19_" y="0" width="518" height="120"/>
		</defs>
		<clipPath id="SVGID_20_">
			<use xlink:href="#SVGID_19_"  overflow="visible"/>
		</clipPath>
		<path clip-path="url(#SVGID_20_)" fill="#FFFFFF" d="M325.4,87.6c0-0.5,0.4-0.9,0.9-0.9h4.3c0.5,0,0.9,0.4,0.9,0.9v26.3h15.1
			c0.5,0,0.9,0.4,0.9,0.9v3.8c0,0.5-0.4,0.9-0.9,0.9h-20.3c-0.5,0-0.9-0.4-0.9-0.9V87.6z"/>
	</g>
	<g>
		<defs>
			<rect id="SVGID_21_" y="0" width="518" height="120"/>
		</defs>
		<clipPath id="SVGID_22_">
			<use xlink:href="#SVGID_21_"  overflow="visible"/>
		</clipPath>
		<path clip-path="url(#SVGID_22_)" fill="#FFFFFF" d="M361.2,114.9l1.7-2.9c0.4-0.7,1.2-0.7,1.6-0.3c0.2,0.1,3.5,2.6,6.6,2.6
			c2.4,0,4.3-1.6,4.3-3.6c0-2.4-1.5-3.7-5.5-5.3c-4.4-1.8-8.8-4.6-8.8-10.1c0-4.2,3.1-9,10.6-9c4.8,0,8.5,2.4,9.4,3.1
			c0.5,0.3,0.6,1.1,0.3,1.5l-1.8,2.7c-0.4,0.6-1.1,0.9-1.6,0.6c-0.4-0.2-3.3-2.2-5.8-2.2c-2.7,0-4.1,1.8-4.1,3.3
			c0,2.2,1.1,3.3,4.9,4.9c4.6,1.8,9.8,4.6,9.8,10.6c0,4.8-4.2,9.3-10.8,9.3c-5.9,0-9.4-2.8-10.3-3.7
			C361,115.9,360.8,115.7,361.2,114.9"/>
	</g>
	<g>
		<defs>
			<rect id="SVGID_23_" y="0" width="518" height="120"/>
		</defs>
		<clipPath id="SVGID_24_">
			<use xlink:href="#SVGID_23_"  overflow="visible"/>
		</clipPath>
		<path clip-path="url(#SVGID_24_)" fill="#FFFFFF" d="M356.7,0h-6.5c-0.1,0-0.2,0-0.3,0c-0.1,0-0.2,0-0.4,0h-1.1
			c-0.6,0-1,0.3-1.2,0.7l-15.6,25.7h-0.2L315.7,0.7C315.4,0.3,315,0,314.4,0h-1.1c0,0-0.1,0-0.1,0c0,0,0,0,0,0h-6.6
			c-0.7,0-1.4,0.6-1.4,1.4V53c0,0.7,0.6,1.3,1.4,1.3h6.6c0.8,0,1.3-0.6,1.3-1.3V28.7v-8.6V16l15,23.7c0.2,0.4,0.6,0.8,1.2,0.8h1.3
			c0.6,0,1.1-0.3,1.2-0.8c0,0,9.2-14.2,15.6-23.9v4.3v8.6V53c0,0.7,0.6,1.3,1.3,1.3h6.5c0.7,0,1.4-0.6,1.4-1.3V1.4
			C358,0.6,357.4,0,356.7,0"/>
	</g>
	<g>
		<defs>
			<rect id="SVGID_25_" y="0" width="518" height="120"/>
		</defs>
		<clipPath id="SVGID_26_">
			<use xlink:href="#SVGID_25_"  overflow="visible"/>
		</clipPath>
		<path clip-path="url(#SVGID_26_)" fill="#FFFFFF" d="M220.9,1.5c0-0.7,0.6-1.4,1.4-1.4h6.7c0.8,0,1.4,0.6,1.4,1.4v32.1
			c0,6,4.1,12.3,10.3,12.3c0.1,0,5,0,5.1,0c6-0.2,10-6.4,10-12.3V1.5c0-0.7,0.6-1.4,1.3-1.4h6.8c0.7,0,1.4,0.6,1.4,1.4v32.6
			c0,10.7-8.5,21-19.6,21.1c-0.1,0-4.9,0-5,0c-11.2,0-19.8-10.3-19.8-21.1L220.9,1.5L220.9,1.5z"/>
	</g>
	<path fill="#FFFFFF" d="M385.9,115.9c0,2,1.6,3.6,3.6,3.6c2,0,3.6-1.6,3.6-3.6c0-2-1.6-3.6-3.6-3.6
		C387.5,112.3,385.9,113.9,385.9,115.9L385.9,115.9z M386.5,115.9c0-1.7,1.3-3,3-3c1.7,0,3,1.3,3,3c0,1.6-1.3,3-3,3
		C387.8,118.9,386.5,117.5,386.5,115.9L386.5,115.9z M388.2,117.5c0,0.1,0.1,0.2,0.2,0.2h0.3c0.1,0,0.2-0.1,0.2-0.2v-1.2h0.7
		l0.6,1.3c0,0.1,0.1,0.1,0.2,0.1h0.3c0.1,0,0.2-0.2,0.2-0.3c-0.2-0.4-0.4-0.8-0.6-1.2c0.3-0.1,0.8-0.3,0.8-1.1
		c0-0.7-0.6-1.1-1.2-1.1h-1.4c-0.1,0-0.2,0.1-0.2,0.2V117.5L388.2,117.5z M388.8,115.7v-1.1h1c0.4,0,0.6,0.2,0.6,0.6
		c0,0.3-0.2,0.6-0.6,0.6H388.8L388.8,115.7z"/>
</g>
</svg>
