<?xml version="1.0" encoding="utf-8"?>
<!-- Generator: Adobe Illustrator 21.0.0, SVG Export Plug-In . SVG Version: 6.00 Build 0)  -->
<svg version="1.1" id="Layer_1" xmlns="http://www.w3.org/2000/svg" xmlns:xlink="http://www.w3.org/1999/xlink" x="0px" y="0px"
	 viewBox="0 0 201 127.2" style="enable-background:new 0 0 201 127.2;" xml:space="preserve">
<style type="text/css">
	.st0{clip-path:url(#SVGID_2_);fill:#A58D62;}
	.st1{clip-path:url(#SVGID_4_);fill:#A58D62;}
	.st2{clip-path:url(#SVGID_6_);fill:#A58D62;}
	.st3{clip-path:url(#SVGID_8_);fill:#A58D62;}
	.st4{clip-path:url(#SVGID_10_);fill:#A58D62;}
	.st5{clip-path:url(#SVGID_12_);fill:#A58D62;}
	.st6{clip-path:url(#SVGID_14_);fill:#A58D62;}
	.st7{clip-path:url(#SVGID_16_);fill:#A58D62;}
	.st8{clip-path:url(#SVGID_18_);fill:#A58D62;}
	.st9{clip-path:url(#SVGID_20_);fill:#A58D62;}
	.st10{clip-path:url(#SVGID_22_);fill:#A58D62;}
	.st11{clip-path:url(#SVGID_24_);fill:#A58D62;}
	.st12{clip-path:url(#SVGID_26_);fill:#A58D62;}
	.st13{clip-path:url(#SVGID_28_);fill:#A58D62;}
	.st14{fill:#A58D62;}
</style>
<g>
	<g>
		<g>
			<defs>
				<rect id="SVGID_1_" width="201" height="122"/>
			</defs>
			<clipPath id="SVGID_2_">
				<use xlink:href="#SVGID_1_"  style="overflow:visible;"/>
			</clipPath>
			<path class="st0" d="M7.3,79H0.5C0.2,79,0,78.7,0,78.4v-2.2c0-0.3,0.2-0.5,0.5-0.5h17.2c0.3,0,0.5,0.2,0.5,0.5v2.2
				c0,0.3-0.2,0.5-0.5,0.5H11v17.2c0,0.3-0.3,0.5-0.5,0.5H7.9c-0.3,0-0.5-0.2-0.5-0.5L7.3,79L7.3,79z"/>
		</g>
	</g>
	<g>
		<g>
			<defs>
				<rect id="SVGID_3_" width="201" height="122"/>
			</defs>
			<clipPath id="SVGID_4_">
				<use xlink:href="#SVGID_3_"  style="overflow:visible;"/>
			</clipPath>
			<path class="st1" d="M32.8,76.2c0-0.3,0.2-0.5,0.5-0.5h9.1c3.3,0,7.1,2.7,7.1,7.1c0,4.3-2.3,6-4.7,6.9c0,0,0.6,0.3,1.7,1.5
				c0.8,1,2.8,4.6,2.8,4.6c0.2,0.4,0,0.8-0.5,0.8h-2.9c-0.2,0-0.4-0.1-0.4-0.2c0,0-0.7-1.8-2-3.5S40,90.2,40,90.2h-3.7v6
				c0,0.3-0.2,0.5-0.5,0.5h-2.5c-0.3,0-0.5-0.2-0.5-0.5C32.8,96.2,32.8,76.2,32.8,76.2z M42.1,87.2c3.4,0,4.3-3,4.3-4.5
				c0-2.9-2.8-3.8-4.3-3.8h-5.7v8.3H42.1z"/>
		</g>
	</g>
	<g>
		<g>
			<defs>
				<rect id="SVGID_5_" width="201" height="122"/>
			</defs>
			<clipPath id="SVGID_6_">
				<use xlink:href="#SVGID_5_"  style="overflow:visible;"/>
			</clipPath>
			<path class="st2" d="M162.1,90.2h-3.7v6c0,0.3-0.2,0.5-0.5,0.5h-2.5c-0.3,0-0.5-0.2-0.5-0.5v-20c0-0.3,0.2-0.5,0.5-0.5h9.1
				c3.3,0,7.1,2.7,7.1,7.1c0,4.6-2.8,6.5-5.2,7.2C165.7,90.1,162.1,90.2,162.1,90.2 M164.1,87c3.4,0,4.3-2.7,4.3-4.2
				c0-2.9-2.8-3.8-4.3-3.8h-5.7v8H164.1L164.1,87z"/>
		</g>
	</g>
	<g>
		<g>
			<defs>
				<rect id="SVGID_7_" width="201" height="122"/>
			</defs>
			<clipPath id="SVGID_8_">
				<use xlink:href="#SVGID_7_"  style="overflow:visible;"/>
			</clipPath>
			<path class="st3" d="M65.2,76.2c0-0.3,0.2-0.5,0.5-0.5h2.6c0.3,0,0.5,0.2,0.5,0.5v19.9c0,0.3-0.3,0.5-0.5,0.5h-2.6
				c-0.3,0-0.5-0.2-0.5-0.5V76.2z"/>
		</g>
	</g>
	<g>
		<g>
			<defs>
				<rect id="SVGID_9_" width="201" height="122"/>
			</defs>
			<clipPath id="SVGID_10_">
				<use xlink:href="#SVGID_9_"  style="overflow:visible;"/>
			</clipPath>
			<path class="st4" d="M184.8,76.2c0-0.3,0.2-0.5,0.5-0.5h2.6c0.3,0,0.5,0.2,0.5,0.5v8.5h9v-8.5c0-0.3,0.2-0.5,0.5-0.5h2.5
				c0.3,0,0.5,0.2,0.5,0.5v19.9c0,0.3-0.2,0.5-0.5,0.5h-2.5c-0.3,0-0.5-0.2-0.5-0.5V88h-9v8.2c0,0.3-0.2,0.5-0.5,0.5h-2.6
				c-0.3,0-0.5-0.2-0.5-0.5V76.2z"/>
		</g>
	</g>
	<g>
		<g>
			<defs>
				<rect id="SVGID_11_" width="201" height="122"/>
			</defs>
			<clipPath id="SVGID_12_">
				<use xlink:href="#SVGID_11_"  style="overflow:visible;"/>
			</clipPath>
			<path class="st5" d="M56.1,109.5c0-0.2,0.2-0.3,0.3-0.3h1.7c0.2,0,0.3,0.2,0.3,0.3v4.8h5.9v-4.8c0-0.2,0.1-0.3,0.3-0.3h1.7
				c0.2,0,0.3,0.2,0.3,0.3v12c0,0.2-0.2,0.3-0.3,0.3h-1.7c-0.2,0-0.3-0.2-0.3-0.3v-5h-5.9v5c0,0.2-0.1,0.3-0.3,0.3h-1.7
				c-0.2,0-0.3-0.2-0.3-0.3C56.1,121.5,56.1,109.5,56.1,109.5z"/>
		</g>
	</g>
	<g>
		<g>
			<defs>
				<rect id="SVGID_13_" width="201" height="122"/>
			</defs>
			<clipPath id="SVGID_14_">
				<use xlink:href="#SVGID_13_"  style="overflow:visible;"/>
			</clipPath>
			<path class="st6" d="M81.2,109c3.7,0,6.6,2.9,6.6,6.5s-2.9,6.5-6.6,6.5c-3.6,0-6.5-2.9-6.5-6.5C74.6,111.9,77.5,109,81.2,109
				 M81.2,119.6c2.3,0,4.2-1.9,4.2-4.1c0-2.3-1.9-4.2-4.2-4.2c-2.3,0-4.2,1.9-4.2,4.2C77,117.8,78.9,119.6,81.2,119.6"/>
		</g>
	</g>
	<g>
		<g>
			<defs>
				<rect id="SVGID_15_" width="201" height="122"/>
			</defs>
			<clipPath id="SVGID_16_">
				<use xlink:href="#SVGID_15_"  style="overflow:visible;"/>
			</clipPath>
			<path class="st7" d="M97.2,111.3h-4c-0.2,0-0.3-0.2-0.3-0.3v-1.5c0-0.2,0.1-0.3,0.3-0.3h10.4c0.2,0,0.3,0.2,0.3,0.3v1.5
				c0,0.2-0.1,0.3-0.3,0.3h-4v10.1c0,0.2-0.2,0.3-0.3,0.3h-1.7c-0.2,0-0.4-0.2-0.4-0.3V111.3L97.2,111.3z"/>
		</g>
	</g>
	<g>
		<g>
			<defs>
				<rect id="SVGID_17_" width="201" height="122"/>
			</defs>
			<clipPath id="SVGID_18_">
				<use xlink:href="#SVGID_17_"  style="overflow:visible;"/>
			</clipPath>
			<path class="st8" d="M110.1,109.5c0-0.2,0.1-0.3,0.3-0.3h8c0.2,0,0.3,0.2,0.3,0.3v1.5c0,0.2-0.1,0.3-0.3,0.3h-6v3h4.5
				c0.2,0,0.3,0.2,0.3,0.3v1.5c0,0.2-0.2,0.3-0.3,0.3h-4.5v3.2h6c0.2,0,0.3,0.2,0.3,0.3v1.5c0,0.2-0.1,0.3-0.3,0.3h-8
				c-0.2,0-0.3-0.2-0.3-0.3V109.5z"/>
		</g>
	</g>
	<g>
		<g>
			<defs>
				<rect id="SVGID_19_" width="201" height="122"/>
			</defs>
			<clipPath id="SVGID_20_">
				<use xlink:href="#SVGID_19_"  style="overflow:visible;"/>
			</clipPath>
			<path class="st9" d="M126.2,109.5c0-0.2,0.1-0.3,0.3-0.3h1.7c0.2,0,0.3,0.2,0.3,0.3v10.1h5.9c0.2,0,0.3,0.2,0.3,0.3v1.5
				c0,0.2-0.1,0.3-0.3,0.3h-7.9c-0.2,0-0.3-0.2-0.3-0.3C126.2,121.4,126.2,109.5,126.2,109.5z"/>
		</g>
	</g>
	<g>
		<g>
			<defs>
				<rect id="SVGID_21_" width="201" height="122"/>
			</defs>
			<clipPath id="SVGID_22_">
				<use xlink:href="#SVGID_21_"  style="overflow:visible;"/>
			</clipPath>
			<path class="st10" d="M140.2,120l0.7-1.1c0.1-0.3,0.5-0.3,0.6-0.1c0.1,0,1.4,1,2.6,1c0.9,0,1.7-0.6,1.7-1.4c0-0.9-0.6-1.4-2.1-2
				c-1.7-0.7-3.4-1.8-3.4-3.9c0-1.6,1.2-3.5,4.1-3.5c1.9,0,3.3,0.9,3.6,1.2c0.2,0.1,0.2,0.4,0.1,0.6l-0.7,1
				c-0.1,0.2-0.4,0.4-0.6,0.2c-0.1-0.1-1.3-0.9-2.3-0.9s-1.6,0.7-1.6,1.3c0,0.8,0.4,1.3,1.9,1.9c1.8,0.7,3.8,1.8,3.8,4.1
				c0,1.9-1.6,3.6-4.2,3.6c-2.3,0-3.6-1.1-4-1.4C140.1,120.4,140,120.3,140.2,120"/>
		</g>
	</g>
	<g>
		<g>
			<defs>
				<rect id="SVGID_23_" width="201" height="122"/>
			</defs>
			<clipPath id="SVGID_24_">
				<use xlink:href="#SVGID_23_"  style="overflow:visible;"/>
			</clipPath>
			<path class="st11" d="M138.4,75.7h-2.5h-0.1h-0.1h-0.4c-0.2,0-0.4,0.1-0.5,0.3l-6.1,9.9h-0.1l-6.1-9.9c-0.1-0.2-0.2-0.3-0.5-0.3
				h-0.4l0,0l0,0H119c-0.3,0-0.5,0.2-0.5,0.5v19.9c0,0.3,0.2,0.5,0.5,0.5h2.6c0.3,0,0.5-0.2,0.5-0.5v-9.4v-3.3v-1.6l5.8,9.2
				c0.1,0.2,0.2,0.3,0.5,0.3h0.5c0.2,0,0.4-0.1,0.5-0.3c0,0,3.6-5.5,6-9.2v1.7v3.3v9.4c0,0.3,0.2,0.5,0.5,0.5h2.5
				c0.3,0,0.5-0.2,0.5-0.5v-20C138.9,75.9,138.7,75.7,138.4,75.7"/>
		</g>
	</g>
	<g>
		<g>
			<defs>
				<rect id="SVGID_25_" width="201" height="122"/>
			</defs>
			<clipPath id="SVGID_26_">
				<use xlink:href="#SVGID_25_"  style="overflow:visible;"/>
			</clipPath>
			<path class="st12" d="M85.7,76.2c0-0.3,0.3-0.5,0.5-0.5h2.6c0.3,0,0.5,0.2,0.5,0.5v12.4c0,2.3,1.6,4.8,4,4.8c0.1,0,1.9,0,2,0
				c2.3-0.1,3.9-2.5,3.9-4.7V76.2c0-0.3,0.2-0.5,0.5-0.5h2.6c0.3,0,0.5,0.2,0.5,0.5v12.6c0,4.1-3.3,8.1-7.6,8.1h-1.9
				c-4.3,0-7.7-4-7.7-8.1L85.7,76.2L85.7,76.2z"/>
		</g>
	</g>
	<g>
		<g>
			<defs>
				<rect id="SVGID_27_" width="201" height="122"/>
			</defs>
			<clipPath id="SVGID_28_">
				<use xlink:href="#SVGID_27_"  style="overflow:visible;"/>
			</clipPath>
			<path class="st13" d="M110.5,11.3c0-3.3-3.1-6.1-7.3-6.9c0.2-0.4,0.4-0.9,0.4-1.4c0-1.6-1.3-2.9-2.9-2.9S97.8,1.4,97.8,3
				c0,0.6,0.2,1.1,0.4,1.5c-4,0.9-7,3.6-7,6.9c0,3.6,3.7,6.6,8.4,7.1v1.3c-0.5,0-0.9,0.4-0.9,0.9s0.4,0.9,0.9,0.9v0.8
				c-0.5,0-0.9,0.4-0.9,0.9s0.4,0.9,0.9,0.9V41c-0.5,0-0.9,0.4-0.9,0.9s0.4,0.9,0.9,0.9v1.7h-4.2c-0.3,0-0.5,0.2-0.5,0.5v1
				c0,0.3,0.2,0.5,0.5,0.5h4.2v1.3h-1c-0.3,0-0.5,0.2-0.5,0.5v3.5h-1.7v-3.5c0-0.3-0.2-0.5-0.5-0.5h-0.5c-0.3,0-0.5,0.2-0.5,0.5v4.9
				c0,0.3,0.2,0.5,0.5,0.5l0,0h4.2v2c0,0.7,0.6,1.3,1.3,1.3c0.7,0,1.3-0.6,1.3-1.3v-2h4.2l0,0c0.3,0,0.5-0.2,0.5-0.5v-1
				c0-0.3-0.2-0.5-0.5-0.5h-1.1v-1.5c0-0.3-0.2-0.5-0.5-0.5h-0.5c-0.3,0-0.5,0.2-0.5,0.5l0,0v1.5h-1.6v-5.3h1.6V48l0,0
				c0,0.3,0.2,0.5,0.5,0.5h0.5c0.3,0,0.5-0.2,0.5-0.5v-1.5h1.1c0.3,0,0.5-0.2,0.5-0.5v-1c0-0.3-0.2-0.5-0.5-0.5h-4.2v-1.7
				c0.5,0,0.9-0.4,0.9-0.9s-0.4-0.9-0.9-0.9V24.2c0.5,0,0.9-0.4,0.9-0.9s-0.4-0.9-0.9-0.9v-0.8c0.5,0,0.9-0.4,0.9-0.9
				s-0.4-0.9-0.9-0.9v-1.3C106.9,17.9,110.5,14.9,110.5,11.3 M100.7,1.7c0.7,0,1.2,0.5,1.2,1.2s-0.5,1.2-1.2,1.2s-1.2-0.5-1.2-1.2
				C99.5,2.3,100,1.7,100.7,1.7 M93.6,11.3c0-2.2,1.8-4.1,4.5-4.9c1.7-0.2,2.7,0.6,2.7,0.6l0,0c0,0,1-0.8,2.8-0.6
				c2.6,0.8,4.4,2.7,4.4,4.9s-1.8,4.1-4.4,4.9c-1.8,0.3-2.8-0.6-2.8-0.6l0,0c0,0-1,0.8-2.7,0.6C95.4,15.4,93.6,13.5,93.6,11.3"/>
		</g>
	</g>
</g>
<path class="st14" d="M161.3,120.7v-2h1.7c0.6-0.1,1.1,0.4,1.1,0.9c0,0.1,0,0.1,0,0.2c0,0.6-0.5,1-1,1c0,0,0,0-0.1,0H161.3z
	 M160.2,123.8c0,0.2,0.2,0.3,0.3,0.3l0,0h0.5c0.2,0,0.3-0.2,0.3-0.3l0,0v-2.2h1.4l1,2.2c0.1,0.1,0.2,0.2,0.3,0.3h0.6
	c0.2,0,0.4-0.1,0.4-0.3c0-0.1,0-0.1,0-0.2l-1.1-2.1c0.9-0.2,1.6-1.1,1.5-1.9c0-1.2-0.9-2-2-2c-0.1,0-0.1,0-0.2,0h-2.4
	c-0.2,0-0.3,0.2-0.3,0.3l0,0L160.2,123.8L160.2,123.8z M157.1,120.7c0-3,2.4-5.4,5.4-5.4s5.4,2.4,5.4,5.4s-2.4,5.4-5.4,5.4l0,0
	C159.5,126.1,157.1,123.8,157.1,120.7C157.1,120.8,157.1,120.8,157.1,120.7 M156,120.7c0,3.6,2.9,6.5,6.5,6.5s6.5-2.9,6.5-6.5
	c0-3.6-2.9-6.5-6.5-6.5S156,117.2,156,120.7L156,120.7"/>
</svg>
