<?xml version="1.0" encoding="utf-8"?>
<!-- Generator: Adobe Illustrator 19.2.1, SVG Export Plug-In . SVG Version: 6.00 Build 0)  -->
<svg version="1.1" id="Layer_1" xmlns="http://www.w3.org/2000/svg" xmlns:xlink="http://www.w3.org/1999/xlink" x="0px" y="0px"
	 width="135px" height="215.2px" viewBox="0 0 135 215.2" style="enable-background:new 0 0 135 215.2;" xml:space="preserve">
<style type="text/css">
	.st0{clip-path:url(#SVGID_2_);fill:#A58E60;}
	.st1{fill:#FFFFFF;}
	.st2{fill:#173057;}
	.st3{fill:#E2C68C;}
	.st4{clip-path:url(#SVGID_4_);fill:#FFFFFF;}
	.st5{display:none;}
	.st6{display:inline;}
	.st7{clip-path:url(#SVGID_6_);fill:#DC5442;}
	.st8{clip-path:url(#SVGID_8_);fill:#DC5442;}
	.st9{clip-path:url(#SVGID_10_);fill:#DC5442;}
	.st10{clip-path:url(#SVGID_12_);fill:#36609F;}
	.st11{clip-path:url(#SVGID_14_);fill:#2CAAE1;}
	.st12{fill:#E2C58B;}
	.st13{fill:#A7905E;}
	.st14{display:none;fill:#FFFFFF;}
	.st15{fill:#86754D;}
	.st16{fill:#163157;}
	.st17{fill:#183259;}
</style>
<g>
	<g>
		<g>
			<g>
				<g>
					<g>
						<g>
							<g>
								<g>
									<defs>
										<rect id="SVGID_1_" x="1" width="51" height="17"/>
									</defs>
									<clipPath id="SVGID_2_">
										<use xlink:href="#SVGID_1_"  style="overflow:visible;"/>
									</clipPath>
									<path class="st0" d="M11.1,0c-3,0-5.5,2.7-6.2,6.4C4.5,6.2,4.1,6.1,3.6,6.1C2.2,6.1,1,7.2,1,8.6s1.2,2.6,2.6,2.6
										c0.5,0,0.9-0.1,1.3-0.4C5.7,14.4,8.1,17,11,17c3.3,0,5.9-3.2,6.3-7.4h1.2c0,0.5,0.4,0.8,0.8,0.8c0.5,0,0.8-0.4,0.8-0.8h0.7
										c0,0.5,0.4,0.8,0.8,0.8s0.8-0.4,0.8-0.8h15c0,0.5,0.4,0.8,0.8,0.8c0.5,0,0.8-0.4,0.8-0.8h1.5v3.7c0,0.2,0.2,0.4,0.4,0.4
										h0.9c0.2,0,0.4-0.2,0.4-0.4V9.6h1.2v0.9c0,0.2,0.2,0.4,0.4,0.4h3.1v1.5h-3.1c-0.2,0-0.4,0.2-0.4,0.4v0.4
										c0,0.2,0.2,0.4,0.4,0.4h4.4c0.2,0,0.4-0.2,0.4-0.4l0,0V9.6h1.8c0.7,0,1.2-0.5,1.2-1.2c0-0.6-0.5-1.2-1.2-1.2h-1.8V3.6l0,0
										c0-0.2-0.2-0.4-0.4-0.4h-0.9c-0.2,0-0.4,0.2-0.4,0.4v1H46c-0.2,0-0.4,0.2-0.4,0.4v0.4c0,0.2,0.2,0.4,0.4,0.4l0,0h1.3v1.4
										h-4.7V5.9h1.3l0,0c0.2,0,0.4-0.2,0.4-0.4V5c0-0.2-0.2-0.4-0.4-0.4h-1.3v-1c0-0.2-0.2-0.4-0.4-0.4h-0.9
										c-0.2,0-0.4,0.2-0.4,0.4v3.7h-1.5c0-0.5-0.4-0.8-0.8-0.8c-0.5,0-0.8,0.4-0.8,0.8h-15c0-0.5-0.4-0.8-0.8-0.8
										s-0.8,0.4-0.8,0.8h-0.7c0-0.5-0.4-0.8-0.8-0.8c-0.5,0-0.8,0.4-0.8,0.8h-1.2C16.9,3.2,14.3,0,11.1,0 M2.5,8.6
										c0-0.6,0.5-1,1.1-1s1.1,0.5,1.1,1c0,0.6-0.5,1-1.1,1C3,9.7,2.5,9.2,2.5,8.6 M11.1,14.9c-2,0-3.7-1.6-4.4-3.9
										C6.5,9.4,7.2,8.5,7.2,8.5l0,0c0,0-0.8-0.9-0.5-2.5c0.7-2.3,2.4-3.9,4.4-3.9s3.6,1.6,4.4,3.9C15.7,7.6,15,8.5,15,8.5l0,0
										c0,0,0.7,0.9,0.5,2.4C14.7,13.2,13.1,14.9,11.1,14.9"/>
								</g>
							</g>
						</g>
					</g>
				</g>
			</g>
		</g>
	</g>
</g>
<g>
	<g>
		<polygon class="st1" points="10,35.7 9.3,35 5.5,38.8 1.7,35 1,35.7 4.8,39.5 1,43.3 1.7,44 5.5,40.2 9.3,44 10,43.3 6.2,39.5 		
			"/>
	</g>
</g>
<g>
	<g>
		<polygon class="st2" points="27,35.7 26.3,35 22.5,38.8 18.7,35 18,35.7 21.8,39.5 18,43.3 18.7,44 22.5,40.2 26.3,44 27,43.3 
			23.2,39.5 		"/>
	</g>
</g>
<path class="st3" d="M50.9,33.7L46.8,39l4.1,5.4L49.8,45L45,39.1v-0.2l4.8-5.9L50.9,33.7z M57,33.7L52.9,39l4.1,5.4L55.9,45
	l-4.8-5.9v-0.2l4.8-5.9L57,33.7z"/>
<path class="st3" d="M80.1,44.3l4.1-5.3l-4.1-5.4l1.1-0.7l4.8,5.9V39l-4.8,6L80.1,44.3z M74,44.3l4.1-5.3L74,33.7l1.1-0.7l4.8,5.9
	v0.2L75.1,45L74,44.3z"/>
<path class="st1" d="M50.9,57.7L46.8,63l4.1,5.4L49.8,69L45,63.1v-0.2l4.8-5.9L50.9,57.7z M57,57.7L52.9,63l4.1,5.4L55.9,69
	l-4.8-5.9v-0.2l4.8-5.9L57,57.7z"/>
<path class="st1" d="M80.1,68.3l4.1-5.3l-4.1-5.4l1.1-0.7l4.8,5.9V63l-4.8,6L80.1,68.3z M74,68.3l4.1-5.3L74,57.7l1.1-0.7l4.8,5.9
	v0.2L75.1,69L74,68.3z"/>
<g>
	<g>
		<g>
			<g>
				<g>
					<g>
						<g>
							<g>
								<g>
									<defs>
										<rect id="SVGID_3_" x="61" width="51" height="17"/>
									</defs>
									<clipPath id="SVGID_4_">
										<use xlink:href="#SVGID_3_"  style="overflow:visible;"/>
									</clipPath>
									<path class="st4" d="M71.1,0c-3,0-5.5,2.7-6.2,6.4C64.5,6.2,64.1,6,63.6,6C62.2,6,61,7.2,61,8.6s1.2,2.6,2.6,2.6
										c0.5,0,0.9-0.1,1.3-0.4c0.8,3.6,3.2,6.2,6.1,6.2c3.3,0,5.9-3.2,6.3-7.4h1.2c0,0.5,0.4,0.8,0.8,0.8c0.5,0,0.8-0.4,0.8-0.8
										h0.7c0,0.5,0.4,0.8,0.8,0.8s0.8-0.4,0.8-0.8h15c0,0.5,0.4,0.8,0.8,0.8c0.5,0,0.8-0.4,0.8-0.8h1.5v3.7
										c0,0.2,0.2,0.4,0.4,0.4h0.9c0.2,0,0.4-0.2,0.4-0.4V9.6h1.2v0.9c0,0.2,0.2,0.4,0.4,0.4h3.1v1.5h-3.1c-0.2,0-0.4,0.2-0.4,0.4
										v0.4c0,0.2,0.2,0.4,0.4,0.4h4.4c0.2,0,0.4-0.2,0.4-0.4l0,0V9.6h1.8c0.6,0,1.2-0.5,1.2-1.2c0-0.6-0.5-1.2-1.2-1.2h-1.8V3.6
										l0,0c0-0.2-0.2-0.4-0.4-0.4h-0.9c-0.2,0-0.4,0.2-0.4,0.4v1H106c-0.2,0-0.4,0.2-0.4,0.4v0.4c0,0.2,0.2,0.4,0.4,0.4l0,0h1.3
										v1.4h-4.7V5.9h1.3l0,0c0.2,0,0.4-0.2,0.4-0.4V5c0-0.2-0.2-0.4-0.4-0.4h-1.3v-1c0-0.2-0.2-0.4-0.4-0.4h-0.9
										c-0.2,0-0.4,0.2-0.4,0.4v3.7h-1.5c0-0.5-0.4-0.8-0.8-0.8c-0.5,0-0.8,0.4-0.8,0.8h-15c0-0.5-0.4-0.8-0.8-0.8
										c-0.5,0-0.8,0.4-0.8,0.8h-0.7c0-0.5-0.4-0.8-0.8-0.8c-0.5,0-0.8,0.4-0.8,0.8h-1.2C76.9,3.2,74.3,0,71.1,0 M62.5,8.6
										c0-0.6,0.5-1,1.1-1s1.1,0.5,1.1,1c0,0.6-0.5,1-1.1,1C63,9.7,62.5,9.2,62.5,8.6 M71.1,14.9c-2,0-3.7-1.6-4.4-3.9
										c-0.2-1.5,0.5-2.4,0.5-2.4l0,0c0,0-0.8-0.9-0.5-2.5c0.7-2.3,2.4-3.9,4.4-3.9s3.6,1.6,4.4,3.9C75.7,7.7,75,8.6,75,8.6l0,0
										c0,0,0.7,0.9,0.5,2.4C74.7,13.2,73.1,14.9,71.1,14.9"/>
								</g>
							</g>
						</g>
					</g>
				</g>
			</g>
		</g>
	</g>
</g>
<polygon class="st1" points="127.5,89.3 131,93.3 134.5,89.4 "/>
<g class="st5">
	<g class="st6">
		<g>
			<g>
				<g>
					<g>
						<g>
							<g>
								<g>
									<defs>
										<rect id="SVGID_5_" x="1" y="110" width="20" height="20"/>
									</defs>
									<clipPath id="SVGID_6_">
										<use xlink:href="#SVGID_5_"  style="overflow:visible;"/>
									</clipPath>
									<path class="st7" d="M9,115.5c-0.8,0-1.3,0.8-1.2,1.8c0.1,1,0.9,1.8,1.7,1.8s1.2-0.6,1.1-1.7C10.4,116.4,9.8,115.5,9,115.5
										"/>
								</g>
							</g>
						</g>
					</g>
				</g>
			</g>
		</g>
	</g>
	<g class="st6">
		<g>
			<g>
				<g>
					<g>
						<g>
							<g>
								<g>
									<defs>
										<rect id="SVGID_7_" x="1" y="110" width="20" height="20"/>
									</defs>
									<clipPath id="SVGID_8_">
										<use xlink:href="#SVGID_7_"  style="overflow:visible;"/>
									</clipPath>
									<path class="st8" d="M9.3,121.2c-1.2,0-2.2,0.7-2.2,1.6s0.9,1.6,2,1.6c1.7,0,2.2-0.7,2.2-1.6c0-0.1,0-0.2,0-0.3
										c-0.1-0.5-0.6-0.8-1.3-1.2C9.8,121.3,9.6,121.2,9.3,121.2"/>
								</g>
							</g>
						</g>
					</g>
				</g>
			</g>
		</g>
	</g>
	<g class="st6">
		<g>
			<g>
				<g>
					<g>
						<g>
							<g>
								<g>
									<defs>
										<rect id="SVGID_9_" x="1" y="110" width="20" height="20"/>
									</defs>
									<clipPath id="SVGID_10_">
										<use xlink:href="#SVGID_9_"  style="overflow:visible;"/>
									</clipPath>
									<path class="st9" d="M11,110c-5.5,0-10,4.5-10,10s4.5,10,10,10s10-4.5,10-10S16.5,110,11,110 M11.8,117.4
										c0,0.7-0.4,1.2-0.9,1.6s-0.6,0.6-0.6,0.9s0.6,0.7,0.9,0.9c1,0.7,1.1,1.2,1.1,2.1c0,1.1-1.2,2.2-3.2,2.2
										c-1.7,0-3.2-0.7-3.2-1.8c0-1.1,1.2-2.3,2.9-2.3c0.2,0,0.4,0,0.5,0c-0.2-0.2-0.4-0.4-0.4-0.8c0-0.2,0.1-0.4,0.2-0.6
										c-0.1,0-0.2,0-0.3,0c-1.4,0-2.2-1-2.2-2.2s1.2-2.3,2.7-2.3h2.9l-0.7,0.7h-0.8C11.5,116,11.8,116.6,11.8,117.4 M16,117.2
										h-1.4v1.4H14v-1.4h-1.4v-0.7H14v-1.4h0.7v1.4H16V117.2z"/>
								</g>
							</g>
						</g>
					</g>
				</g>
			</g>
		</g>
	</g>
</g>
<g class="st5">
	<g class="st6">
		<g>
			<g>
				<g>
					<g>
						<g>
							<g>
								<g>
									<defs>
										<rect id="SVGID_11_" x="23" y="110" width="20" height="20"/>
									</defs>
									<clipPath id="SVGID_12_">
										<use xlink:href="#SVGID_11_"  style="overflow:visible;"/>
									</clipPath>
									<path class="st10" d="M33,110c-5.5,0-10,4.5-10,10s4.5,10,10,10s10-4.5,10-10S38.5,110,33,110 M35.1,120h-1.4v5h-2.1v-5h-1
										v-1.8h1v-1.1c0-0.8,0.4-2.1,2.1-2.1h1.5v1.7h-1.1c-0.2,0-0.4,0.1-0.4,0.5v1h1.6L35.1,120z"/>
								</g>
							</g>
						</g>
					</g>
				</g>
			</g>
		</g>
	</g>
</g>
<g class="st5">
	<g class="st6">
		<g>
			<g>
				<g>
					<g>
						<g>
							<g>
								<g>
									<defs>
										<rect id="SVGID_13_" x="46" y="110" width="20" height="20"/>
									</defs>
									<clipPath id="SVGID_14_">
										<use xlink:href="#SVGID_13_"  style="overflow:visible;"/>
									</clipPath>
									<path class="st11" d="M56,110c-5.5,0-10,4.5-10,10s4.5,10,10,10s10-4.5,10-10S61.5,110,56,110 M60,118c0,0.1,0,0.2,0,0.3
										c0,2.7-2.1,5.8-5.8,5.8c-1.2,0-2.2-0.3-3.1-0.9c0.2,0,0.3,0,0.5,0c1,0,1.8-0.3,2.5-0.9c-0.9,0-1.7-0.6-1.9-1.4
										c0.1,0,0.3,0,0.4,0c0.2,0,0.4,0,0.5-0.1c-0.9-0.2-1.6-1-1.6-2l0,0c0.3,0.2,0.6,0.2,0.9,0.3c-0.6-0.4-0.9-1-0.9-1.7
										c0-0.4,0.1-0.7,0.3-1c1,1.2,2.5,2.1,4.2,2.1c0-0.1-0.1-0.3-0.1-0.5c0-1.1,0.9-2.1,2.1-2.1c0.6,0,1.1,0.2,1.5,0.6
										c0.5-0.1,0.9-0.3,1.3-0.5c-0.2,0.5-0.5,0.9-0.9,1.1c0.4,0,0.8-0.2,1.2-0.3C60.7,117.3,60.4,117.7,60,118"/>
								</g>
							</g>
						</g>
					</g>
				</g>
			</g>
		</g>
	</g>
</g>
<path class="st2" d="M101.7,125v-5h1.4l0.2-1.8h-1.6v-1c0-0.4,0.3-0.5,0.4-0.5h1.1V115h-1.5c-1.7,0-2.1,1.3-2.1,2.1v1.1h-1v1.8h1v5
	H101.7z"/>
<path class="st2" d="M128,116.9c-0.4,0.2-0.8,0.3-1.2,0.3c0.4-0.3,0.7-0.7,0.9-1.1c-0.4,0.2-0.8,0.4-1.3,0.5
	c-0.4-0.4-0.9-0.6-1.5-0.6c-1.1,0-2.1,0.9-2.1,2.1c0,0.2,0,0.3,0.1,0.5c-1.7-0.1-3.2-0.9-4.2-2.1c-0.2,0.3-0.3,0.7-0.3,1
	c0,0.7,0.4,1.3,0.9,1.7c-0.3,0-0.7-0.1-0.9-0.3l0,0c0,1,0.7,1.8,1.6,2c-0.2,0-0.4,0.1-0.5,0.1s-0.3,0-0.4,0c0.3,0.8,1,1.4,1.9,1.4
	c-0.7,0.6-1.6,0.9-2.5,0.9c-0.2,0-0.3,0-0.5,0c0.9,0.6,2,0.9,3.1,0.9c3.8,0,5.8-3.1,5.8-5.8c0-0.1,0-0.2,0-0.3
	C127.4,117.7,127.7,117.3,128,116.9z"/>
<path class="st12" d="M125,6h-3V3h3V6z M126,3h-1v1h1V3z M123,6h-1v1h1V6z M126,5h-1v3h1V5z M127,6h-3v1h3V6z M125,15h-3v-3h3V15z
	 M126,14h-1v1h1V14z M123,11h-1v1h1V11z M126,10h-1v3h1V10z M127,11h-3v1h3V11z M131,3h3v3h-3V3z M130,4h1V3h-1V4z M133,7h1V6h-1V7z
	 M130,8h1V5h-1V8z M129,7h3V6h-3V7z M131,12h3v3h-3V12z M130,15h1v-1h-1V15z M133,12h1v-1h-1V12z M130,13h1v-3h-1V13z M129,12h3v-1
	h-3V12z"/>
<path class="st1" d="M125,24h-3v-3h3V24z M126,21h-1v1h1V21z M123,24h-1v1h1V24z M126,23h-1v3h1V23z M127,24h-3v1h3V24z M125,33h-3
	v-3h3V33z M126,32h-1v1h1V32z M123,29h-1v1h1V29z M126,28h-1v3h1V28z M127,29h-3v1h3V29z M131,21h3v3h-3V21z M130,22h1v-1h-1V22z
	 M133,25h1v-1h-1V25z M130,26h1v-3h-1V26z M129,25h3v-1h-3V25z M131,30h3v3h-3V30z M130,33h1v-1h-1V33z M133,30h1v-1h-1V30z M130,31
	h1v-3h-1V31z M129,30h3v-1h-3V30z"/>
<polygon class="st13" points="116,147 119.5,151 123,147 "/>
<path class="st2" d="M68,109v22h22v-22H68z M79,130c-5.5,0-10-4.5-10-10s4.5-10,10-10s10,4.5,10,10S84.5,130,79,130z"/>
<path class="st2" d="M0,48v22h22V48H0z M11,69C5.5,69,1,64.5,1,59s4.5-10,10-10s10,4.5,10,10S16.5,69,11,69z"/>
<path class="st2" d="M90,109v22h22v-22H90z M101,130c-5.5,0-10-4.5-10-10s4.5-10,10-10s10,4.5,10,10S106.5,130,101,130z"/>
<path class="st2" d="M112,109v22h22v-22H112z M123,130c-5.5,0-10-4.5-10-10s4.5-10,10-10s10,4.5,10,10S128.5,130,123,130z"/>
<path class="st2" d="M79.2,120.7c-0.3-0.2-0.9-0.6-0.9-0.9s0.1-0.5,0.6-0.9s0.9-0.9,0.9-1.6s-0.3-1.4-0.8-1.7h0.8l0.7-0.7h-2.9
	c-1.5,0-2.7,1.1-2.7,2.3c0,1.2,0.8,2.2,2.2,2.2c0.1,0,0.2,0,0.3,0c-0.1,0.2-0.2,0.4-0.2,0.6c0,0.3,0.2,0.5,0.4,0.8
	c-0.2,0-0.3,0-0.5,0c-1.7,0-2.9,1.2-2.9,2.3c0,1.1,1.4,1.8,3.2,1.8c2,0,3.2-1.1,3.2-2.2C80.3,121.9,80.1,121.4,79.2,120.7z
	 M75.8,117.3c-0.1-1,0.4-1.8,1.2-1.8c0.8,0,1.5,0.9,1.6,1.9s-0.3,1.7-1.1,1.7C76.7,119.1,75.9,118.3,75.8,117.3z M77.2,124.5
	c-1.2,0-2-0.7-2-1.6s1-1.6,2.2-1.6c0.3,0,0.5,0,0.8,0.1c0.6,0.4,1.2,0.7,1.3,1.2c0,0.1,0,0.2,0,0.3
	C79.4,123.8,78.8,124.5,77.2,124.5z"/>
<polygon class="st2" points="84,117.2 82.6,117.2 82.6,118.5 82,118.5 82,117.2 80.6,117.2 80.6,116.5 82,116.5 82,115.1 
	82.6,115.1 82.6,116.5 84,116.5 "/>
<path class="st2" d="M0,109v22h22v-22H0z M11,130c-5.5,0-10-4.5-10-10s4.5-10,10-10s10,4.5,10,10S16.5,130,11,130z"/>
<path class="st1" d="M11.2,120.7c-0.3-0.2-0.9-0.6-0.9-0.9s0.1-0.5,0.6-0.9s0.9-0.9,0.9-1.6s-0.3-1.4-0.8-1.7h0.8l0.7-0.7H9.4
	c-1.5,0-2.7,1.1-2.7,2.3c0,1.2,0.8,2.2,2.2,2.2c0.1,0,0.2,0,0.3,0C9.1,119.6,9,119.8,9,120c0,0.3,0.2,0.5,0.4,0.8
	c-0.2,0-0.3,0-0.5,0c-1.7,0-2.9,1.2-2.9,2.3c0,1.1,1.4,1.8,3.2,1.8c2,0,3.2-1.1,3.2-2.2C12.3,121.9,12.1,121.4,11.2,120.7z
	 M7.8,117.3c-0.1-1,0.4-1.8,1.2-1.8s1.5,0.9,1.6,1.9s-0.3,1.7-1.1,1.7S7.9,118.3,7.8,117.3z M9.2,124.5c-1.2,0-2-0.7-2-1.6
	s1-1.6,2.2-1.6c0.3,0,0.5,0,0.8,0.1c0.6,0.4,1.2,0.7,1.3,1.2c0,0.1,0,0.2,0,0.3C11.4,123.8,10.8,124.5,9.2,124.5z"/>
<polygon class="st1" points="16,117.2 14.6,117.2 14.6,118.5 14,118.5 14,117.2 12.6,117.2 12.6,116.5 14,116.5 14,115.1 
	14.6,115.1 14.6,116.5 16,116.5 "/>
<path class="st1" d="M33.7,125v-5h1.4l0.2-1.8h-1.6v-1c0-0.4,0.3-0.5,0.4-0.5h1.1V115h-1.5c-1.7,0-2.1,1.3-2.1,2.1v1.1h-1v1.8h1v5
	H33.7z"/>
<path class="st2" d="M22,109v22h22v-22H22z M33,130c-5.5,0-10-4.5-10-10s4.5-10,10-10s10,4.5,10,10S38.5,130,33,130z"/>
<path class="st1" d="M61,116.9c-0.4,0.2-0.8,0.3-1.2,0.3c0.4-0.3,0.7-0.7,0.9-1.1c-0.4,0.2-0.8,0.4-1.3,0.5
	c-0.4-0.4-0.9-0.6-1.5-0.6c-1.1,0-2.1,0.9-2.1,2.1c0,0.2,0,0.3,0.1,0.5c-1.7-0.1-3.2-0.9-4.2-2.1c-0.2,0.3-0.3,0.7-0.3,1
	c0,0.7,0.4,1.3,0.9,1.7c-0.3,0-0.7-0.1-0.9-0.3l0,0c0,1,0.7,1.8,1.6,2c-0.2,0-0.4,0.1-0.5,0.1s-0.3,0-0.4,0c0.3,0.8,1,1.4,1.9,1.4
	c-0.7,0.6-1.6,0.9-2.5,0.9c-0.2,0-0.3,0-0.5,0c0.9,0.6,2,0.9,3.1,0.9c3.8,0,5.8-3.1,5.8-5.8c0-0.1,0-0.2,0-0.3
	C60.4,117.7,60.7,117.3,61,116.9z"/>
<path class="st2" d="M45,109v22h22v-22H45z M56,130c-5.5,0-10-4.5-10-10s4.5-10,10-10s10,4.5,10,10S61.5,130,56,130z"/>
<circle class="st13" cx="131" cy="176" r="2"/>
<path class="st12" d="M124,41h3v3h-3V41z M123,44h1v-1h-1V44z M126,41h1v-1h-1V41z M123,42h1v-3h-1V42z M122,41h3v-1h-3V41z M124,46
	h3v3h-3V46z M123,47h1v-1h-1V47z M126,50h1v-1h-1V50z M123,51h1v-3h-1V51z M122,50h3v-1h-3V50z M132,44h-3v-3h3V44z M133,43h-1v1h1
	V43z M130,40h-1v1h1V40z M133,39h-1v3h1V39z M134,40h-3v1h3V40z M132,49h-3v-3h3V49z M133,46h-1v1h1V46z M130,49h-1v1h1V49z M133,48
	h-1v3h1V48z M134,49h-3v1h3V49z"/>
<path class="st1" d="M124,59h3v3h-3V59z M123,62h1v-1h-1V62z M126,59h1v-1h-1V59z M123,60h1v-3h-1V60z M122,59h3v-1h-3V59z M124,64
	h3v3h-3V64z M123,65h1v-1h-1V65z M126,68h1v-1h-1V68z M123,69h1v-3h-1V69z M122,68h3v-1h-3V68z M132,62h-3v-3h3V62z M133,61h-1v1h1
	V61z M130,58h-1v1h1V58z M133,57h-1v3h1V57z M134,58h-3v1h3V58z M132,67h-3v-3h3V67z M133,64h-1v1h1V64z M130,67h-1v1h1V67z M133,66
	h-1v3h1V66z M134,67h-3v1h3V67z"/>
<path class="st2" d="M11.7,59.9l-2.2,1.4c-0.2,0.1-0.4,0.2-0.7,0.1C7.7,61,6.4,61.8,6.4,63c0,1,0.8,1.7,1.7,1.7s1.7-0.7,1.7-1.6
	c0-0.2,0.1-0.4,0.3-0.6l2.5-1.6c0.2-0.1,0.5-0.2,0.8,0c0.4,0.2,0.8,0.3,1.2,0.3c1.4,0,2.4-1.1,2.4-2.4c0-1.4-1.1-2.4-2.4-2.4
	c-0.4,0-0.8,0.1-1.2,0.3c-0.2,0.1-0.5,0.1-0.8,0L10.2,55c-0.2-0.1-0.3-0.3-0.3-0.6c-0.1-0.9-0.8-1.6-1.7-1.6c-1,0-1.7,0.8-1.7,1.7
	c0,1.2,1.2,2.1,2.4,1.6C9.1,56,9.4,56,9.6,56.2l2.2,1.4c0.4,0.3,0.6,0.7,0.6,1.2C12.3,59.2,12,59.7,11.7,59.9z"/>
<path class="st14" d="M134,59c0,5.5-4.5,10-10,10s-10-4.5-10-10s4.5-10,10-10S134,53.5,134,59z M130.2,58.8c0,1.4-1.1,2.4-2.4,2.4
	c-0.4,0-0.8-0.1-1.2-0.3c-0.2-0.1-0.5-0.1-0.8,0l-2.5,1.6c-0.2,0.1-0.3,0.3-0.3,0.6c-0.1,0.9-0.8,1.6-1.7,1.6c-1,0-1.7-0.8-1.7-1.7
	c0-1.2,1.2-2.1,2.4-1.6c0.2,0.1,0.5,0.1,0.7-0.1l2.2-1.4c0.4-0.2,0.6-0.7,0.6-1.1l0,0c0-0.5-0.2-0.9-0.6-1.2l-2.2-1.4
	c-0.2-0.1-0.4-0.1-0.7-0.1c-1.1,0.4-2.4-0.4-2.4-1.6c0-1,0.8-1.7,1.7-1.7c0.9,0,1.7,0.7,1.7,1.6c0,0.2,0.1,0.4,0.3,0.6l2.5,1.6
	c0.2,0.1,0.5,0.2,0.8,0c0.4-0.2,0.8-0.3,1.2-0.3C129.1,56.3,130.2,57.4,130.2,58.8z"/>
<path class="st2" d="M93,48v22h22V48H93z M104,69c-5.5,0-10-4.5-10-10s4.5-10,10-10s10,4.5,10,10S109.5,69,104,69z"/>
<path class="st1" d="M104.7,59.9l-2.2,1.4c-0.2,0.1-0.4,0.2-0.7,0.1c-1.1-0.4-2.4,0.4-2.4,1.6c0,1,0.8,1.7,1.7,1.7
	c0.9,0,1.7-0.7,1.7-1.6c0-0.2,0.1-0.4,0.3-0.6l2.5-1.6c0.2-0.1,0.5-0.2,0.8,0c0.4,0.2,0.8,0.3,1.2,0.3c1.4,0,2.4-1.1,2.4-2.4
	c0-1.4-1.1-2.4-2.4-2.4c-0.4,0-0.8,0.1-1.2,0.3c-0.2,0.1-0.5,0.1-0.8,0l-2.5-1.6c-0.2-0.1-0.3-0.3-0.3-0.6c-0.1-0.9-0.8-1.6-1.7-1.6
	c-1,0-1.7,0.8-1.7,1.7c0,1.2,1.2,2.1,2.4,1.6c0.2-0.1,0.5-0.1,0.7,0.1l2.2,1.4c0.4,0.3,0.6,0.7,0.6,1.2
	C105.3,59.2,105,59.7,104.7,59.9z"/>
<path class="st2" d="M1,192.2v22h22v-22 M12,213.2c-5.5,0-10-4.5-10-10s4.5-10,10-10s10,4.5,10,10C22,208.8,17.5,213.2,12,213.2z"/>
<path class="st2" d="M15.9,197.8H8.1c-0.7,0-1.3,0.6-1.3,1.3v7.8c0,0.7,0.6,1.3,1.3,1.3h7.7c0.7,0,1.3-0.6,1.3-1.3v-7.8
	C17.2,198.4,16.6,197.8,15.9,197.8z M14.1,203.1c0,1.2-1,2.1-2.1,2.1c-1.2,0-2.1-1-2.1-2.1c0-0.4,0.1-0.7,0.2-1
	c0.4-0.7,1.1-1.1,1.9-1.1c0.8,0,1.5,0.5,1.9,1.1C14,202.4,14.1,202.6,14.1,203.1z M16,206.6c0,0.3-0.2,0.5-0.5,0.5H8.6
	c-0.3,0-0.5-0.2-0.5-0.5v-4.5H9c-0.1,0.3-0.2,0.6-0.2,1c0,1.8,1.4,3.2,3.2,3.2s3.2-1.4,3.2-3.2c0-0.3-0.1-0.7-0.2-1h1V206.6
	L16,206.6z M16,200.4c0,0.3-0.2,0.5-0.5,0.5h-0.8c-0.3,0-0.5-0.2-0.5-0.5v-0.9c0-0.2,0.2-0.4,0.4-0.5h1c0.3,0,0.5,0.2,0.5,0.5
	L16,200.4L16,200.4z"/>
<path class="st2" d="M24.3,192.2v22h22v-22H24.3z M35.3,213.2c-5.5,0-10-4.5-10-10s4.5-10,10-10s10,4.5,10,10
	C45.3,208.8,40.8,213.2,35.3,213.2z"/>
<path class="st1" d="M39.2,197.8h-7.7c-0.7,0-1.3,0.6-1.3,1.3v7.8c0,0.7,0.6,1.3,1.3,1.3h7.7c0.7,0,1.3-0.6,1.3-1.3v-7.8
	C40.5,198.4,39.9,197.8,39.2,197.8z M37.4,203.1c0,1.2-1,2.1-2.1,2.1c-1.2,0-2.1-1-2.1-2.1c0-0.4,0.1-0.7,0.2-1
	c0.4-0.7,1.1-1.1,1.9-1.1s1.5,0.5,1.9,1.1C37.3,202.4,37.4,202.6,37.4,203.1z M39.3,206.6c0,0.3-0.2,0.5-0.5,0.5h-6.9
	c-0.3,0-0.5-0.2-0.5-0.5v-4.5h0.9c-0.1,0.3-0.2,0.6-0.2,1c0,1.8,1.4,3.2,3.2,3.2s3.2-1.4,3.2-3.2c0-0.3-0.1-0.7-0.2-1h0.9
	L39.3,206.6L39.3,206.6z M39.3,200.4c0,0.3-0.2,0.5-0.5,0.5H38c-0.3,0-0.5-0.2-0.5-0.5v-0.9c0-0.2,0.2-0.4,0.4-0.5h1
	c0.3,0,0.5,0.2,0.5,0.5v0.9H39.3z"/>
<path class="st15" d="M49.1,6.6c0,0.3,0.2,0.5,0.5,0.5s0.5-0.2,0.5-0.5s-0.2-0.5-0.5-0.5C49.4,6.1,49.1,6.3,49.1,6.6L49.1,6.6z
	 M49.2,6.6c0-0.2,0.2-0.4,0.4-0.4S50,6.4,50,6.6C50,6.8,49.8,7,49.6,7C49.4,7.1,49.2,6.9,49.2,6.6L49.2,6.6z M49.5,6.9L49.5,6.9
	L49.5,6.9C49.6,6.9,49.6,6.9,49.5,6.9l0.1-0.2h0.1l0.1,0.2l0,0l0,0l0,0c0-0.1-0.1-0.1-0.1-0.2c0,0,0.1,0,0.1-0.2
	c0-0.1-0.1-0.2-0.2-0.2h-0.2l0,0v0.6C49.4,6.9,49.5,6.9,49.5,6.9z M49.6,6.6V6.4h0.1c0.1,0,0.1,0,0.1,0.1
	C49.8,6.5,49.8,6.6,49.6,6.6L49.6,6.6L49.6,6.6z"/>
<path class="st1" d="M109.2,6.6c0,0.3,0.2,0.5,0.5,0.5s0.5-0.2,0.5-0.5s-0.2-0.5-0.5-0.5C109.4,6.1,109.2,6.4,109.2,6.6L109.2,6.6z
	 M109.3,6.6c0-0.2,0.2-0.4,0.4-0.4c0.2,0,0.4,0.2,0.4,0.4c0,0.2-0.2,0.4-0.4,0.4C109.5,7.1,109.3,6.9,109.3,6.6L109.3,6.6z
	 M109.5,6.9L109.5,6.9L109.5,6.9C109.6,6.9,109.6,6.9,109.5,6.9l0.1-0.2h0.1l0.1,0.2l0,0l0,0l0,0c0-0.1-0.1-0.1-0.1-0.2
	c0,0,0.1,0,0.1-0.2c0-0.1-0.1-0.2-0.2-0.2h-0.2l0,0L109.5,6.9L109.5,6.9z M109.6,6.6L109.6,6.6L109.6,6.6c0.2-0.1,0.2-0.1,0.2,0
	C109.8,6.6,109.8,6.7,109.6,6.6L109.6,6.6L109.6,6.6z"/>
<path class="st16" d="M68,86.1v22h22v-22H68z M79,107.1c-5.5,0-10-4.5-10-10s4.5-10,10-10s10,4.5,10,10S84.5,107.1,79,107.1z"/>
<path class="st16" d="M45,86.1v22h22v-22H45z M56,107.1c-5.5,0-10-4.5-10-10s4.5-10,10-10s10,4.5,10,10S61.5,107.1,56,107.1z"/>
<path class="st17" d="M83.8,94.8c0,0.5,0,1,0,1.5c-0.1,0.1-0.1,0.2-0.1,0.4c-0.2,0.8-0.5,1.5-1,2.2c-0.8,0.9-2.5,1.5-3.8,0.5
	c-0.1-0.1-0.2-0.2-0.3-0.2c-0.3,1.4-0.6,2.8-1.7,3.8c0,0,0,0-0.1,0c-0.2-1.5,0.1-3,0.5-4.5c0.2-0.8,0.4-1.6,0.2-2.5
	c-0.2-0.6,0.1-1.2,0.6-1.7c0.3-0.4,0.8-0.4,1.2-0.2c0.4,0.2,0.5,0.5,0.4,1c-0.1,0.4-0.2,0.9-0.3,1.3c-0.1,0.4-0.3,0.8-0.3,1.3
	s0.2,0.7,0.7,0.8c0.7,0.2,1.3-0.1,1.7-0.7c0.6-0.8,0.9-1.7,0.8-2.8c-0.1-1.1-0.5-2.1-1.6-2.5c-1.3-0.5-2.9,0-3.7,1.2
	c-0.7,1-1,2-0.3,3.1c0.1,0.2,0.1,0.5,0.1,0.7c-0.1,0.3-0.2,0.4-0.5,0.3c-0.2-0.1-0.5-0.2-0.6-0.4c-0.4-0.3-0.5-0.8-0.6-1.2
	c0-0.5,0-0.9,0-1.4c0.1,0,0.1-0.2,0.1-0.2c0.4-1.5,1.4-2.5,2.8-3c0.3-0.1,0.7-0.2,1-0.3c0.4,0,0.9,0,1.3,0c0.2,0.1,0.3,0.1,0.5,0.1
	c1.4,0.3,2.4,1,2.9,2.4C83.7,94.2,83.7,94.5,83.8,94.8z"/>
<path class="st1" d="M60.8,94.8c0,0.5,0,1,0,1.5c-0.1,0.1-0.1,0.2-0.1,0.4c-0.2,0.8-0.5,1.5-1,2.2c-0.8,0.9-2.5,1.5-3.8,0.5
	c-0.1-0.1-0.2-0.2-0.3-0.2c-0.3,1.4-0.6,2.8-1.7,3.8c0,0,0,0-0.1,0c-0.2-1.5,0.1-3,0.5-4.5c0.2-0.8,0.4-1.6,0.2-2.5
	c-0.2-0.6,0.1-1.2,0.6-1.7c0.3-0.4,0.8-0.4,1.2-0.2c0.4,0.2,0.5,0.5,0.4,1c-0.1,0.4-0.2,0.9-0.3,1.3s-0.3,0.8-0.3,1.3
	s0.2,0.7,0.7,0.8c0.7,0.2,1.3-0.1,1.7-0.7c0.6-0.8,0.9-1.7,0.8-2.8c-0.1-1.1-0.5-2.1-1.6-2.5c-1.3-0.5-2.9,0-3.7,1.2
	c-0.7,1-1,2-0.3,3.1c0.1,0.2,0.1,0.5,0.1,0.7c-0.1,0.3-0.2,0.4-0.5,0.3c-0.2-0.1-0.5-0.2-0.6-0.4c-0.4-0.3-0.5-0.8-0.6-1.2
	c0-0.5,0-0.9,0-1.4c0.1,0,0.1-0.2,0.1-0.2c0.4-1.5,1.4-2.5,2.8-3c0.3-0.1,0.7-0.2,1-0.3c0.4,0,0.9,0,1.3,0c0.2,0.1,0.3,0.1,0.5,0.1
	c1.4,0.3,2.4,1,2.9,2.4C60.7,94.2,60.7,94.5,60.8,94.8z"/>
<polygon class="st1" points="126,150.3 129.5,154.3 133,150.4 "/>
</svg>
