<?xml version="1.0" encoding="utf-8"?>
<!-- Generator: Adobe Illustrator 19.1.0, SVG Export Plug-In . SVG Version: 6.00 Build 0)  -->
<svg version="1.1" id="Layer_1" xmlns="http://www.w3.org/2000/svg" xmlns:xlink="http://www.w3.org/1999/xlink" x="0px" y="0px"
	 width="462.1px" height="678.4px" viewBox="-248 -59.4 462.1 678.4" style="enable-background:new -248 -59.4 462.1 678.4;"
	 xml:space="preserve">
<style type="text/css">
	.st0{display:none;}
	.st1{display:inline;fill:#6DBE45;}
	.st2{display:none;fill:#FFFFFF;}
	.st3{fill:#FFFFFF;}
	.st4{fill:#E2C68C;}
	.st5{fill:#A7905E;}
	.st6{fill:#003057;}
	.st7{display:inline;fill:#FFFFFF;}
	.st8{display:inline;fill:#A3824C;}
	.st9{display:inline;fill:#705835;}
	.st10{fill:#A78F61;}
	.st11{fill:#FFFFFF;stroke:#FFFFFF;stroke-miterlimit:10;}
</style>
<g id="Layer_2_1_" class="st0">
	<rect x="-583" y="153" class="st1" width="462.1" height="510"/>
</g>
<g id="Layer_1_1_">
	<polygon id="Big_Plus__x28_not_needed_x29_" class="st2" points="-55,207.6 -112,207.6 -112,150.6 -113,150.6 -113,207.6 
		-170,207.6 -170,208.6 -113,208.6 -113,265.6 -112,265.6 -112,208.6 -55,208.6 	"/>
	<g>
		<path class="st3" d="M-243.2,101.6l-2.7-3l2.7-2.9c0.2-0.2,0.2-0.6,0-0.9c-0.2-0.2-0.6-0.2-0.8,0l-3.3,3.4c-0.2,0.2-0.2,0.6,0,0.8
			l3.3,3.4c0.2,0.2,0.6,0.2,0.8,0C-242.9,102.2-242.9,101.8-243.2,101.6z"/>
		<path class="st4" d="M-218.2,101.6l-2.7-3l2.7-2.9c0.2-0.2,0.2-0.6,0-0.9c-0.2-0.2-0.6-0.2-0.8,0l-3.3,3.4c-0.2,0.2-0.2,0.6,0,0.8
			l3.3,3.4c0.2,0.2,0.6,0.2,0.8,0C-217.9,102.2-217.9,101.8-218.2,101.6z"/>
		<path class="st5" d="M-193.2,101.6l-2.7-3l2.7-2.9c0.2-0.2,0.2-0.6,0-0.9c-0.2-0.2-0.6-0.2-0.8,0l-3.3,3.4c-0.2,0.2-0.2,0.6,0,0.8
			l3.3,3.4c0.2,0.2,0.6,0.2,0.8,0C-192.9,102.2-192.9,101.8-193.2,101.6z"/>
	</g>
	<g id="DatePicker_Right_Arrows">
		<path class="st3" d="M-247.3,123.6l2.7,3l-2.7,2.9c-0.2,0.2-0.2,0.6,0,0.9c0.2,0.2,0.6,0.2,0.8,0l3.3-3.4c0.2-0.2,0.2-0.6,0-0.8
			l-3.3-3.4c-0.2-0.2-0.6-0.2-0.8,0C-247.6,123-247.6,123.4-247.3,123.6z"/>
		<path class="st4" d="M-222.3,123.6l2.7,3l-2.7,2.9c-0.2,0.2-0.2,0.6,0,0.9c0.2,0.2,0.6,0.2,0.8,0l3.3-3.4c0.2-0.2,0.2-0.6,0-0.8
			l-3.3-3.4c-0.2-0.2-0.6-0.2-0.8,0C-222.6,123-222.6,123.4-222.3,123.6z"/>
		<path class="st5" d="M-197.3,123.6l2.7,3l-2.7,2.9c-0.2,0.2-0.2,0.6,0,0.9c0.2,0.2,0.6,0.2,0.8,0l3.3-3.4c0.2-0.2,0.2-0.6,0-0.8
			l-3.3-3.4c-0.2-0.2-0.6-0.2-0.8,0C-197.6,123-197.6,123.4-197.3,123.6z"/>
	</g>
	<g id="Footer_Bubble_Big_Contact_Items">
		<path id="phone_2_" class="st3" d="M-218.6,314.9c-5,5-10.9,9.9-13.2,7.6c-3.3-3.3-5.3-6.2-12.6-0.3c-7.3,5.9-1.7,9.8,1.5,13
			c3.7,3.7,17.5,0.2,31.1-13.4s17.1-27.4,13.4-31.1c-3.2-3.2-7.1-8.8-13-1.5s-3,9.3,0.3,12.6C-208.7,304-213.5,309.9-218.6,314.9z"
			/>
		<path class="st3" d="M-63,285.6c-12.2,0-22,9.7-22,21.7c0,19.1,22,40.3,22,40.3s22-20.5,22-40.3C-41,295.3-50.8,285.6-63,285.6z
			 M-63,318c-5.5,0-10-4.4-10-9.8s4.5-9.8,10-9.8s10,4.4,10,9.8S-57.5,318-63,318z"/>
		<path id="email_2_" class="st3" d="M-105,288.6c0,15,0,29.9,0,45c-23.9,0-47.8,0-72,0c0-14.9,0-30,0-45c8.1,6,16.2,12,24.5,18.1
			c-3.2,3.8-6,7.1-8.7,10.4c0.3,0.3,0.6,0.5,0.8,0.8c3.4-3,6.9-6,10.3-9c3.3,2.4,6.2,4.6,9.1,6.7c3.2-2.4,6.1-4.5,8.9-6.7
			c3.7,3.2,7.1,6,10.5,8.9c0.2-0.3,0.5-0.5,0.7-0.8c-2.8-3.2-5.6-6.4-8.9-10.2C-121.2,300.6-113.1,294.6-105,288.6z M-175,285.6
			c22.7,0,45.3,0,68,0c-11.3,8.7-22.5,17.4-34,26.4C-152.5,303-163.8,294.3-175,285.6z"/>
	</g>
	<g id="Footer_Bubble_Small_Contact_Items">
		<path id="phone_1_" class="st3" d="M0.5,304c-3.1,3.1-6.8,6.2-8.3,4.8c-2.1-2.1-3.3-3.9-7.9-0.2s-1.1,6.2,0.9,8.2
			c2.3,2.3,11,0.1,19.5-8.4s10.7-17.2,8.4-19.5c-2-2-4.5-5.5-8.2-0.9s-1.9,5.8,0.2,7.9C6.7,297.2,3.7,300.9,0.5,304z"/>
		<path class="st3" d="M110,285.6c-8.3,0-15,6.6-15,14.8c0,13,15,27.5,15,27.5s15-14,15-27.5C125,292.2,118.3,285.6,110,285.6z
			 M110,307.7c-3.8,0-6.8-3-6.8-6.7s3.1-6.7,6.8-6.7s6.8,3,6.8,6.7S113.8,307.7,110,307.7z"/>
		<path id="email_1_" class="st3" d="M69,287.1c0,7.5,0,15,0,22.5c-11.9,0-23.9,0-36,0c0-7.5,0-15,0-22.5c4.1,3,8.1,6,12.2,9
			c-1.6,1.9-3,3.5-4.4,5.2c0.1,0.2,0.3,0.2,0.4,0.4c1.7-1.5,3.4-3,5.1-4.5c1.6,1.2,3.1,2.3,4.6,3.3c1.6-1.2,3.1-2.2,4.4-3.3
			c1.9,1.6,3.6,3,5.2,4.5c0.1-0.2,0.2-0.2,0.4-0.4c-1.4-1.6-2.8-3.2-4.4-5.1C60.9,293.1,64.9,290.1,69,287.1z M34,285.6
			c11.4,0,22.6,0,34,0c-5.6,4.3-11.2,8.7-17,13.2C45.2,294.3,39.6,289.9,34,285.6z"/>
	</g>
	<g id="Pager_Bubbles">
		<path class="st3" d="M-239,19.6c-5,0-9,4-9,9s4,9,9,9s9-4,9-9S-234,19.6-239,19.6z M-239,36.1c-4.1,0-7.5-3.4-7.5-7.5
			s3.4-7.5,7.5-7.5s7.5,3.4,7.5,7.5C-231.5,32.7-234.9,36.1-239,36.1z"/>
		<path class="st3" d="M-201,19.6c-5,0-9,4-9,9s4,9,9,9s9-4,9-9S-196,19.6-201,19.6z M-201,34.6c-3.3,0-6-2.7-6-6s2.7-6,6-6
			s6,2.7,6,6S-197.7,34.6-201,34.6z"/>
		<circle class="st3" cx="-163" cy="28.6" r="9"/>
	</g>
	<g id="Pager_Active_x2F_Hover_Bubbles">
		<path class="st6" d="M-129,19.6c-5,0-9,4-9,9s4,9,9,9s9-4,9-9S-124,19.6-129,19.6z M-129,36.1c-4.1,0-7.5-3.4-7.5-7.5
			s3.4-7.5,7.5-7.5s7.5,3.4,7.5,7.5C-121.5,32.7-124.9,36.1-129,36.1z"/>
		<path class="st6" d="M-91,19.6c-5,0-9,4-9,9s4,9,9,9s9-4,9-9S-86,19.6-91,19.6z M-91,34.6c-3.3,0-6-2.7-6-6s2.7-6,6-6s6,2.7,6,6
			S-87.7,34.6-91,34.6z"/>
		<circle class="st6" cx="-53" cy="28.6" r="9"/>
	</g>
	<g id="sSelect_Arrows__x28_not_needed_x29_" class="st0">
		<polygon class="st7" points="-170,57.6 -170,58.6 -169,58.6 -169,59.6 -168,59.6 -168,60.6 -167,60.6 -167,61.6 -166,61.6 
			-166,60.6 -165,60.6 -165,59.6 -164,59.6 -164,58.6 -163,58.6 -163,57.6 		"/>
		<polygon class="st8" points="-143,57.6 -143,58.6 -142,58.6 -142,59.6 -141,59.6 -141,60.6 -140,60.6 -140,61.6 -139,61.6 
			-139,60.6 -138,60.6 -138,59.6 -137,59.6 -137,58.6 -136,58.6 -136,57.6 		"/>
		<polygon class="st9" points="-116,57.6 -116,58.6 -115,58.6 -115,59.6 -114,59.6 -114,60.6 -113,60.6 -113,61.6 -112,61.6 
			-112,60.6 -111,60.6 -111,59.6 -110,59.6 -110,58.6 -109,58.6 -109,57.6 		"/>
	</g>
	<g id="Social_Icons">
		<g>
			<g>
				<path class="st6" d="M179.9,378.6h-17.8c-1.7,0-3.1,1.4-3.1,3.1v17.8c0,1.7,1.4,3.1,3.1,3.1h17.8c1.7,0,3.1-1.4,3.1-3.1v-17.8
					C183,380,181.6,378.6,179.9,378.6z M171,385.9c2.7,0,4.8,2.1,4.8,4.7s-2.2,4.7-4.8,4.7c-2.7,0-4.8-2.1-4.8-4.7
					S168.4,385.9,171,385.9z M180.3,398.9c0,0.5-0.4,1-1,1h-16.7c-0.5,0-1-0.4-1-1v-10.1h2.2c-0.2,0.6-0.3,1.3-0.3,2
					c0,4,3.3,7.2,7.5,7.2c4.1,0,7.5-3.2,7.5-7.2c0-0.7-0.1-1.4-0.3-2h2.1L180.3,398.9L180.3,398.9z M180.3,384.9
					c0,0.6-0.5,1.1-1.1,1.1h-2.7c-0.6,0-1.1-0.5-1.1-1.1v-2.6c0-0.6,0.5-1.1,1.1-1.1h2.7c0.6,0,1.1,0.5,1.1,1.1V384.9z"/>
			</g>
		</g>
		<path class="st6" d="M-218.6,377.8c-0.4-0.1-1.9-0.2-3.6-0.2c-3.5,0-6,2.2-6,6.1v3.4h-4v4.6h4v11.9h4.8v-11.9h4l0.6-4.6h-4.6v-3
			c0-1.3,0.4-2.3,2.3-2.3h2.5L-218.6,377.8L-218.6,377.8z"/>
		<path class="st6" d="M-146.8,383c-0.9,0.4-1.9,0.7-2.9,0.8c1-0.6,1.8-1.6,2.2-2.8c-1,0.6-2,1-3.2,1.2c-0.9-1-2.2-1.6-3.6-1.6
			c-2.8,0-5,2.3-5,5c0,0.4,0,0.8,0.1,1.2c-4.1-0.2-7.8-2.2-10.3-5.3c-0.4,0.8-0.7,1.6-0.7,2.5c0,1.8,0.9,3.3,2.2,4.2
			c-0.8,0-1.6-0.3-2.2-0.6c0,0,0,0,0,0.1c0,2.5,1.7,4.5,4,5c-0.4,0.1-0.9,0.2-1.3,0.2c-0.3,0-0.6,0-0.9-0.1c0.6,2,2.5,3.5,4.7,3.5
			c-1.7,1.4-3.9,2.2-6.2,2.2c-0.4,0-0.8,0-1.2-0.1c2.2,1.4,4.8,2.3,7.6,2.3c9.2,0,14.2-7.7,14.2-14.4c0-0.2,0-0.4,0-0.7
			C-148.3,384.9-147.5,384-146.8,383z"/>
		<path class="st6" d="M-94.4,390c0-2,3.7-2.4,3.7-6.5c0-2-0.9-3.3-2.3-4.6h2l2.1-1.4h-6.5c-2.2,0-4.5,0.6-6.2,2
			c-1.3,1.1-2.1,2.8-2.1,4.5c0,3.1,2.4,5.3,5.4,5.3c0.4,0,0.7,0,1.1-0.1c-0.2,0.4-0.3,0.8-0.3,1.3c0,0.9,0.4,1.6,1,2.3
			c-2.1,0.1-4.5,0.4-6.3,1.6c-1.4,0.9-2.5,2.4-2.5,4.1c0,0.7,0.2,1.4,0.6,2c1.3,2.2,4.2,2.8,6.5,2.8c3,0,6.3-1,7.9-3.7
			c0.5-0.8,0.7-1.8,0.7-2.7C-89.6,392.8-94.4,392.1-94.4,390z M-96.6,388.5c-2.8,0-4.1-3.7-4.1-6c0-0.9,0.2-1.8,0.7-2.5
			s1.4-1.1,2.3-1.1c2.8,0,4.1,3.9,4.1,6.2c0,0.9-0.2,1.8-0.8,2.5C-94.9,388.2-95.9,388.5-96.6,388.5z M-96.6,402.2
			c-2.5,0-5.8-1.1-5.8-4.1c0-3.2,3.8-4,6.3-4c0.2,0,0.5,0,0.7,0c1.5,1.1,3.6,2.4,3.6,4.5C-91.8,401.2-94.3,402.2-96.6,402.2z
			 M-84,388.5v-3.4h-1.6v3.4h-3.3v1.7h3.3v3.4h1.6v-3.4h3.3v-1.7H-84z"/>
		<path class="st6" d="M32.4,386.4h-5.3v16.2h5.3V386.4z M32.8,381.4c0-1.6-1.1-2.8-3-2.8c-1.8,0-3,1.2-3,2.8s1.1,2.8,2.9,2.8l0,0
			l0,0C31.6,384.2,32.8,382.9,32.8,381.4z M51.6,393.3c0-5-2.6-7.3-6.1-7.3c-2.9,0-4.1,1.6-4.8,2.7l0,0v-2.4h-5.3
			c0,0,0.1,1.5,0,16.2l0,0h5.3v-9c0-0.5,0-1,0.2-1.3c0.4-1,1.3-2,2.7-2c1.9,0,2.7,1.5,2.7,3.7v8.7h5.3L51.6,393.3L51.6,393.3z"/>
		<path class="st6" d="M105.5,377.1c-7.6,0-11.7,4.9-11.7,10.3c0,2.5,1.4,5.6,3.6,6.6c0.3,0.1,0.5,0.1,0.6-0.2
			c0.1-0.2,0.4-1.4,0.5-1.9c0-0.2,0-0.3-0.1-0.5c-0.7-0.8-1.3-2.4-1.3-3.9c0-3.7,3-7.4,8-7.4c4.4,0,7.4,2.8,7.4,6.9
			c0,4.6-2.4,7.8-5.6,7.8c-1.7,0-3-1.4-2.6-3.1c0.5-2,1.5-4.2,1.5-5.7c0-1.3-0.7-2.4-2.2-2.4c-1.8,0-3.2,1.8-3.2,4.1
			c0,1.5,0.5,2.5,0.5,2.5s-1.8,7.1-2.1,8.4c-0.5,2.2,0.1,5.9,0.1,6.2c0,0.2,0.2,0.2,0.3,0.1c0.2-0.2,2.3-3.3,2.9-5.5
			c0.2-0.8,1.1-4,1.1-4c0.6,1.1,2.3,2,4.1,2c5.3,0,9.2-4.7,9.2-10.6C116.5,381.3,111.7,377.1,105.5,377.1"/>
		<path class="st6" d="M-13.5,385.5c-0.4-3.7-1.9-4.2-4.8-4.4c-4.1-0.3-13.3-0.3-17.5,0c-2.9,0.2-4.4,0.7-4.8,4.4
			c-0.3,2.7-0.3,7.4,0,10.1c0.4,3.7,1.9,4.2,4.8,4.4c4.1,0.3,13.3,0.3,17.5,0c2.9-0.2,4.4-0.7,4.8-4.4
			C-13.2,392.9-13.2,388.3-13.5,385.5z M-29.7,394.4v-7.7l7.4,3.8L-29.7,394.4z"/>
	</g>
	<g id="Big_sSelect_Arrows">
		<polygon class="st3" points="-135.2,58.1 -135.9,57.4 -151.5,72.9 -167.1,57.4 -167.8,58.1 -151.5,74.4 		"/>
		<polygon class="st5" points="-33.2,58.1 -33.9,57.4 -49.5,72.9 -65.1,57.4 -65.8,58.1 -49.5,74.4 		"/>
		<polygon class="st4" points="-84.2,58.1 -84.9,57.4 -100.5,72.9 -116.1,57.4 -116.8,58.1 -100.5,74.4 		"/>
	</g>
	<g id="Pin">
		<g>
			<path class="st10" d="M-148,90.6c-5.5,0-10,4.5-10,10s10,18,10,18s10-12.5,10-18S-142.5,90.6-148,90.6z M-148,102.6
				c-1.6,0-2.8-1.3-2.8-2.8s1.3-2.8,2.8-2.8s2.8,1.3,2.8,2.8S-146.4,102.6-148,102.6z"/>
		</g>
	</g>
	<g id="Burger">
		<rect x="-118" y="90.6" class="st6" width="30" height="3"/>
		<rect x="-118" y="100.6" class="st6" width="30" height="3"/>
		<rect x="-118" y="110.6" class="st6" width="30" height="3"/>
	</g>
	<g id="Close_Icon">
		<polygon class="st3" points="-54.7,111.8 -64.2,102.3 -54.7,92.7 -56.8,90.6 -66.3,100.1 -75.9,90.6 -78,92.7 -68.5,102.3 
			-78,111.8 -75.9,113.9 -66.3,104.4 -56.8,113.9 		"/>
		<polygon class="st6" points="-24.7,111.8 -34.2,102.3 -24.7,92.7 -26.8,90.6 -36.3,100.1 -45.9,90.6 -48,92.7 -38.5,102.3 
			-48,111.8 -45.9,113.9 -36.3,104.4 -26.8,113.9 		"/>
	</g>
	<path id="Booking_Icon" class="st6" d="M10.4,105c-3.1,3.1-6.8,6.2-8.3,4.8c-2.1-2.1-3.3-3.9-7.9-0.2s-1.1,6.2,0.9,8.2
		c2.3,2.3,11,0.1,19.5-8.4S25.3,92.2,23,89.9c-2-2-4.5-5.5-8.2-0.9s-1.9,5.8,0.2,7.9C16.7,98.1,13.7,101.8,10.4,105z"/>
	<g id="TopImage_Arrows">
		<polygon class="st3" points="-218,0.6 -217.3,-0.1 -246.7,-29.4 -217.3,-58.7 -218,-59.4 -248,-29.4 		"/>
		<polygon class="st4" points="-167,0.6 -166.3,-0.1 -195.7,-29.4 -166.3,-58.7 -167,-59.4 -197,-29.4 		"/>
		<polygon class="st5" points="-116,0.6 -115.3,-0.1 -144.7,-29.4 -115.3,-58.7 -116,-59.4 -146,-29.4 		"/>
		<polygon class="st3" points="-94.3,0.6 -95,-0.1 -65.7,-29.4 -95,-58.7 -94.3,-59.4 -64.3,-29.4 		"/>
		<polygon class="st4" points="-43.3,0.6 -44,-0.1 -14.7,-29.4 -44,-58.7 -43.3,-59.4 -13.3,-29.4 		"/>
		<polygon class="st5" points="7.7,0.6 7,-0.1 36.3,-29.4 7,-58.7 7.7,-59.4 37.7,-29.4 		"/>
	</g>
	<g id="Events_Arrows__x28_Mobile_x29_">
		<polygon class="st3" points="77,-29.4 77.7,-30.1 63.3,-44.4 77.7,-58.7 77,-59.4 62,-44.4 		"/>
		<polygon class="st4" points="97,-29.4 97.7,-30.1 83.3,-44.4 97.7,-58.7 97,-59.4 82,-44.4 		"/>
		<polygon class="st5" points="117,-29.4 117.7,-30.1 103.3,-44.4 117.7,-58.7 117,-59.4 102,-44.4 		"/>
		<polygon class="st3" points="132.7,-29.4 132,-30.1 146.3,-44.4 132,-58.7 132.7,-59.4 147.7,-44.4 		"/>
		<polygon class="st4" points="152.7,-29.4 152,-30.1 166.3,-44.4 152,-58.7 152.7,-59.4 167.7,-44.4 		"/>
		<polygon class="st5" points="172.7,-29.4 172,-30.1 186.3,-44.4 172,-58.7 172.7,-59.4 187.7,-44.4 		"/>
	</g>
	<g id="Burger_1_">
		<rect x="-118" y="128.6" class="st3" width="30" height="3"/>
		<rect x="-118" y="138.6" class="st3" width="30" height="3"/>
		<rect x="-118" y="148.6" class="st3" width="30" height="3"/>
	</g>
	<g id="Social_Icons_1_">
		<g>
			<g>
				<path class="st11" d="M179.8,423H162c-1.7,0-3.1,1.4-3.1,3.1v17.8c0,1.7,1.4,3.1,3.1,3.1h17.8c1.7,0,3.1-1.4,3.1-3.1v-17.8
					C182.9,424.4,181.5,423,179.8,423z M170.9,430.3c2.7,0,4.8,2.1,4.8,4.7s-2.2,4.7-4.8,4.7c-2.7,0-4.8-2.1-4.8-4.7
					S168.3,430.3,170.9,430.3z M180.2,443.3c0,0.5-0.4,1-1,1h-16.7c-0.5,0-1-0.4-1-1v-10.1h2.2c-0.2,0.6-0.3,1.3-0.3,2
					c0,4,3.3,7.2,7.5,7.2c4.1,0,7.5-3.2,7.5-7.2c0-0.7-0.1-1.4-0.3-2h2.1L180.2,443.3L180.2,443.3z M180.2,429.3
					c0,0.6-0.5,1.1-1.1,1.1h-2.7c-0.6,0-1.1-0.5-1.1-1.1v-2.6c0-0.6,0.5-1.1,1.1-1.1h2.7c0.6,0,1.1,0.5,1.1,1.1V429.3z"/>
			</g>
		</g>
		<path class="st11" d="M-218.7,422.2c-0.4-0.1-1.9-0.2-3.6-0.2c-3.5,0-6,2.2-6,6.1v3.4h-4v4.6h4V448h4.8v-11.9h4l0.6-4.6h-4.6v-3
			c0-1.3,0.4-2.3,2.3-2.3h2.5L-218.7,422.2L-218.7,422.2z"/>
		<path class="st11" d="M-146.9,427.4c-0.9,0.4-1.9,0.7-2.9,0.8c1-0.6,1.8-1.6,2.2-2.8c-1,0.6-2,1-3.2,1.2c-0.9-1-2.2-1.6-3.6-1.6
			c-2.8,0-5,2.3-5,5c0,0.4,0,0.8,0.1,1.2c-4.1-0.2-7.8-2.2-10.3-5.3c-0.4,0.8-0.7,1.6-0.7,2.5c0,1.8,0.9,3.3,2.2,4.2
			c-0.8,0-1.6-0.3-2.2-0.6c0,0,0,0,0,0.1c0,2.5,1.7,4.5,4,5c-0.4,0.1-0.9,0.2-1.3,0.2c-0.3,0-0.6,0-0.9-0.1c0.6,2,2.5,3.5,4.7,3.5
			c-1.7,1.4-3.9,2.2-6.2,2.2c-0.4,0-0.8,0-1.2-0.1c2.2,1.4,4.8,2.3,7.6,2.3c9.2,0,14.2-7.7,14.2-14.4c0-0.2,0-0.4,0-0.7
			C-148.4,429.3-147.6,428.4-146.9,427.4z"/>
		<path class="st11" d="M-94.5,434.4c0-2,3.7-2.4,3.7-6.5c0-2-0.9-3.3-2.3-4.6h2l2.1-1.4h-6.5c-2.2,0-4.5,0.6-6.2,2
			c-1.3,1.1-2.1,2.8-2.1,4.5c0,3.1,2.4,5.3,5.4,5.3c0.4,0,0.7,0,1.1-0.1c-0.2,0.4-0.3,0.8-0.3,1.3c0,0.9,0.4,1.6,1,2.3
			c-2.1,0.1-4.5,0.4-6.3,1.6c-1.4,0.9-2.5,2.4-2.5,4.1c0,0.7,0.2,1.4,0.6,2c1.3,2.2,4.2,2.8,6.5,2.8c3,0,6.3-1,7.9-3.7
			c0.5-0.8,0.7-1.8,0.7-2.7C-89.7,437.2-94.5,436.5-94.5,434.4z M-96.7,432.9c-2.8,0-4.1-3.7-4.1-6c0-0.9,0.2-1.8,0.7-2.5
			s1.4-1.1,2.3-1.1c2.8,0,4.1,3.9,4.1,6.2c0,0.9-0.2,1.8-0.8,2.5C-95,432.6-96,432.9-96.7,432.9z M-96.7,446.6
			c-2.5,0-5.8-1.1-5.8-4.1c0-3.2,3.8-4,6.3-4c0.2,0,0.5,0,0.7,0c1.5,1.1,3.6,2.4,3.6,4.5C-91.9,445.6-94.4,446.6-96.7,446.6z
			 M-84.1,432.9v-3.4h-1.6v3.4H-89v1.7h3.3v3.4h1.6v-3.4h3.3v-1.7H-84.1z"/>
		<path class="st11" d="M32.3,430.8H27V447h5.3V430.8z M32.7,425.8c0-1.6-1.1-2.8-3-2.8c-1.8,0-3,1.2-3,2.8s1.1,2.8,2.9,2.8l0,0l0,0
			C31.5,428.6,32.7,427.3,32.7,425.8z M51.5,437.7c0-5-2.6-7.3-6.1-7.3c-2.9,0-4.1,1.6-4.8,2.7l0,0v-2.4h-5.3c0,0,0.1,1.5,0,16.2
			l0,0h5.3v-9c0-0.5,0-1,0.2-1.3c0.4-1,1.3-2,2.7-2c1.9,0,2.7,1.5,2.7,3.7v8.7h5.3L51.5,437.7L51.5,437.7z"/>
		<path class="st11" d="M105.4,421.5c-7.6,0-11.7,4.9-11.7,10.3c0,2.5,1.4,5.6,3.6,6.6c0.3,0.1,0.5,0.1,0.6-0.2
			c0.1-0.2,0.4-1.4,0.5-1.9c0-0.2,0-0.3-0.1-0.5c-0.7-0.8-1.3-2.4-1.3-3.9c0-3.7,3-7.4,8-7.4c4.4,0,7.4,2.8,7.4,6.9
			c0,4.6-2.4,7.8-5.6,7.8c-1.7,0-3-1.4-2.6-3.1c0.5-2,1.5-4.2,1.5-5.7c0-1.3-0.7-2.4-2.2-2.4c-1.8,0-3.2,1.8-3.2,4.1
			c0,1.5,0.5,2.5,0.5,2.5s-1.8,7.1-2.1,8.4c-0.5,2.2,0.1,5.9,0.1,6.2c0,0.2,0.2,0.2,0.3,0.1c0.2-0.2,2.3-3.3,2.9-5.5
			c0.2-0.8,1.1-4,1.1-4c0.6,1.1,2.3,2,4.1,2c5.3,0,9.2-4.7,9.2-10.6C116.4,425.7,111.6,421.5,105.4,421.5"/>
		<path class="st11" d="M-13.6,429.9c-0.4-3.7-1.9-4.2-4.8-4.4c-4.1-0.3-13.3-0.3-17.5,0c-2.9,0.2-4.4,0.7-4.8,4.4
			c-0.3,2.7-0.3,7.4,0,10.1c0.4,3.7,1.9,4.2,4.8,4.4c4.1,0.3,13.3,0.3,17.5,0c2.9-0.2,4.4-0.7,4.8-4.4
			C-13.3,437.3-13.3,432.7-13.6,429.9z M-29.8,438.8v-7.7l7.4,3.8L-29.8,438.8z"/>
	</g>
</g>
</svg>
